<svg xmlns="http://www.w3.org/2000/svg" fill="none" viewBox="0 0 200 156">
  <g clip-path="url(#a)">
    <path fill="#CAE4DA" d="M52.9 98.2c9-10.7 16.7-22.7 26.5-32.8A58.5 58.5 0 0 1 115.7 46a73 73 0 0 1 16.4 1.2c3.6.6 7.3 1.2 10.8.1 5.7-1.8 9.2-7.8 10.8-13.6 1.6-5.8 2-12 4.5-17.5a25.6 25.6 0 0 1 17-14.2l23.3 28.9a33 33 0 0 0-16.1 11c-6 8.7-5 22-13.4 28.4-9 6.9-22 1.2-33 3.4-5.2 1-10 4-14.6 6.9-11.4 7.1-23 14.3-31.8 24.5-6.3 7.3-11.1 16-18.1 22.6-7.9 7.5-16.6 14-26 19.3-8 4.4-17.1 7.4-26.3 7-1.3 0-2.7-.4-3.8-1.2-1.8-1.5-3.5-5.7-4.6-7.8-1.4-3-2.7-6-3.8-9l-5-13c-1.4-3.9.3-6.8 2.1-10.4a46.7 46.7 0 0 1 31-24.2c2.7-.6 7-1.8 9.7-1.1 2.7.7 4.7 4.5 6 6.8 1.9 3.7 2.7 6.6 5.2 9.9 2.8 3.6 4.2 9 5.6 13.3"/>
    <path fill="#16276A" d="M54 99.3C68.3 81.9 80.4 60 102.3 50.8c5-2.2 10.4-3.3 15.9-3.4 6.3 0 12.4 1.5 18.7 2a15.2 15.2 0 0 0 13.3-5.6c3-4 5-8.5 5.7-13.4 1.4-6.1 2.2-12.4 5.9-17.7 3.3-4.6 8.2-8 13.7-9.3l-1.4-.4 20.4 25.3 2.9 3.6.6-2.5c-5 2-10.1 4.4-14.1 8.2-3.4 3.6-5.8 8-7 12.8-1.5 4.6-2.4 9.4-4.7 13.6a15.3 15.3 0 0 1-12 8.1c-5.3.7-10.9-.2-16.3-.4a33 33 0 0 0-16.5 3.6c-5.5 3-10.7 6.2-15.8 9.7-5.2 3.3-10 6.9-14.7 10.8-4.6 4-8.7 8.3-12.4 13.2-3.7 4.9-7 10-11.2 14.6a114.7 114.7 0 0 1-30.8 23.2c-5.8 3-12 5-18.6 5.6-2.5.2-6.5.8-8.3-1.5a36 36 0 0 1-3.4-6.4c-3-6-5.2-12.5-7.6-18.8-.7-1.5-1.3-3-1.7-4.6-.2-1.6.1-3.2.8-4.7A47.4 47.4 0 0 1 21 96a51.6 51.6 0 0 1 16.6-6.5c2.2-.5 5.5-1.6 7.5-.3 2.1 1.2 3.3 3.8 4.3 5.8 1.3 2.5 2.3 5.1 3.8 7.6 1.6 2.3 3 4.8 4.3 7.3 1 2.6 1.8 5.3 2.7 8 .6 1.7 3.5 1 2.8-.9-.9-2.8-1.7-5.6-2.8-8.4a57.5 57.5 0 0 0-4.5-7.5c-2.7-4.6-4-10.7-8.5-14-2-1.6-4.5-1.5-7-1.2a48 48 0 0 0-36.7 24.5 25 25 0 0 0-3.4 8.5c-.5 3.3 1.2 6.5 2.4 9.5 2.4 6.4 4.7 12.7 7.7 18.8.9 2.4 2.2 4.6 3.8 6.5 2 2 5.2 1.9 7.9 1.8 13.5-.3 25.7-7.2 36.4-14.9a112 112 0 0 0 15.5-12.9c4.4-4.6 8-10 11.8-15a85 85 0 0 1 13-14.4 141 141 0 0 1 16-11.6c5.3-3.5 10.8-7.3 16.7-9.9 6-2.5 12-2.2 18.1-1.7 5.5.4 11.4.8 16.6-1.3a18.7 18.7 0 0 0 10-10.5c2-4.7 2.9-9.7 4.5-14.4 1.8-5.3 5.4-9.8 10.2-12.6a49 49 0 0 1 8.8-4.3 1.5 1.5 0 0 0 0-2.2L179.2 4.4l-3-3.5a1.5 1.5 0 0 0-1.4-.4A27.6 27.6 0 0 0 155 21c-2.3 9-3.1 24.7-15.6 25.3a49 49 0 0 1-9.3-1 86 86 0 0 0-9.3-1c-5.6-.2-11.3.6-16.6 2.5a69.6 69.6 0 0 0-26.7 18.3c-9.4 10-16.9 21.5-25.7 32-1.2 1.4 1 3.6 2.2 2v.2Z"/>
    <path fill="#CAE4DA" d="M48.2 91A60.2 60.2 0 0 0 2 122.5"/>
    <path fill="#16276A" d="M48.2 89.6A62.2 62.2 0 0 0 .7 121.8c-1 1.7 1.7 3.2 2.7 1.5a59.3 59.3 0 0 1 44.8-30.8c2-.2 2-3.2 0-3Z"/>
    <path fill="#CAE4DA" d="M58.8 110.4c-10.1-.3-20 4-28 10.2a94.4 94.4 0 0 0-20 23"/>
    <path fill="#16276A" d="M58.8 108.9c-22-.4-38 17-49.3 34-1 1.6 1.5 3.1 2.6 1.5 10.7-16 25.8-33 46.7-32.5a1.5 1.5 0 0 0 1.4-1.5 1.5 1.5 0 0 0-1.4-1.5ZM176.4 6a33.8 33.8 0 0 0-16.2 22c-1.4 5.3-1.9 11.2-5 15.9-2.8 4-7.1 6.7-11.9 7.8-11.3 2.8-22.6-3.3-34-.5-10.8 2.7-19.4 11-27 18.5-10 9.6-19 20-27.2 31-1.2 1.6 1.4 3.1 2.5 1.6 7.3-9.8 15.3-19 24-27.7 7.6-7.7 16-16.7 26.7-20 11.2-3.5 22.5 2.4 33.9.4a25 25 0 0 0 12.4-5.8c3.9-3.5 5.7-8.3 6.9-13.4 1.3-5.6 2.4-11.3 5.3-16.4 2.6-4.6 6.4-8.3 11-10.8 1.8-1 .3-3.5-1.4-2.6Z"/>
    <path fill="#16276A" d="M194 24.3a21 21 0 0 0-16.2 10.5c-2 3.2-3.5 6.8-4.4 10.4-1 3.5-1.6 7-2.8 10.5a17.4 17.4 0 0 1-6.4 8.2c-3 2.3-6.5 4-10.3 3.5-3.7-.5-7-2-10.7-2.5-3.7-.2-7.4.4-10.9 1.9a132.6 132.6 0 0 0-40 25.3c-11 10.4-20.4 22.5-31.6 32.8-12 11-26.9 20.3-43.6 20a1.5 1.5 0 0 0-1.4 1.6 1.5 1.5 0 0 0 1.4 1.5c31.1.4 51.5-27.3 71-47.6a126 126 0 0 1 17-15.3c6.9-4.7 14-9 21.6-12.6 3.5-1.9 7.2-3.3 11.1-4.3 4-.8 7.3 0 11.2 1.2 3.4 1 6.7 1.5 10.2.5 3.4-1.2 6.5-3 9-5.5 6.1-5.5 6.4-13.9 8.9-21.1 2.6-7.6 8.1-15.5 16.8-16 2-.1 2-3.1 0-3Z"/>
    <path fill="#16276A" d="M164.6 21.1c1.3 2.7 3.8 4.9 5.8 7l6.8 7c1.3 1.5 3.4-.7 2.1-2l-6.6-7-3.1-3.2c-1-1-1.8-2-2.4-3.3a1.5 1.5 0 0 0-2-.5 1.5 1.5 0 0 0-.6 2ZM159 38.5l12.4 14c1.4 1.3 3.4-.8 2.1-2.2l-12.4-14c-1.3-1.4-3.4.7-2.1 2.2Zm-9.8 12.8c3.6 5.4 7.4 10.6 11.5 15.7a1.5 1.5 0 0 0 2 0 1.5 1.5 0 0 0 0-2.1c-3.8-5-7.4-10-10.9-15.1-1-1.6-3.6-.1-2.6 1.5ZM132 55.7c2.2 4.2 5 8 8 11.7a1.5 1.5 0 0 0 2 0 1.5 1.5 0 0 0 0-2.1 66.8 66.8 0 0 1-7.4-11.1 1.5 1.5 0 0 0-2.6 1.5Zm-19-2.2c2.6 6.4 6 12.4 10.1 18a1.5 1.5 0 0 0 2 .5 1.5 1.5 0 0 0 .6-2 81 81 0 0 1-9.8-17.3 1.6 1.6 0 0 0-1.9-1 1.5 1.5 0 0 0-1 1.8Zm-20.2 8.8c4 6.7 8.8 13 14.4 18.3 1.3 1.3 3.5-.8 2.1-2.1a80 80 0 0 1-13.9-17.7 1.5 1.5 0 0 0-2.6 1.5Zm-15 14c3 7 6.4 14 12.8 18.5 1.6 1 3-1.5 1.5-2.6-5.9-4.1-8.9-11-11.7-17.4a1.5 1.5 0 0 0-2-.5 1.5 1.5 0 0 0-.6 2ZM64.6 92.6a51.2 51.2 0 0 0 13.7 16.5 1.5 1.5 0 0 0 2-.5 1.5 1.5 0 0 0-.5-2c-5.5-3.9-9.1-9.8-12.6-15.5-1-1.6-3.6-.1-2.6 1.5Zm-8.2 25.8 1.9 3.4a33.4 33.4 0 0 1 2.9 3 1.5 1.5 0 0 0 1.6-.4 1.5 1.5 0 0 0 0-2c-.6-.8-1.3-1.4-2-2 0-.2 0-.4.2.1l-.1-.2-.5-.8c-.4-1-1-1.8-1.4-2.7a1.5 1.5 0 0 0-2.6 1.5Z"/>
    <path fill="#CAE4DA" d="M24.5 99.8c2.1 6.2 5 12.2 8.3 17.8l-8.3-17.8Z"/>
    <path fill="#16276A" d="M23 100.2c2.2 6.4 5 12.4 8.5 18.2a1.5 1.5 0 1 0 2.6-1.5c-3.3-5.6-6-11.4-8.1-17.5-.7-1.8-3.5-1-2.9.8Z"/>
    <path fill="#CAE4DA" d="M7.2 115.1c2.5 6 6 11.4 10.2 16.2L7.2 115.1Z"/>
    <path fill="#16276A" d="M5.9 116c2.6 6 6.1 11.5 10.5 16.4 1.3 1.4 3.3-.7 2-2.2-4-4.7-7.4-10-10-15.8a1.5 1.5 0 0 0-2-.5 1.5 1.5 0 0 0-.5 2Zm32.4 9.3c2.1 4 5 7.5 8.3 10.4a1.5 1.5 0 0 0 2.1 0 1.5 1.5 0 0 0 0-2.1 37.3 37.3 0 0 1-7.8-9.8 1.5 1.5 0 0 0-2-.5 1.5 1.5 0 0 0-.6 2ZM26.9 134c2.2 3 4.6 5.6 7.3 8a1.5 1.5 0 0 0 2.5-1c0-.4-.1-.8-.4-1a67 67 0 0 1-7.8-8.4 1.5 1.5 0 0 0-1.6.3 1.6 1.6 0 0 0 0 2.1Z"/>
    <path fill="#CAE4DA" d="M168.6 5c1.4 1.5 2.9 3 4.6 4.1L168.6 5Z"/>
    <path fill="#16276A" d="M167.9 5.6a22.3 22.3 0 0 0 4.8 4.4 1 1 0 0 0 1.4-.4 1 1 0 0 0-.4-1.3l-.5-.4-.2-.1-.3-.2-1.3-1.1-2.2-2.3a1 1 0 0 0-1.6.7c0 .3 0 .6.2.8Z"/>
    <path fill="#CAE4DA" d="m163 10.3 4.8 2.8-4.9-2.8Z"/>
    <path fill="#16276A" d="m162.4 11.1 4.9 2.9a1 1 0 1 0 1-1.8l-4.8-2.8a1 1 0 0 0-1.4.4 1 1 0 0 0 .4 1.3Z"/>
    <path fill="#CAE4DA" d="M158.7 16.5a22 22 0 0 0 5.5 2.2l-5.5-2.2Z"/>
    <path fill="#16276A" d="M158.2 17.4c1.8 1 3.7 1.7 5.7 2.2a1 1 0 0 0 1.3-.7 1 1 0 0 0-.8-1.2l-2.7-.9-.7-.2-.2-.1-.3-.1a117.6 117.6 0 0 1-2.1-.8 1 1 0 0 0-.2 1.8Z"/>
    <path fill="#CAE4DA" d="M156 24.1c1.5.7 3.1 1 4.8 1.2l-4.9-1.2Z"/>
    <path fill="#16276A" d="M155.5 25.6c1.7.7 3.5 1.1 5.3 1.3.4 0 .8-.2 1-.4a1.5 1.5 0 0 0 .4-1.7c0-.2-.2-.3-.3-.5-.3-.2-.7-.4-1-.4h-.7.4a27 27 0 0 1-4.3-1.2 1.5 1.5 0 0 0-1.8 1c-.1.4 0 .8.1 1.2.2.3.6.5 1 .7Z"/>
    <path fill="#CAE4DA" d="M154.1 31.7c1.6 1 3.4 1.5 5.2 1.5l-5.2-1.5Z"/>
    <path fill="#16276A" d="M153 32.7a11.8 11.8 0 0 0 6.3 2 1.5 1.5 0 0 0 1.5-1.5 1.5 1.5 0 0 0-1.5-1.5h-1.1.4l-2.2-.5-.5-.2h.2-.4l-.4-.3-.2-.1c-.3-.3-.6-.5-1-.5a1.5 1.5 0 0 0-1.4 1 1.5 1.5 0 0 0 .3 1.6Z"/>
    <path fill="#CAE4DA" d="M151.3 39.7a19 19 0 0 0 5 1.8l-5-1.8Z"/>
    <path fill="#16276A" d="M150.5 41a17.8 17.8 0 0 0 5.4 2 1.5 1.5 0 0 0 1.6-.6 1.5 1.5 0 0 0 .1-1.6c-.2-.4-.5-.6-.9-.7l-3.6-1.2.3.2-1.3-.7a1.5 1.5 0 0 0-2 .6 1.5 1.5 0 0 0 .5 2Z"/>
    <path fill="#CAE4DA" d="M147.6 45.6a14 14 0 0 0 4.9 2.4l-5-2.4Z"/>
    <path fill="#16276A" d="M146.5 46.7a12.4 12.4 0 0 0 5.7 2.7 1.5 1.5 0 0 0 1.8-1 1.6 1.6 0 0 0-1-1.8c-.7-.1-1.2-.3-1.8-.6l.4.2-1.8-.9-.8-.5-.3-.2h-.1c.2 0 .2.1.1 0-.3-.3-.7-.5-1.1-.5-.4 0-.8.2-1 .5a1.5 1.5 0 0 0 0 2Z"/>
    <path fill="#CAE4DA" d="M141.2 48.1c1.2 1.6 2.8 2.9 4.7 3.7l-4.7-3.7Z"/>
    <path fill="#16276A" d="M140 48.9a16 16 0 0 0 2.5 2.6l2.6 1.6c.4.2.8.2 1.2.1a1.5 1.5 0 0 0 1-1.8c0-.4-.3-.7-.6-1-1-.4-1.9-.9-2.7-1.5l.3.2a9.5 9.5 0 0 1-2-2l.3.3c-.2-.3-.6-.5-1-.6a1.5 1.5 0 0 0-1.5.5l-.3.5a1.3 1.3 0 0 0 .2 1.1Z"/>
    <path fill="#CAE4DA" d="M133.2 47.8c1.2 2 2.5 3.7 4 5.3l-4-5.3Z"/>
    <path fill="#16276A" d="M132 48.6c1.1 2 2.5 3.9 4 5.6a1.5 1.5 0 0 0 2.2 0 1.5 1.5 0 0 0 0-2.1l-1-1.2-.3-.3-.1-.2-.5-.7a45 45 0 0 1-2.2-3 1.5 1.5 0 0 0-2.2 1.9Z"/>
    <path fill="#CAE4DA" d="M125.7 47.4a7 7 0 0 0 1 5.1l-1-5Z"/>
    <path fill="#16276A" d="M124.2 47c-.4 2.2 0 4.4 1.2 6.2a1.5 1.5 0 0 0 2 .6 1.5 1.5 0 0 0 .5-2c0-.3-.2-.5-.3-.7l-.2-.3s.1.3 0 0v-.1l-.3-1.5v.4a8 8 0 0 1 0-1.9v.4-.3c0-.4 0-.8-.2-1.1-.2-.4-.5-.6-.9-.7a1.5 1.5 0 0 0-1.8 1Z"/>
    <path fill="#CAE4DA" d="M116.8 46c.2 1.8.7 3.6 1.5 5.3l-1.5-5.3Z"/>
    <path fill="#16276A" d="M115.3 46a20 20 0 0 0 1.7 6 1.5 1.5 0 0 0 2 .6 1.5 1.5 0 0 0 .6-2.1l-.2-.3c-.1-.4.1.2 0 0l-.2-.6a18.8 18.8 0 0 1-.9-3.7v.4-.4c0-.4-.2-.7-.4-1a1.5 1.5 0 0 0-2.5.4v.6h-.1Z"/>
    <path fill="#CAE4DA" d="M108.3 47.3c.4 1.5 1 3 1.6 4.4l-1.6-4.4Z"/>
    <path fill="#16276A" d="M106.9 47.6c.4 1.7 1 3.3 1.7 4.8.2.3.5.6.9.7a1.5 1.5 0 0 0 1.6-.5l.2-.6a2 2 0 0 0-.1-1.1l-.4-.8.2.3c-.5-1.1-1-2.3-1.3-3.6a1.5 1.5 0 0 0-1.8-1 1.5 1.5 0 0 0-1 1.8Z"/>
    <path fill="#CAE4DA" d="M100.7 49.7a13 13 0 0 0 2.7 4.3l-2.7-4.3Z"/>
    <path fill="#16276A" d="M99.4 50.5c.7 1.6 1.7 3.2 3 4.5a1.5 1.5 0 0 0 2 0 1.5 1.5 0 0 0 0-2.1l-.7-.8.3.2c-.8-1-1.5-2.1-2-3.3a1.4 1.4 0 0 0-.9-.7 1.5 1.5 0 0 0-1.2.1c-.3.2-.5.5-.6 1v.3c0 .3 0 .6.2.8Z"/>
    <path fill="#CAE4DA" d="M92.4 54.3c.7 1.6 1.6 3 2.9 4.3l-2.9-4.3Z"/>
    <path fill="#16276A" d="M91 54.8c.7 1.8 1.8 3.5 3.2 5a1.5 1.5 0 0 0 2.1 0 1.5 1.5 0 0 0 0-2.2 11 11 0 0 1-1-1.3l.2.3a10 10 0 0 1-1.7-2.8l.2.4-.1-.2c-.1-.4-.4-.7-.7-1-.4-.1-.8-.2-1.2-.1a1.5 1.5 0 0 0-1 1.3v.6Z"/>
    <path fill="#CAE4DA" d="M85.6 61.1a27 27 0 0 0 3.7 3l-3.7-3Z"/>
    <path fill="#16276A" d="M84.5 62.2a21.6 21.6 0 0 0 4 3.1 1.5 1.5 0 0 0 2-.6 1.5 1.5 0 0 0-.4-2l-2-1.3.3.2-1.8-1.5c-.3-.3-.6-.5-1-.5a1.5 1.5 0 0 0-1 .5 1.5 1.5 0 0 0 0 2Z"/>
    <path fill="#CAE4DA" d="M79.4 66.8a7 7 0 0 0 3.9 2.8l-3.9-2.8Z"/>
    <path fill="#16276A" d="M78.1 67.6a8 8 0 0 0 2.2 2.3c.8.5 1.7.9 2.6 1.2A1.4 1.4 0 0 0 84 71a1.5 1.5 0 0 0 .6-2l-.3-.4-.6-.4-.5-.2.4.2c-.7-.3-1.4-.6-2-1.1l.2.2-1-1 .2.3-.3-.5c-.2-.3-.5-.6-.9-.7a1.5 1.5 0 0 0-1.8 1c-.1.5 0 .9.1 1.2Z"/>
    <path fill="#CAE4DA" d="M73.3 72.5c1.3 1 2.7 2 4.2 2.6l-4.2-2.6Z"/>
    <path fill="#16276A" d="M72.2 73.5a22 22 0 0 0 4.5 3c.4.1.8.2 1.2 0a1.5 1.5 0 0 0 .3-2.7 18 18 0 0 1-3.5-2.1l.3.2-.7-.5a2 2 0 0 0-1-.5c-.4 0-.8.2-1 .5-.4.3-.5.7-.5 1 0 .4.1.8.4 1.1Z"/>
    <path fill="#CAE4DA" d="M67.3 79.5c1.1 1.1 2.4 2 3.8 2.6l-3.8-2.6Z"/>
    <path fill="#16276A" d="M66.3 80.6a12 12 0 0 0 4.4 2.9 1.4 1.4 0 0 0 1.2-.2c.3-.1.5-.5.7-.8 0-.4 0-.9-.2-1.2l-.2-.3-.7-.4h-.2.4a11 11 0 0 1-2.5-1.4l.3.3-1.1-1a1.5 1.5 0 0 0-2.5 1c0 .4.1.8.4 1Z"/>
    <path fill="#CAE4DA" d="M61.4 87.4c1.1 1 2.3 1.8 3.6 2.4l-3.6-2.4Z"/>
    <path fill="#16276A" d="M60.4 88.4c1.2 1 2.5 2 3.8 2.7.4.2.8.2 1.2.1a1.5 1.5 0 0 0 1-1.8c0-.4-.3-.7-.6-.9-1-.5-1.9-1-2.7-1.7l.3.2-1-.7c-.2-.3-.6-.5-1-.5a1.5 1.5 0 0 0-1.5 1.5c0 .4.2.8.5 1v.1Z"/>
    <path fill="#CAE4DA" d="M57 93.1a8.9 8.9 0 0 0 3 3.1l-3-3.1Z"/>
    <path fill="#16276A" d="M55.6 93.9c.9 1.4 2.1 2.7 3.6 3.6.3.2.7.3 1.1.2.4-.1.7-.4.9-.7a1.5 1.5 0 0 0-.5-2l-.7-.5.3.2a9 9 0 0 1-1.6-1.6l.2.3-.7-1a1.6 1.6 0 0 0-1.5-.8l-.5.2a1.5 1.5 0 0 0-.6 2Z"/>
    <path fill="#CAE4DA" d="m36 88.3 2 4.1-2-4Z"/>
    <path fill="#16276A" d="m34.7 89 2 4.2c.2.3.5.6.8.7a1.5 1.5 0 0 0 1.9-1c0-.5 0-.9-.2-1.2l-1.9-4.1c-.2-.3-.5-.6-.9-.7a2 2 0 0 0-1.1.1c-.4.3-.6.6-.7 1l.1 1.1Z"/>
    <path fill="#CAE4DA" d="m27.6 90.9 1.1 2 1.6 2.3"/>
    <path fill="#16276A" d="M26.2 91.3c.3.8.8 1.7 1.3 2.4L29 96c.2.3.5.6.9.7.4 0 .8 0 1.1-.2a1.5 1.5 0 0 0 .6-2l-1.4-2.1-1.2-2 .1.3v-.2l-.7-1a1.5 1.5 0 0 0-2.2.9v.9Z"/>
    <path fill="#CAE4DA" d="m19.8 95 2.6 4.3-2.6-4.4Z"/>
    <path fill="#16276A" d="m18.5 95.7 2.7 4.4a1.5 1.5 0 0 0 2.5-1.5l-2.6-4.4a1.5 1.5 0 0 0-2.6 1.5Z"/>
    <path fill="#CAE4DA" d="M12.9 100.6a18 18 0 0 0 2.2 3.8l-2.2-3.8Z"/>
    <path fill="#16276A" d="M11.6 101.4a19 19 0 0 0 2.5 4 1.5 1.5 0 0 0 1.6.3c.2 0 .4-.2.5-.3a1.4 1.4 0 0 0 .4-1v-.5l-.4-.7-.2-.2.3.3c-.8-1-1.5-2.3-2.1-3.5a1.5 1.5 0 0 0-2-.5 1.4 1.4 0 0 0-.7.9v.4c0 .2 0 .5.2.7h-.1Z"/>
    <path fill="#CAE4DA" d="M7.5 107.2c.4 1 1 1.8 1.8 2.5l-1.8-2.5Z"/>
    <path fill="#16276A" d="M6.2 108c.5 1 1.2 2 2 2.8.3.3.7.4 1 .4a1.5 1.5 0 0 0 1.6-1.5c0-.4-.2-.7-.5-1l-.7-.9.2.3-1-1.6c-.2-.4-.5-.6-1-.7a1.5 1.5 0 0 0-1.8 1v.4l.2.8Z"/>
    <path fill="#CAE4DA" d="M50.5 111.1c1 1.7 2.4 4.4 3.2 6.2l-3.2-6.2Z"/>
    <path fill="#16276A" d="M49.2 111.9c1.2 2 2.2 4 3.2 6.2a1.5 1.5 0 0 0 2 .5 1.5 1.5 0 0 0 .6-2c-1-2.2-2-4.2-3.2-6.3a1.5 1.5 0 0 0-2.6 1.6Z"/>
    <path fill="#CAE4DA" d="M43 113.4a39 39 0 0 0 2.8 6.6l-2.8-6.6Z"/>
    <path fill="#16276A" d="M41.6 113.8c.3 1.3.8 2.5 1.3 3.7a24 24 0 0 0 2 3.7 1.5 1.5 0 0 0 2.3-1.4c0-.2 0-.4-.2-.6l-1.5-3.1v-.2c-.2-.1 0 .2 0 0l-.3-.5c0-.3-.2-.6-.3-.8l-.5-1.6a1.5 1.5 0 0 0-1.9-1.1 1.5 1.5 0 0 0-1 1.8v.1Z"/>
    <path fill="#CAE4DA" d="M35.6 117.4c1 1.8 2.1 3.5 3.3 5.1l-3.3-5.1Z"/>
    <path fill="#16276A" d="M34.4 118.2c1 1.8 2 3.5 3.2 5.2a1.5 1.5 0 0 0 2 .5 1.5 1.5 0 0 0 .6-2 54.7 54.7 0 0 1-3.3-5.2 1.5 1.5 0 0 0-2-.5 1.5 1.5 0 0 0-.5 2Z"/>
    <path fill="#CAE4DA" d="M29.9 122c1 1.4 2 2.8 3.2 4.1l-3.2-4.2Z"/>
    <path fill="#16276A" d="M28.6 122.7c1 1.5 2.2 3 3.4 4.5.3.3.7.4 1 .4a1.5 1.5 0 0 0 1.5-1.5c0-.3-.1-.7-.4-1-.4-.5-.9-1-1.3-1.7l.2.4-1.9-2.6c-.2-.4-.5-.6-.9-.7a2 2 0 0 0-1.1.1 1.5 1.5 0 0 0-.5 2Z"/>
    <path fill="#CAE4DA" d="M24.2 127c1 1.7 2 3.3 3.2 4.9l-3.2-4.9Z"/>
    <path fill="#16276A" d="M23 127.7c.8 1.7 1.9 3.4 3 5 .3.2.6.5 1 .6a1.5 1.5 0 0 0 1.8-1c0-.4 0-.8-.2-1.2a37.5 37.5 0 0 1-3-4.9 1.5 1.5 0 0 0-2-.5 1.5 1.5 0 0 0-.6 2Z"/>
    <path fill="#CAE4DA" d="M19.6 133a14 14 0 0 0 2.7 3.3l-2.7-3.3Z"/>
    <path fill="#16276A" d="M18.3 133.7a19 19 0 0 0 2.9 3.7c.2.3.6.4 1 .5.4 0 .8-.2 1-.5a1.5 1.5 0 0 0 .4-1.6c0-.2-.2-.4-.3-.5l-1.5-1.6.3.3-1.2-1.8a1.6 1.6 0 0 0-1.5-.7c-.2 0-.4 0-.5.2a1.5 1.5 0 0 0-.6 2Z"/>
    <path fill="#CAE4DA" d="m14.6 138.4 3.2 3.8-3.2-3.8Z"/>
    <path fill="#16276A" d="m13.6 139.5 3.2 3.7a1.5 1.5 0 0 0 1.6.4l.5-.4a1.4 1.4 0 0 0 .5-1c0-.4-.2-.8-.5-1l-3.2-3.8a1.5 1.5 0 0 0-1.6-.3c-.2 0-.3.2-.5.3a1.4 1.4 0 0 0-.4 1c0 .5.2.8.4 1.1Zm8.4 6.9a18.4 18.4 0 0 1 .5 6 1 1 0 0 0 1 1 1 1 0 0 0 1-1 22.7 22.7 0 0 0-.7-6.8 1 1 0 0 0-1-.4 1 1 0 0 0-.8.9v.3Zm7-1.1a18.4 18.4 0 0 1 2 6 1 1 0 0 0 1.2.6 1 1 0 0 0 .7-1.2c-.4-2.2-1.2-4.4-2.2-6.4a1 1 0 0 0-1.4-.4 1 1 0 0 0-.3 1.4Zm7-2.3 3.7 6a1.5 1.5 0 0 0 1.5.7 1.5 1.5 0 0 0 1-2.3l-3.5-5.8A1.5 1.5 0 1 0 36 143Zm8.1-3.6a157.8 157.8 0 0 0 5.5 5.3 1.5 1.5 0 0 0 2-1.3c0-.4-.1-.8-.4-1.1l-5-5a1.5 1.5 0 0 0-2 0 1.5 1.5 0 0 0 0 2Zm8.6-5.2L59 138a1.5 1.5 0 0 0 2-.6 1.5 1.5 0 0 0-.5-2 485 485 0 0 0-6.3-3.7 1.5 1.5 0 0 0-2 .6 1.5 1.5 0 0 0 .5 2Zm7.1-5.3 6 2.9a1.5 1.5 0 1 0 1.6-2.6l-6-3A1.5 1.5 0 0 0 59 128a1.5 1.5 0 0 0 .8.9h-.1Zm7.5-6.9a26 26 0 0 0 6.3 3 1.5 1.5 0 0 0 1.7-2.1c-.2-.4-.5-.6-.9-.7l-1.6-.6-.2-.1h-.1l-.7-.4a37.2 37.2 0 0 1-3.5-1.8 1.5 1.5 0 0 0-1.6.7 1.5 1.5 0 0 0 .7 2.1h-.1Zm6-6.4c2 .8 4 1.5 6 2a1.5 1.5 0 0 0 1.8-1 1.5 1.5 0 0 0-1-1.9c-1-.2-2-.4-2.8-.8l-1.4-.4-.3-.2h-.2.1l-.4-.1-.3-.2c-.4-.2-.8-.2-1.2-.2-.4.2-.7.4-.9.7a1.5 1.5 0 0 0 .6 2Zm5.2-5.9c1.6 1.1 3.5 1.8 5.5 2.2.4 0 .8 0 1.1-.2a1.5 1.5 0 0 0-.3-2.7 13.1 13.1 0 0 1-3-.9l.1.1-.8-.4-1.2-.7a1.5 1.5 0 1 0-1.4 2.6Zm5.7-6.4a38.1 38.1 0 0 0 6.4 2.1 1.5 1.5 0 0 0 1.3-1 1.5 1.5 0 0 0-1.1-2c-2-.5-4-1.2-5.8-2a1.5 1.5 0 0 0-1.8 1 1.5 1.5 0 0 0 .1 1.2c.2.3.6.6 1 .7Zm6-6.3a13.6 13.6 0 0 0 5.5 2c.4 0 .8-.2 1-.5.3-.3.5-.7.5-1a1.5 1.5 0 0 0-.5-1.1l-.3-.3-.7-.2h-.1.4c-1-.1-2-.4-3-.8l.4.2-1.7-1a1.5 1.5 0 0 0-2.2 1.7c.1.4.4.7.7 1Zm5.6-5.8c1.6 1.3 3.4 2.4 5.4 3.1a1.5 1.5 0 0 0 1.8-1 1.5 1.5 0 0 0-.2-1.2l-.8-.7h-.4.4c-1.3-.5-2.5-1.2-3.6-2l.3.2-.7-.6c-.3-.2-.6-.4-1-.4s-.8.2-1.1.4a1.5 1.5 0 0 0 0 2.2Zm6.3-4.9a25.7 25.7 0 0 0 6.8 2.5 1.5 1.5 0 0 0 1.3-1.1 1.5 1.5 0 0 0-1.1-1.9c-1-.2-2-.5-3-1h-.3c-.4-.2.2 0 0 0l-.8-.4-1.4-.7a1.5 1.5 0 0 0-2 .6 1.5 1.5 0 0 0 .5 2Zm7.9-6.1a9.6 9.6 0 0 0 5.6 4.3 1.5 1.5 0 0 0 1.7-1 1.5 1.5 0 0 0-1-1.9l-.9-.3.4.1c-.6-.2-1.2-.6-1.7-1l.3.3-1.5-1.5.2.3-.5-.8a1.5 1.5 0 0 0-2-.6 1.5 1.5 0 0 0-.6 2Zm8.3-4.2 4.6 2.8a1.5 1.5 0 0 0 1.5-2.6l-4.6-2.9a1.5 1.5 0 0 0-2 1.7c0 .4.2.7.5 1Zm7.6-4.7c1.2 1.6 2.8 3 4.7 3.8.3.2.7.2 1.1.1.4 0 .7-.3.9-.7.2-.3.3-.7.2-1.1l-.7-1c-.8-.2-1.6-.7-2.3-1.2l.3.2a7.7 7.7 0 0 1-1.8-1.8l.2.3v-.1c-.2-.3-.6-.6-1-.7-.3-.1-.7 0-1 .1-.4.2-.7.6-.8 1a1.4 1.4 0 0 0 .2 1Zm8.8-3.7c.2.6.5 1.2.9 1.7l1.2 1.5 1 1.2.2.1c-.2-.2.2.3 0 0l.2.4.4.7a1.5 1.5 0 0 0 2 .5 1.5 1.5 0 0 0 .6-2c-.6-1-1.3-2-2.1-2.8l-.5-.6-.3-.3-.1-.1c-.1-.2.2.3 0 0l-.4-.6-.2-.3-.1-.2c-.1-.2.1.3 0 0s-.4-.6-.7-.8a1.5 1.5 0 0 0-2 .5 1.5 1.5 0 0 0-.2 1.2Zm8.7-.6c.1 1.9.7 3.8 1.6 5.5a1.5 1.5 0 0 0 2 .6 1.5 1.5 0 0 0 .5-2l-.4-1 .1.3c-.4-1-.6-2-.8-3v.4-.9a1.5 1.5 0 0 0-2.1-1.5 1.5 1.5 0 0 0-.9 1.5Zm9 2.7.3 1.4.5 1.4c.1.3.3.7.7.9.3.2.7.2 1.1.1.4 0 .7-.3 1-.7a1.4 1.4 0 0 0 0-1.1c0-.5-.3-1-.4-1.4l-.3-1.3c-.1-.4-.4-.7-.7-1a1.5 1.5 0 0 0-2 .6c-.2.3-.3.8-.2 1.2Zm8.4-1.7a15 15 0 0 0 2.8 3.8 1.5 1.5 0 0 0 2.5-1c0-.4-.1-.8-.4-1.1l-1.2-1.3.2.2c-.5-.6-1-1.3-1.3-2.1a1.5 1.5 0 0 0-2-.5c-.4.2-.6.5-.7.9-.1.3 0 .8.1 1.1Zm6.2-3.8 4 1.5a1.5 1.5 0 0 0 1.8-1 1.5 1.5 0 0 0-1-1.9l-3.1-1.1.3.1-.4-.2a1.6 1.6 0 0 0-2 .5c-.3.4-.3.8-.2 1.2a1.5 1.5 0 0 0 .6 1Zm4.8-6.3 3.3.2a1.5 1.5 0 0 0 1-2.5c-.2-.3-.6-.5-1-.5l-3.3-.2a1.5 1.5 0 0 0 0 3Zm2.2-8.4 3 .6c.4.1.8 0 1.2-.2a1.5 1.5 0 0 0 .5-2c-.2-.3-.5-.6-.9-.7a27.7 27.7 0 0 0-3.5-.6 1 1 0 0 0-.6.2 1.5 1.5 0 0 0-.5 2 1.5 1.5 0 0 0 .9.7Zm2-7.9a42 42 0 0 0 5 1.9 1.5 1.5 0 0 0 2-1 1.6 1.6 0 0 0-1.1-1.9l-3.5-1.3.3.1-1.1-.5c-.3-.2-.8-.2-1.2-.1a1.5 1.5 0 0 0-1 1.2 1.5 1.5 0 0 0 .7 1.5Zm4.4-7.5a121.8 121.8 0 0 0 6.8 3.6 1.5 1.5 0 0 0 1.6-1.8c0-.4-.3-.7-.7-1-2-1-4.1-2.1-6.1-3.3a1.5 1.5 0 0 0-2 .5 1.5 1.5 0 0 0 .4 2Zm5.7-5.3c1.8 1.5 3.7 2.9 5.6 4.2a1.5 1.5 0 0 0 2-.6 1.5 1.5 0 0 0-.5-2l-2.7-2-.6-.4-.3-.2c-.2-.1-.1-.1 0 0l-.2-.2-1.3-1c-.3-.2-.7-.4-1-.4a1.5 1.5 0 0 0-1.4 1 1.5 1.5 0 0 0 .3 1.5l.1.1Zm-10.4-17.2a13 13 0 0 0-5 6.3 1 1 0 0 0 .8 1.3 1 1 0 0 0 1.2-.7l.2-.5v-.2c0 .2 0-.1 0 0a11.8 11.8 0 0 1 1.3-2s.1-.3 0-.2l.2-.1v-.2l.4-.3.6-.6.7-.6.2-.2.4-.3a1 1 0 0 0 .3-1.3 1 1 0 0 0-1.3-.3v-.1Zm-8.4 29.9c1 1 2 1.7 3.3 2.4.3.2.7.2 1.1.1.4 0 .7-.3 1-.7.1-.3.2-.7 0-1.1 0-.4-.3-.7-.6-1-.7-.3-1.4-.7-2-1.2l.3.2-1-.8a1.5 1.5 0 0 0-2.5 1c0 .4.1.8.4 1v.1Z"/>
    <path fill="#16276A" d="m111 76.7.6-.7.4-.4.2-.1 1.8-1.1.4-.1c.1 0 .2 0 0 0l.2-.1 1-.3 1-.3h.5c-.2 0 .2 0 0 0h.3A1.5 1.5 0 0 0 119 72a1.5 1.5 0 0 0-1.5-1.5c-3.2.3-6.3 1.8-8.5 4.2a1.5 1.5 0 0 0 1 2.5c.4 0 .8-.2 1.1-.4v-.1Zm-34.5 7.4 2.9 5a1.5 1.5 0 0 0 2 .5 1.5 1.5 0 0 0 .6-2.1l-3-4.9a1.5 1.5 0 1 0-2.6 1.5Zm-3.9 2.4 1.2 3.4c0 .4.3.7.7 1a1.5 1.5 0 0 0 2.2-1.2v-.6l-1.2-3.4c-.2-.4-.4-.7-.7-.9a1.4 1.4 0 0 0-1.2-.1 1.5 1.5 0 0 0-1 1.8Zm-22.3 44.9a12.8 12.8 0 0 0 5-5.3 1.5 1.5 0 0 0-1.3-1.8 1.5 1.5 0 0 0-1.5.9l-.9 1.3.2-.3-2 2 .3-.2-1.3.8a1.5 1.5 0 0 0-.6 2.2 1.5 1.5 0 0 0 2.1.4ZM19.4 107c.5 2.4 1.3 4.7 2.3 7a1.5 1.5 0 0 0 2 .5 1.6 1.6 0 0 0 .6-2l-.1-.3-.2-.3-.3-.8a37.6 37.6 0 0 1-1.4-5 1.5 1.5 0 0 0-1.9-1 1.5 1.5 0 0 0-1 1.9Z"/>
    <path fill="#16276A" d="M61.7 115.8c-11.1-.3-21 5.2-29.5 12-4.4 3.3-8.5 7-12.5 10.9-3.5 3.6-6 8.5-4.6 13.7a1.5 1.5 0 0 0 2.9-.8c-1.5-5.1 2.2-9.4 5.7-12.7 3.5-3.2 7.3-6.5 11.2-9.5 7.7-6 16.8-10.8 26.8-10.6a1.5 1.5 0 0 0 1.3-1.5 1.5 1.5 0 0 0-1.3-1.5Z"/>
  </g>
  <defs>
    <clipPath id="a">
      <path fill="#fff" d="M0 .5h200v155H0z"/>
    </clipPath>
  </defs>
</svg>
