<?xml version="1.0" encoding="UTF-8"?>
<svg version="1.1" viewBox="0 0 187px 181px" xmlns="http://www.w3.org/2000/svg" xmlns:xlink="http://www.w3.org/1999/xlink">
<title>NDLA Film illustration</title>
<defs>
<path id="a" d="m77.714 146.24c-2.5206-3.0774-3.7808-6.8222-3.7808-11.234h6.2078c0.26416 3.0664 0.83651 5.2945 1.7171 6.6843 1.541 2.4928 4.3256 3.7392 8.3541 3.7392 3.1259 0 5.6355-0.83829 7.5286-2.5149 1.8932-1.6766 2.8397-3.8385 2.8397-6.4858 0-3.265-0.9961-5.5482-2.9883-6.8498s-4.7604-1.9523-8.3046-1.9523c-0.39625 0-0.79799 0.005515-1.2052 0.016546-0.40725 0.01103-0.82 0.027575-1.2383 0.049636v-5.2614c0.61638 0.066182 1.1337 0.1103 1.552 0.13236 0.41826 0.02206 0.86953 0.03309 1.3538 0.03309 2.2234 0 4.0505-0.35296 5.4814-1.0589 2.5096-1.2354 3.7643-3.4414 3.7643-6.6181 0-2.3605-0.83651-4.1804-2.5095-5.46-1.673-1.2795-3.6212-1.9193-5.8446-1.9193-3.9625 0-6.7031 1.3236-8.2221 3.9709-0.83652 1.456-1.3098 3.5297-1.4199 6.221h-5.8776c0-3.5297 0.70443-6.5299 2.1133-9.0007 2.4215-4.4121 6.6811-6.6181 12.779-6.6181 4.821 0 8.5522 1.0754 11.194 3.2263 2.6416 2.1509 3.9624 5.2669 3.9624 9.3481 0 2.912-0.78147 5.2724-2.3444 7.0814-0.9686 1.1251-2.2234 2.0075-3.7643 2.6473 2.4875 0.68388 4.4302 2.002 5.8281 3.9543 1.3979 1.9524 2.0968 4.3404 2.0968 7.1641 0 4.5224-1.4859 8.2065-4.4577 11.052-2.9718 2.8458-7.1874 4.2687-12.647 4.2687-5.5915 0-9.6474-1.5387-12.168-4.6161z"/>
</defs>
<g fill="none" fill-rule="evenodd">
<g transform="translate(-597 -1177)">
<g transform="translate(525 1135)">
<g transform="translate(72 42)">
<g transform="translate(.43601)">
<polygon points="5.9686e-13 0.43694 186.37 0.43694 186.37 183.9 5.9686e-13 183.9" fill="#fff" fill-rule="nonzero"/>
<polygon points="34.929 78.406 150.18 78.406 150.18 173.66 34.929 173.66" fill="#012242" fill-rule="nonzero"/>
<polygon points="6.9277 0.43694 24.949 0.43694 24.949 13.011 6.9277 13.011" fill="#012242" fill-rule="nonzero"/>
<polygon points="160.06 0.53404 178.09 0.53404 178.09 11.846 160.06 11.846" fill="#012242" fill-rule="nonzero"/>
<polygon points="7.3153 30.586 25.337 30.586 25.337 48.986 7.3153 48.986" fill="#012242" fill-rule="nonzero"/>
<polygon points="7.3637 67.871 25.385 67.871 25.385 86.271 7.3637 86.271" fill="#012242" fill-rule="nonzero"/>
<polygon points="7.2668 105.3 25.289 105.3 25.289 123.7 7.2668 123.7" fill="#012242" fill-rule="nonzero"/>
<polygon points="7.2668 142.44 25.289 142.44 25.289 160.84 7.2668 160.84" fill="#012242" fill-rule="nonzero"/>
<polygon points="7.2184 179.39 25.24 179.39 25.24 183.9 7.2184 183.9" fill="#012242" fill-rule="nonzero"/>
<polygon points="159.58 179.34 177.6 179.34 177.6 183.95 159.58 183.95" fill="#012242" fill-rule="nonzero"/>
<polygon points="159.97 142.3 177.99 142.3 177.99 160.7 159.97 160.7" fill="#012242" fill-rule="nonzero"/>
<polygon points="159.73 105.06 177.75 105.06 177.75 123.46 159.73 123.46" fill="#012242" fill-rule="nonzero"/>
<polygon points="159.82 67.483 177.84 67.483 177.84 85.883 159.82 85.883" fill="#012242" fill-rule="nonzero"/>
<polygon points="159.97 30.489 177.99 30.489 177.99 48.889 159.97 48.889" fill="#012242" fill-rule="nonzero"/>
<path d="m90.932 78.261v95.641" stroke="#507AA4"/>
<ellipse cx="91.126" cy="126.91" rx="42.681" ry="41.072" stroke="#507AA4"/>
<path d="m34.832 125.69l115.64 0.72823" stroke="#507AA4"/>
<g fill="#fff">
<use xlink:href="#a"/>
<use xlink:href="#a"/>
</g>
<ellipse cx="90.884" cy="127.63" rx="32.652" ry="32.042" stroke="#507AA4"/>
<polyline points="141.61 0.43694 150.47 0.43694 150.47 56.511 35.511 56.511 35.511 0.43694 141.61 0.43694" fill="#012242" fill-rule="nonzero"/>
<path d="m132.55 0.24274c1.0658 3.5926 1.6472 7.428 1.6472 11.36 0 22.672-19.088 41.072-42.681 41.072-23.593 0-42.681-18.4-42.681-41.072 0-4.0296 0.58135-7.9135 1.744-11.603" stroke="#507AA4"/>
<path d="m62.059 0.58259c-1.744 3.8839-2.713 8.2047-2.713 12.72 0 17.575 14.631 31.799 32.652 31.799 18.022 0 32.652-14.225 32.652-31.799 0-4.5636-1.0174-8.933-2.8098-12.865" stroke="#507AA4"/>
<path d="m90.884 0.43694l0.053125 56.559" stroke="#507AA4"/>
<path d="m35.511 10.147l115.25 0.67968" stroke="#507AA4"/>
<path d="m86.088 29.518v-0.14565l3.1005-3.2042c8.1873-8.8359 13.371-15.341 13.371-23.352 0-0.82533-0.096891-1.505-0.24223-2.3303h-5.4259c0.29067 1.0195 0.43601 1.942 0.43601 3.0586-0.048446 6.5541-4.5539 12.186-14.437 22.769l-4.1179 4.4665v3.5926h24.756v-4.9034h-17.44v0.048549z" fill="#fff" fill-rule="nonzero"/>
</g>
</g>
</g>
</g>
</g>
</svg>
