<svg xmlns="http://www.w3.org/2000/svg" fill="none" viewBox="0 0 160 146">
  <g clip-path="url(#a)">
    <path fill="#FAB0A4" d="M3.34 58.3c6.39 2.06 13.03-1.78 18.72-5.47 6.69-4.33 13.72-9.05 17.1-16.5 1.88-4.18 2.65-9.22 6.03-12.17 2.4-2.1 5.68-2.68 8.82-2.75 10.2-.26 21.48 3.78 30-2.16 5.54-3.88 8.3-11.17 13.9-14.98 6.2-4.24 14.82-3.08 20.86 1.44 6.04 4.51 9.76 11.78 11.8 19.27.58 2.18 1.07 4.44 2.28 6.31 4.25 6.73 14.42 4.86 20.63 9.6 3.55 2.72 5.43 7.47 5.47 12.1.03 4.64-1.57 9.16-3.84 13.14-2.41 4.2-5.68 8.45-5.23 13.33.46 4.62 4.26 8.3 4.74 12.9.55 5.24-3.21 9.72-7.05 13.1a67.2 67.2 0 0 1-15.1 9.88c1.02 5.92 6.48 10.78 5.69 16.75a11.1 11.1 0 0 1-2.45 5.35c-4.42 5.57-11.93 7.47-18.8 6.81-6.87-.66-13.34-3.53-19.82-6.04a212.28 212.28 0 0 0-18.66-6.23c-3.84-1.08-7.85-2.07-11.77-1.37-4.08.74-7.66 3.16-11.31 5.18-6.66 3.7-14.91 6.06-21.59 2.42-4.47-2.43-7.72-7.27-12.61-8.48a11.22 11.22 0 0 0-8.72 1.74c-1.59 1.04-3.1 2.46-4.97 2.56-2.52.13-4.6-2.32-5.16-4.9-.57-2.57 0-5.23.35-7.87 3-20.84-4.31-42.34-.43-63.02"/>
    <path fill="#FAB0A4" d="M3.05 59.38c4.97 1.54 10.07-.16 14.55-2.57a91.8 91.8 0 0 0 12.03-7.84c3.55-2.71 6.9-5.85 9.23-9.8 2.27-3.83 2.91-8.5 5.32-12.22 2.77-4.27 7.94-4.56 12.39-4.4 4.7.17 9.35.94 14.05 1.07 4.44.11 9-.43 12.93-2.78 3.75-2.24 6.3-5.93 8.94-9.4 2.64-3.49 5.68-6.9 10.05-8.12a17.7 17.7 0 0 1 12.62 1.5 24.85 24.85 0 0 1 9.69 9.37c2.53 4.13 3.93 8.62 5.25 13.3.53 2.3 1.62 4.4 3.15 6.13a13.4 13.4 0 0 0 4.53 2.99c3.44 1.43 7.18 1.85 10.7 3.05a14.1 14.1 0 0 1 4.85 2.6 12.82 12.82 0 0 1 3.62 5.5c1.65 4.82.84 10.07-1.16 14.64-2 4.56-5.54 8.41-6.7 13.34-.53 2.23-.4 4.58.36 6.73.75 2.11 1.9 4.02 2.84 6.04a10.61 10.61 0 0 1 1.15 6.46 13.77 13.77 0 0 1-3.13 6.16c-3.2 3.88-7.47 6.93-11.63 9.55a67.51 67.51 0 0 1-6.77 3.73 1.16 1.16 0 0 0-.49 1.27c.62 3.41 2.49 6.33 4 9.35 1.56 3.16 2.47 6.49.7 9.8-3.33 6.35-10.92 8.64-17.39 8.46-8.08-.23-15.68-3.96-23.17-6.79a208.1 208.1 0 0 0-12.25-4.19c-4.01-1.23-8.1-2.59-12.3-2.94-4.19-.36-7.8.84-11.43 2.78-3.44 1.84-6.7 3.96-10.37 5.23-3.44 1.22-7.18 1.96-10.8 1.3-3.61-.66-6.39-2.78-9.14-5.16-2.5-2.14-5.17-4.4-8.45-4.98-3.7-.68-7.1.65-10.15 2.8-1.34.95-2.93 2.08-4.6 1.33a5.28 5.28 0 0 1-1.8-1.58 5.63 5.63 0 0 1-.96-2.25c-.48-2.1-.1-4.32.22-6.42.32-2.09.55-4.17.7-6.26C5.44 98.97.95 82 2.4 64.86c.17-2.12.46-4.23.84-6.31.26-1.4-1.79-2.01-2.05-.6-3.27 17.65 1.3 35.36 1.13 53.06 0 2.24-.12 4.49-.32 6.67-.2 2.18-.6 4.44-.86 6.66-.43 3.74.16 8.22 3.66 10.14a5.2 5.2 0 0 0 4.78.11c1.71-.75 3.1-2.15 4.79-2.99a9.9 9.9 0 0 1 10.24.96c2.91 1.97 5.29 4.73 8.36 6.46a17.44 17.44 0 0 0 10.84 1.93 33.24 33.24 0 0 0 11-3.65c3.59-1.87 6.97-4.35 10.9-5.38 4.38-1.14 8.85.1 13.08 1.3 4.23 1.21 8.47 2.57 12.66 4.06 8.05 2.87 15.94 6.86 24.46 7.95 6.76.87 14.32-.59 19.37-5.7 2.62-2.66 4.41-6.22 3.89-10.12-.48-3.51-2.47-6.52-4-9.6a17.9 17.9 0 0 1-1.7-4.8l-.49 1.26a68.1 68.1 0 0 0 13.56-8.6c3.63-2.99 7.46-6.51 8.76-11.33.6-2.22.51-4.57-.23-6.73-.75-2.24-1.96-4.2-2.94-6.3a10.63 10.63 0 0 1-1.12-6.5c.46-2.48 1.7-4.68 2.96-6.8 2.7-4.52 5.22-9.01 5.85-14.42.33-2.38.18-4.8-.42-7.1a17.93 17.93 0 0 0-3.06-6.35c-2.59-3.27-6.44-4.67-10.24-5.63-3.49-.89-7.36-1.42-10.35-3.68a10.12 10.12 0 0 1-3.43-5.41c-.7-2.45-1.32-4.92-2.21-7.31a37 37 0 0 0-7.24-12.21c-6.16-6.63-16.23-9.9-24.39-5.4-3.88 2.14-6.5 5.93-9.17 9.45-2.77 3.67-5.78 6.95-10.15 8.35-9.16 2.94-18.77-1.2-28.06.13a12.9 12.9 0 0 0-6.5 2.66 14.11 14.11 0 0 0-3.75 5.53c-.86 2.06-1.49 4.23-2.34 6.29-.9 2.2-2.13 4.23-3.62 6.04-2.98 3.62-6.75 6.4-10.57 8.96-4.22 2.83-8.6 5.9-13.5 7.22a13 13 0 0 1-7.26 0 1.02 1.02 0 0 0-.78.14 1.14 1.14 0 0 0-.38 1.49c.12.25.34.44.6.53l.05.08Z"/>
    <path fill="#4E51F2" d="m36.75 70.58-1.72-4.9 25.45-11.66c2.22-1.02 4.43-2.03 6.67-2.99 2.13-.88 4.31-1.68 6.48-2.48l10.7-3.95a67.94 67.94 0 0 1 8.14-2.6 58.39 58.39 0 0 1 1.38 6.52c-3.06 1.94-6.47 3.19-9.84 4.42l-12.07 4.4-12.9 4.72c-1.9.7-3.81 1.4-5.68 2.24-1.99.9-3.9 1.95-5.88 2.84a79.66 79.66 0 0 1-10.78 3.67"/>
    <path fill="#16276A" d="m37.78 70.28-1.73-4.9-.49 1.27L57.8 56.46c3.62-1.66 7.23-3.37 10.92-4.83 3.7-1.47 7.47-2.8 11.21-4.18 4.23-1.56 8.44-3.31 12.78-4.34l-1.3-.75a61.35 61.35 0 0 1 1.4 6.47l.5-1.26c-3.31 2.07-6.97 3.35-10.59 4.67l-11.56 4.22-11.41 4.17a110.56 110.56 0 0 0-10.92 4.67c-4 1.85-8.15 3.34-12.4 4.46-.27.08-.49.27-.62.53s-.17.56-.1.84c.08.28.26.52.5.66a1 1 0 0 0 .79.13 80.42 80.42 0 0 0 11.03-3.74c1.88-.85 3.7-1.84 5.57-2.7 1.76-.8 3.55-1.5 5.4-2.14l23.28-8.5c4.11-1.5 8.33-2.91 12.07-5.24a1.16 1.16 0 0 0 .49-1.26c-.34-2.2-.8-4.38-1.38-6.53-.09-.28-.27-.5-.51-.65a1.04 1.04 0 0 0-.8-.1 100.79 100.79 0 0 0-11.46 3.85c-3.81 1.4-7.64 2.77-11.42 4.24-7.55 2.9-14.87 6.55-22.23 9.92l-12.57 5.76a1.17 1.17 0 0 0-.49 1.26l1.73 4.9c.46 1.34 2.52.75 2.05-.6l.02-.11Z"/>
    <path fill="#4E51F2" d="M35.3 81.06c1.22 11.7.95 23.68 1.2 35.17 0 .9.13 1.96.85 2.44.45.24.96.34 1.46.29 4.5 0 9-.15 13.5-.3l8.43-.26 31.63-1a3.1 3.1 0 0 0 1.78-.42c1.02-.74.9-2.31.75-3.6-.29-2.9-.4-5.8-.32-8.72l.12-23.39c-11.97.22-23.94.27-35.92.15-7.81-.07-15.67-.22-23.5-.36"/>
    <path fill="#16276A" d="M34.22 81.06c.95 9.18 1 18.42 1.1 27.65 0 2.27.03 4.54.1 6.81.03 1.66.12 3.68 1.86 4.35.84.22 1.7.3 2.56.2 1.16 0 2.3 0 3.46-.04 2.2-.04 4.38-.1 6.58-.17 8.9-.27 17.78-.55 26.67-.84l13.36-.42c1.63-.05 4 .31 5.25-1.05 1.25-1.37.9-3.11.74-4.71-.54-5.15-.25-10.47-.22-15.6l.09-15.97c0-.3-.12-.58-.32-.79-.2-.2-.47-.32-.75-.33-15.48.28-30.96.28-46.44 0l-12.97-.22c-1.38 0-1.38 2.24 0 2.24 15.46.28 30.92.5 46.38.38 4.35-.04 8.7-.1 13.03-.17l-1.06-1.12c-.05 8.82-.21 17.66-.12 26.48 0 2.06.18 4.07.37 6.12.05.58.2 1.54-.2 2.05-.4.5-1.74.37-2.37.39l-12.48.4-25.13.78c-4.05.13-8.1.27-12.14.32-1 0-2.02.08-3.02 0-.83-.05-.94-.55-.98-1.35-.1-2.11-.08-4.23-.1-6.34-.11-9.72-.12-19.43-1.12-29.08-.15-1.42-2.28-1.44-2.13 0v.03Z"/>
    <path fill="#4E51F2" d="M35.5 82.61c18.11.28 35.76.75 53.86-.24 2.06-.11 4.14-.24 6.2-.16-.07-2.2-.07-4.38 0-6.57-9.56.13-19.13.21-28.7.24h-5.9l-25.47.06c.06 1.97 0 4.68 0 6.65"/>
    <path fill="#16276A" d="M35.5 83.73c15.63.25 31.25.63 46.83.08 4.4-.16 8.84-.62 13.24-.48.28 0 .55-.12.75-.33.2-.2.31-.49.31-.79-.07-2.2-.07-4.38 0-6.57 0-.3-.1-.58-.3-.8a1.1 1.1 0 0 0-.76-.32c-15.62.21-31.21.26-46.81.29H35.49c-.28 0-.55.12-.75.33-.2.21-.3.5-.31.79.05 2.24 0 4.44 0 6.65 0 1.44 2.13 1.45 2.13 0-.06-2.24 0-4.43 0-6.65l-1.07 1.12c15.63 0 31.2 0 46.8-.17l13.28-.15-1.07-1.12c-.06 2.19-.06 4.38 0 6.57l1.07-1.12c-3.88-.12-7.81.26-11.67.41-3.85.15-7.8.26-11.7.3-7.82.1-15.58 0-23.36-.1l-13.33-.21c-.29 0-.56.12-.76.33-.2.2-.3.5-.3.79 0 .3.1.58.3.8.2.2.47.32.76.32v.03Z"/>
    <path fill="#4E51F2" d="M41.87 73.67c.34-1.5-.44-2.81-1.29-4.12A5.1 5.1 0 0 0 39 67.9a4.8 4.8 0 0 0-2.1-.75c-.82 0-1.62.22-2.33.65a4.69 4.69 0 0 0-1.69 1.8 6.76 6.76 0 0 0-.44 4.98 4.6 4.6 0 0 0 1.42 2.4 4.23 4.23 0 0 0 4.08.4 7.3 7.3 0 0 0 3.95-3.74"/>
    <path fill="#16276A" d="M42.9 73.96a5.73 5.73 0 0 0-.83-4.07 8.77 8.77 0 0 0-2.37-2.83 5.07 5.07 0 0 0-6.47.39c-1.97 1.72-2.5 4.66-1.88 7.2a5.85 5.85 0 0 0 1.96 3.31c.96.7 2.14 1.01 3.31.86a7.73 7.73 0 0 0 3.64-1.48 8.27 8.27 0 0 0 2.53-3.11c.12-.26.15-.55.08-.83a1.15 1.15 0 0 0-.47-.67 1.03 1.03 0 0 0-.8-.11c-.28.07-.51.26-.65.51a6.34 6.34 0 0 1-1.45 2.02c-.6.56-1.3 1-2.07 1.27-.73.27-1.53.3-2.28.08a2.49 2.49 0 0 1-.9-.6c-.27-.28-.46-.6-.59-.96a5.53 5.53 0 0 1 .42-5.18 3.22 3.22 0 0 1 1.77-1.29c.71-.2 1.47-.14 2.15.17.81.45 1.5 1.13 1.95 1.97.5.81 1.1 1.78.89 2.8a1.16 1.16 0 0 0 .75 1.37c.27.08.56.04.8-.11.25-.15.43-.39.5-.68v-.03Zm37.06-27.18a86.32 86.32 0 0 0 5.3 5.4L88.12 51c-2-1.3-3.2-3.62-5.07-5.12a.58.58 0 0 0-.31-.15.62.62 0 0 0-.35.1c-.62.32-1.79.64-2.4.96"/>
    <path fill="#16276A" d="M79.2 47.57a89.7 89.7 0 0 0 5.31 5.4c.14.14.3.24.48.3a1 1 0 0 0 .56-.01l2.84-1.18a1.17 1.17 0 0 0 .66-1.57c-.09-.2-.23-.37-.4-.48-1.51-1.02-2.6-2.72-3.9-4.06a9.03 9.03 0 0 0-1.17-1.06 1.62 1.62 0 0 0-1.82 0c-.17.08 0 0-.08 0l-.27.1-.63.24c-.46.15-.9.34-1.34.55a1.18 1.18 0 0 0-.38 1.5c.15.24.38.43.65.5.27.08.56.04.8-.1 0 0 .24-.11.15-.08l.17-.06.57-.21c.42-.15.84-.3 1.25-.49a.75.75 0 0 0 .22-.1c.12-.06.05-.06-.21 0s-.33 0-.16.06l.37.34c.32.3.63.63.92.96 1.2 1.35 2.28 2.81 3.78 3.82l.25-2.05-2.84 1.19 1.04.29a86.93 86.93 0 0 1-5.3-5.4c-.95-1.06-2.45.53-1.51 1.58v.02Zm-8.28 2.44a84.14 84.14 0 0 0 5.3 5.4l2.85-1.18c-2-1.3-3.2-3.63-5.07-5.12a.65.65 0 0 0-.31-.16.76.76 0 0 0-.35.1c-.62.33-1.79.64-2.4.96"/>
    <path fill="#16276A" d="M70.17 50.8a90.44 90.44 0 0 0 5.3 5.4 1.03 1.03 0 0 0 1.04.28l2.84-1.17c.2-.06.37-.18.5-.35a1.17 1.17 0 0 0 .16-1.22c-.09-.2-.23-.36-.4-.48-1.51-1.01-2.6-2.72-3.9-4.06a9.05 9.05 0 0 0-1.17-1.06 1.62 1.62 0 0 0-1.82 0c-.17.08.03 0-.08 0l-.27.1-.63.23a13 13 0 0 0-1.34.55 1.18 1.18 0 0 0-.38 1.5c.14.25.38.43.65.5.27.08.56.04.8-.1l.15-.07.17-.07.57-.2a16.02 16.02 0 0 0 1.47-.6c.12-.05.05-.06-.21 0-.26.07-.33 0-.16.06a14.08 14.08 0 0 1 1.29 1.3c1.2 1.36 2.28 2.81 3.78 3.83l.25-2.05-2.84 1.18 1.04.29a91.06 91.06 0 0 1-5.3-5.4c-.95-1.05-2.45.54-1.51 1.59v.03Zm-8.71 2.65a84.36 84.36 0 0 0 5.3 5.4l2.85-1.18c-2-1.31-3.2-3.63-5.07-5.12a.6.6 0 0 0-.32-.16.6.6 0 0 0-.34.1c-.62.33-1.8.64-2.4.96"/>
    <path fill="#16276A" d="M60.7 54.24a84.36 84.36 0 0 0 5.31 5.4.98.98 0 0 0 1.03.28l2.84-1.17c.2-.06.38-.19.51-.35a1.17 1.17 0 0 0 .15-1.22c-.09-.2-.23-.36-.4-.48-1.5-1.01-2.58-2.72-3.88-4.06a9.04 9.04 0 0 0-1.19-1.06 1.62 1.62 0 0 0-1.82 0c-.16.09.04 0-.08 0l-.26.1-.64.24c-.45.16-.9.34-1.33.55a1.2 1.2 0 0 0-.39 1.5c.15.25.38.43.65.5.28.08.56.04.8-.1l.15-.07.18-.07.57-.21a14.99 14.99 0 0 0 1.47-.6c.12-.04.05-.05-.22 0-.26.07-.32 0-.15.08a16.12 16.12 0 0 1 1.29 1.3c1.2 1.34 2.27 2.8 3.78 3.82l.25-2.05-2.84 1.18 1.04.29a84.33 84.33 0 0 1-5.3-5.4c-.95-1.05-2.46.53-1.51 1.58v.02Zm-8.4 3.56a76.36 76.36 0 0 0 4.79 4.68l2.55-1.03c-1.8-1.13-2.89-3.14-4.58-4.43a.6.6 0 0 0-.28-.15.68.68 0 0 0-.32.1c-.55.28-1.61.55-2.17.83Z"/>
    <path fill="#16276A" d="M51.54 58.59a76.2 76.2 0 0 0 4.8 4.67 1.01 1.01 0 0 0 1.04.3l2.55-1.03c.2-.06.37-.18.51-.35.14-.16.22-.37.26-.58.02-.22-.01-.44-.1-.64a1.1 1.1 0 0 0-.42-.48 9 9 0 0 1-1.8-1.63c-.57-.63-1.12-1.3-1.72-1.9a9.04 9.04 0 0 0-1.06-.91 1.6 1.6 0 0 0-1.75 0c.15-.07.04 0-.04 0l-.25.09-.63.21c-.4.13-.8.3-1.18.47a1.18 1.18 0 0 0-.38 1.5c.15.25.38.43.65.5.27.08.56.05.8-.1.26-.12-.12.05.04 0l.24-.09.5-.18a14 14 0 0 0 1.33-.5c.16-.07.1-.08-.21-.05-.28-.06-.37-.05-.24 0s.17.13.33.28c.29.26.57.54.84.83a19.58 19.58 0 0 0 3.46 3.37l.26-2.06-2.56 1.03 1.03.29a82.19 82.19 0 0 1-4.8-4.68c-.96-1.03-2.46.55-1.5 1.58v.06Zm-8.9 3.8a57.42 57.42 0 0 0 4.5 4.25l2.4-.93c-1.68-1.03-2.7-2.86-4.3-4.03a.57.57 0 0 0-.26-.12c-.1 0-.21.02-.3.08-.52.26-1.52.5-2.04.75Z"/>
    <path fill="#16276A" d="M41.9 63.18a74.68 74.68 0 0 0 3.33 3.23l.86.75c.16.16.33.3.52.44a1.11 1.11 0 0 0 1.01.03l2.21-.85c.2-.06.37-.18.5-.35a1.17 1.17 0 0 0 .16-1.22c-.09-.2-.23-.36-.4-.47a6.15 6.15 0 0 1-.5-.36c-.05 0-.2-.15-.1-.06l-.25-.22c-.29-.26-.56-.54-.83-.82-.55-.6-1.07-1.2-1.65-1.75a8.2 8.2 0 0 0-1.02-.85 1.44 1.44 0 0 0-.87-.25 1.5 1.5 0 0 0-.5.14c-.09 0-.35.14-.12.05-.71.28-1.42.47-2.13.8-.24.15-.42.4-.49.68-.07.29-.03.6.1.85.15.25.39.43.66.5.27.08.56.04.8-.1-.23.12-.03 0 0 0l.23-.08.48-.16a12.54 12.54 0 0 0 1.26-.47h.07-.6c0 .05.22.16.26.19h.04l.81.75c.97 1.16 2.07 2.2 3.27 3.08l.26-2.05-2.4.93 1.04.3a75.59 75.59 0 0 1-4.5-4.26 1.07 1.07 0 0 0-1.5 0 1.17 1.17 0 0 0 0 1.58l-.02.02Zm43.51 12.97-2.84 6.33c1.36.08 2.71.04 4.06-.12.08 0 .16-.04.22-.1a.61.61 0 0 0 .11-.21l2.13-5.44-3.85-.28"/>
    <path fill="#16276A" d="m84.5 75.58-2.85 6.33a1.18 1.18 0 0 0 0 1.11c.1.17.23.32.39.42.16.1.34.15.53.16.9.05 1.82.05 2.72 0 .44 0 .9-.07 1.33-.12.32-.02.62-.14.87-.34.23-.2.4-.48.5-.8l2.13-5.43c.28-.75-.42-1.38-1.03-1.42l-3.85-.28c-.28 0-.55.13-.74.33a1.14 1.14 0 0 0 0 1.58c.2.2.46.33.74.33l3.85.28-1.03-1.42-1.11 2.85-.55 1.4-.28.69-.14.38c.06-.14 0 0-.05.07l.38-.4c.04 0 .15 0 .18-.05a.67.67 0 0 1-.24 0l-.52.05-1.07.06h-2.1l.93 1.7 2.84-6.35c.13-.25.16-.54.09-.82a1.14 1.14 0 0 0-.47-.67 1.03 1.03 0 0 0-.8-.11c-.28.08-.51.26-.66.51v-.04Zm-12.05.54-2.84 6.33c1.35.08 2.7.04 4.05-.12.08 0 .15-.04.22-.1a.64.64 0 0 0 .1-.2l2.14-5.44-3.85-.28"/>
    <path fill="#16276A" d="m71.51 75.55-2.84 6.34a1.18 1.18 0 0 0 0 1.11 1.12 1.12 0 0 0 .92.57 22.04 22.04 0 0 0 4.05-.12c.31-.02.62-.13.87-.33.23-.21.4-.49.5-.8l2.12-5.43c.29-.75-.4-1.38-1.02-1.42l-3.85-.28c-.28 0-.55.12-.75.33-.2.21-.31.5-.31.8 0 .29.12.57.32.77.2.21.46.33.74.34l3.85.28-1.03-1.42-1.11 2.85-.55 1.39-.28.69c-.05.13-.09.26-.15.38.07-.13 0 0-.05.07l.39-.4c.04-.03.15 0 .18-.05.04-.05-.2 0-.25 0l-.5.05c-.36 0-.71.05-1.08.05H69.6l.92 1.7 2.84-6.34c.13-.25.16-.54.08-.82a1.14 1.14 0 0 0-.46-.67 1.03 1.03 0 0 0-.8-.11c-.28.07-.51.25-.66.5v-.03Zm-12.26.6-2.84 6.33c1.35.08 2.7.04 4.05-.12.08 0 .16-.04.22-.1a.62.62 0 0 0 .11-.21l2.13-5.44-3.84-.28"/>
    <path fill="#16276A" d="m58.32 75.58-2.84 6.33a1.18 1.18 0 0 0 0 1.11c.1.17.23.32.4.42.15.1.33.15.52.16.9.05 1.82.05 2.73 0 .44 0 .88-.07 1.32-.12.32-.02.62-.14.87-.34.23-.2.4-.48.5-.8l2.13-5.43c.28-.75-.42-1.38-1.03-1.42l-3.84-.28c-.29 0-.55.13-.75.33a1.14 1.14 0 0 0 0 1.58c.2.2.47.33.75.33l3.84.28-1.03-1.42-1.11 2.85-.55 1.4-.27.69-.15.38c.06-.14 0 0-.05.07l.38-.4c.04 0 .15 0 .19-.05a.67.67 0 0 1-.25 0l-.51.05-1.08.06h-2.1l.93 1.7 2.84-6.35c.13-.25.16-.54.09-.82a1.14 1.14 0 0 0-.47-.67 1.03 1.03 0 0 0-.8-.11c-.28.08-.51.26-.66.51v-.04Zm-12.07.57-2.84 6.33a23 23 0 0 0 4.06-.12c.08 0 .15-.04.22-.1a.62.62 0 0 0 .1-.21l2.14-5.44-3.85-.28"/>
    <path fill="#16276A" d="m45.33 75.58-2.84 6.33a1.18 1.18 0 0 0 0 1.11c.1.17.23.32.39.42.16.1.34.15.52.16.91.05 1.82.05 2.73 0 .44 0 .89-.07 1.33-.12.31-.02.61-.14.86-.34.24-.2.4-.48.5-.8l2.13-5.43c.28-.75-.42-1.38-1.03-1.42l-3.85-.28c-.28 0-.55.12-.75.33a1.15 1.15 0 0 0 0 1.58c.2.2.47.33.75.33l3.85.28-1.03-1.42-1.11 2.85-.55 1.4-.28.69-.15.38-.04.07.38-.4c.04 0 .15 0 .18-.05a.67.67 0 0 1-.25 0l-.5.05-1.08.06h-2.13l.92 1.7 2.84-6.35c.13-.25.16-.54.09-.82a1.14 1.14 0 0 0-.47-.67 1.03 1.03 0 0 0-.8-.11c-.28.08-.51.26-.65.51l.04-.04Z"/>
    <path fill="#4E51F2" d="M41.37 92.17c6.2-.74 12.46.8 18.7.59 1.68-.06 3.35-.25 5.03-.3 1.84-.08 3.68 0 5.52.06 6.1.18 12.21.03 18.3-.46"/>
    <path fill="#16276A" d="M41.37 93.29c6.13-.69 12.22.75 18.36.59 3.01-.08 5.98-.39 8.99-.3a166.6 166.6 0 0 0 20.2-.41c1.36-.1 1.37-2.35 0-2.24-6.32.5-12.66.64-19 .45-3.02-.1-5.99.04-9.01.2a63.9 63.9 0 0 1-9.18-.35c-3.44-.4-6.91-.46-10.36-.18-1.35.15-1.38 2.39 0 2.24Z"/>
    <path fill="#4E51F2" d="M55.7 93.98c1.11 5.23-.53 10.77-.06 16.14l.06-16.14Z"/>
    <path fill="#16276A" d="M54.67 94.28c1.05 5.23-.52 10.57-.1 15.84.12 1.43 2.25 1.45 2.13 0-.44-5.49 1.13-10.97 0-16.44-.28-1.4-2.33-.81-2.05.6h.02Z"/>
    <path fill="#4E51F2" d="M77.26 93.74c-.04 5.16-.04 10.3 0 15.44V93.74Z"/>
    <path fill="#16276A" d="M76.2 93.74c-.05 5.16-.05 10.3 0 15.44 0 1.44 2.13 1.45 2.13 0-.06-5.14-.06-10.28 0-15.44 0-.3-.11-.58-.31-.79-.2-.2-.48-.33-.76-.33s-.55.12-.75.33c-.2.21-.31.5-.31.8Z"/>
    <path fill="#4E51F2" d="m41.9 102.56 40.17-.9 4.9-.1"/>
    <path fill="#16276A" d="m41.9 103.67 45.07-1c1.37 0 1.38-2.24 0-2.24l-45.08 1c-1.37 0-1.37 2.24 0 2.24Z"/>
    <path fill="#fff" d="M34.18 78.33c-1.66-.67-2.56-2.62-2.66-4.39-.05-1.17.1-2.35.43-3.47.28-1 .62-1.9 1.67-2.16 1.35-.32.78-2.48-.56-2.16-.7.18-1.33.56-1.85 1.08-.52.53-.9 1.18-1.1 1.9a12.74 12.74 0 0 0-.7 4.79 7.5 7.5 0 0 0 1.18 3.93 6.97 6.97 0 0 0 3.04 2.62c.27.08.56.04.8-.1.25-.14.43-.37.52-.65a1.2 1.2 0 0 0-.11-.85 1.1 1.1 0 0 0-.64-.53l-.02-.01Z"/>
    <path fill="#fff" d="M33.97 67.39c.58-1.68 2.05-2.74 3.48-3.56 1.73-1 3.55-1.82 5.34-2.7a448.13 448.13 0 0 1 36.86-16.02c4.64-1.9 9.42-3.4 14.29-4.48l-1.32-.75 2.01 10.38.5-1.27c-6.29 3.3-12.97 5.57-19.6 7.92-6.92 2.45-13.72 5.23-20.54 7.94l-11.76 4.7a1.14 1.14 0 0 0-.77 1.16c.02.17.06.33.14.48a1.72 1.72 0 0 1-.2 2.06c-.15.18-.25.4-.28.65-.03.24.02.5.14.7a1.02 1.02 0 0 0 1.2.53c3.25-.87 6.78-.5 10.12-.47l10.47.07a1350.16 1350.16 0 0 0 32.65-.28c1.37 0 1.38-2.24 0-2.24-14.08.27-28.15.34-42.23.21-3.82 0-7.85-.45-11.6.55l1.04 1.87a4.07 4.07 0 0 0 .53-4.77l-.64 1.64 21.07-8.41c6.71-2.67 13.54-4.93 20.29-7.47 3.77-1.4 7.45-3.03 11.04-4.88a1.2 1.2 0 0 0 .49-1.26L94.67 39.3a1.14 1.14 0 0 0-.5-.67 1.04 1.04 0 0 0-.8-.12 80.93 80.93 0 0 0-13.15 4.07 462.9 462.9 0 0 0-38.18 16.53c-3.64 1.76-8.64 3.39-10.13 7.74-.47 1.36 1.6 1.94 2.06.6v-.07Z"/>
    <path fill="#fff" d="M95.88 73.59c.48 2.43.71 4.9.7 7.38-.08 2.33-.63 4.62-.82 6.95-.39 4.78-.21 9.61-.2 14.4v7.09c0 2.03.32 4.44-.3 6.4-.61 1.95-2.39 2.15-4.02 2.23-2.23.15-4.46.24-6.7.36-9.17.47-18.34.95-27.52 1.2-4.65.13-9.3.2-13.96.17H39.7c-.59 0-1.18 0-1.76-.04-.33 0-.84.05-1.1-.22-.25-.27-.28-1.03-.33-1.36-.06-.54-.1-1.08-.14-1.62-.09-1.28-.13-2.56-.18-3.84l-1.36-32.53c-.06-1.44-2.2-1.44-2.13 0l1.3 31.06c.03 2.53.19 5.07.47 7.59.05.93.42 1.8 1.05 2.46.76.55 1.67.81 2.6.74 4.88.11 9.77.08 14.66 0 9.89-.18 19.78-.7 29.67-1.2l7.18-.37c1.83-.1 3.87-.05 5.51-1.04 1.65-1 2.34-2.93 2.5-4.89.2-2.4.05-4.87.05-7.29 0-5.75-.2-11.53.07-17.28.12-2.76.7-5.44.9-8.22.23-2.91-.27-5.84-.7-8.7-.24-1.43-2.3-.82-2.06.6l-.03-.03Z"/>
    <path fill="#fff" d="M3.69 113.46c4.15-2 8.43-3.74 12.69-5.5a613.4 613.4 0 0 1 6.42-2.58l1.3-.5c.35-.14 1.04-.56 1.42-.44.37.13.6.75.88 1.06a1.77 1.77 0 0 0 1.64.46c.23-.07.43-.21.57-.4.14-.2.21-.44.21-.69 0-3.16-.04-6.95 2.49-9.16a4.3 4.3 0 0 1 1.64-.92c.44-.13 1.37-.33 1.7.1.19.26.13.92.14 1.2.02.46.02.92 0 1.38-.07.92-.24 1.84-.5 2.72-.37 1.26 1.3 1.9 1.94.86.71-1.2 1.48-2.4 2.22-3.6.5-.95 1.19-1.8 2-2.49a2.07 2.07 0 0 1 2.3-.22c.95.75.17 2.24-.28 3.03l1.96.86c.11-.36.33-.68.62-.91a1.76 1.76 0 0 1 2.75.72c.39.86 0 1.74-.4 2.5-.57 1.05-1.2 2.07-1.79 3.1a1.17 1.17 0 0 0 .39 1.53c.16.1.34.15.53.15.97-.12 3-.5 3.46.82.3.88-1.09 2.34-1.6 2.99-1.54 1.86-3.54 3.49-5.97 3.8-1.34.19-2.7-.07-4.04.14-1.2.17-2.36.64-3.38 1.34-.92.63-2.26 1.65-2.21 2.99 0 .52.4 1.04.25 1.5-.16.45-.8.97-1.23 1.28a42 42 0 0 1-11.06 5.48c-1.32.52-2.68.88-4.07 1.07-.84.04-1.67.16-2.48.36l-4.07.94-4.85 1.12-1.8.38-.54.1c-.22.05-.09-.04.06 0-.37-.11 1.37.71.44.17-1.2-.7-2.27 1.23-1.07 1.93.71.41 1.93-.08 2.66-.24 1.54-.33 3.08-.68 4.62-1.04l4.67-1.09 1.5-.35c.56-.12.63 0 1.24-.05 2.98-.56 5.88-1.5 8.63-2.82a33.96 33.96 0 0 0 7.81-4.48 4.1 4.1 0 0 0 1.71-3.12c0-.33-.31-.86-.29-1.15 0 .08.25-.26.36-.37.55-.54 1.2-.98 1.89-1.29 1.37-.6 2.74-.47 4.19-.47a9.25 9.25 0 0 0 3.9-.84 14.41 14.41 0 0 0 6.39-6.21 3.34 3.34 0 0 0-.55-4.07c-1.28-1.23-2.99-1.2-4.6-1l.92 1.69c1.5-2.62 4.14-6.11 1.42-8.92-2.13-2.24-5.6-1.06-6.54 1.8-.4 1.22 1.34 1.91 1.96.85.83-1.45 1.42-3.33.57-4.92a3.61 3.61 0 0 0-1.6-1.45 3.39 3.39 0 0 0-2.1-.24 5.6 5.6 0 0 0-3.64 2.61c-1.15 1.6-2.13 3.35-3.16 5.02l1.94.87c.35-1.2.55-2.42.6-3.67.14-1.13 0-2.28-.41-3.34-1-1.91-3.64-1.5-5.2-.75-4.26 2.14-4.62 7.48-4.6 11.81l.77-1.08c.41-.06.4.12.12-.27a5.22 5.22 0 0 0-.56-.7 2.28 2.28 0 0 0-1.85-.6c-.98.2-1.94.52-2.84.96a656.2 656.2 0 0 0-6.64 2.67c-4.39 1.8-8.8 3.6-13.07 5.67-1.25.6-.17 2.53 1.07 1.94l.03-.03Z"/>
    <path fill="#CAE4DA" d="M24.05 109.36a58.5 58.5 0 0 0 5.2-3.03c.17-.1.31-.22.43-.38.12-.26.17-.55.13-.83a15.9 15.9 0 0 1 .25-4.13c.3-1.34.35-2.84 1.13-3.95.61-.57 1.28-1.07 1.99-1.5.42 0 .93 1.45.96 1.88.1 1.85-.8 4.6-.7 6.44 1.18.13 2.12-.98 2.83-1.97l4.41-6.04c.35-.47.93-.98 1.42-.65.16.13.27.3.32.5.47 1.38-.05 2.92-.74 4.18-.7 1.26-1.59 2.46-1.93 3.87 2.62-1.06 4.15-4.06 6.7-5.33.28-.13.63-.23.85 0a.84.84 0 0 1 .14.7c-.35 3.32-2.7 5.98-4.92 8.37a12.42 12.42 0 0 1 5.57-1.21c.35-.03.7.05 1 .24a1.39 1.39 0 0 1 .3 1.55c-.23.52-.6.96-1.04 1.28a15.35 15.35 0 0 1-11.74 3.35 32.5 32.5 0 0 1-7.6 5.38 40.53 40.53 0 0 1-5.09-8.37"/>
    <path fill="#16276A" d="M24.58 110.29a64.86 64.86 0 0 0 3.65-2.05c.98-.6 2.33-1.15 2.6-2.43.07-.7.07-1.41 0-2.11 0-.7.05-1.41.17-2.11.11-1.2.38-2.39.8-3.52.3-.5.73-.9 1.22-1.2.13-.08.26-.18.38-.28l.15-.09c.32-.18 0-.22-.91-.11 0 .3.35.66.41 1 .04.96-.06 1.94-.3 2.88a17.14 17.14 0 0 0-.38 3.51c0 .3.12.58.32.79.2.2.46.33.74.33 1.52.06 2.65-1 3.55-2.18 1.19-1.59 2.34-3.2 3.5-4.8l.84-1.14c.09-.1.39-.38.4-.51.16-.1.12-.17-.1-.22-.21-.18-.26-.18-.17 0 .01.21.04.42.1.62a5.17 5.17 0 0 1-.5 2c-.71 1.59-1.85 2.98-2.33 4.68-.2.75.54 1.72 1.32 1.39a11.4 11.4 0 0 0 3.47-2.5c.5-.5 1-1.02 1.51-1.5.25-.24.5-.47.78-.68.33-.2.66-.41.97-.64l.2-.1-.58-.3c-.06.18-.1.37-.1.56a8.84 8.84 0 0 1-1.36 3.15c-.94 1.39-2 2.67-3.15 3.85-.9.97.23 2.24 1.29 1.77 1.19-.56 2.46-.9 3.76-1.02.16 0 1.52-.2 1.62 0 .2.36-.65.99-.86 1.16a14.63 14.63 0 0 1-6.34 2.91 13.9 13.9 0 0 1-3.47.22 3.15 3.15 0 0 0-1.7 0c-.49.36-.95.77-1.37 1.22a32.2 32.2 0 0 1-6.23 4.17l1.3.17a40.48 40.48 0 0 1-4.93-8.14c-.6-1.3-2.43-.16-1.83 1.13a43.1 43.1 0 0 0 5.24 8.6c.17.17.39.28.62.3.23.04.47 0 .68-.13a35.13 35.13 0 0 0 7.8-5.56l-.75.33c2.2.28 4.45.1 6.59-.53 2.14-.64 4.14-1.7 5.9-3.15a3.63 3.63 0 0 0 1.48-2.55 2.37 2.37 0 0 0-.44-1.5 2.2 2.2 0 0 0-1.25-.86 8.57 8.57 0 0 0-3.31.12c-1.24.23-2.45.62-3.6 1.17l1.29 1.76a26.94 26.94 0 0 0 3.78-4.8c.5-.87.9-1.8 1.18-2.77.22-.88.52-2.05 0-2.85-1.18-1.78-3.56.3-4.53 1.22-1.35 1.24-2.54 2.87-4.26 3.6l1.31 1.38c.56-2.03 2.1-3.56 2.67-5.61.4-1.5.37-4.57-1.76-4.48-.95.05-1.57.87-2.13 1.6l-2 2.73c-.7.96-1.38 1.92-2.09 2.86-.5.7-1.13 1.6-2.04 1.56l1.06 1.13c-.08-2.39 1.26-5.02.5-7.34-.27-.86-.82-2.1-1.84-2.1-.7 0-1.46.75-2 1.22-1.8 1.5-2.09 4.14-2.35 6.4-.09.8-.12 1.61-.1 2.42v.7c.05.29.05.37 0 .23-.14.22-.63.4-.85.55a63.3 63.3 0 0 1-4.36 2.49c-1.23.64-.15 2.58 1.08 1.93l.04.05Z"/>
    <path fill="#4E51F2" d="M25.7 104.88c.46 2.62 1.78 4.98 3.08 7.28l3.55 6.27a1.22 1.22 0 0 1 .22 1.02c-.08.16-.2.3-.35.4-2.38 1.96-5.3 3-8.17 4.03-2.4.86-19 5.32-21.41 6.18-2.64-4.6.9-14.71.58-16.44 4.9-2.41 16.98-6.36 22.01-8.39"/>
    <path fill="#16276A" d="M24.64 105.16a22.86 22.86 0 0 0 2.7 6.7c1.21 2.17 2.45 4.33 3.67 6.5.07.1.51.74.47.85.12-.35-.36.05-.35 0-.5.27-.97.59-1.42.94a23 23 0 0 1-3.03 1.49c-1.24.5-2.5.97-3.79 1.38-4.8 1.49-9.67 2.75-14.51 4.11-2.04.58-4.11 1.1-6.11 1.8l1.2.52c-1.42-2.6-.84-6.2-.38-8.97.23-1.41.53-2.8.8-4.22a8.8 8.8 0 0 0 .26-2.94l-.49 1.27c3.54-1.62 7.15-3.05 10.83-4.27 3.65-1.32 7.34-2.56 10.95-4 1.28-.51.71-2.68-.56-2.17-7.38 2.95-15.13 5-22.29 8.5-.2.13-.36.32-.44.55-.1.23-.1.48-.05.72-.06-.38 0 .1 0 .22a36.41 36.41 0 0 1-.38 2.23c-.3 1.55-.61 3.1-.83 4.66-.45 3.11-.8 6.72.76 9.58.13.21.3.38.53.47.21.1.45.1.68.04 4.6-1.62 9.41-2.72 14.1-4.03 2.2-.62 4.43-1.23 6.62-1.92a44.4 44.4 0 0 0 4.4-1.64c.97-.4 1.92-.88 2.84-1.41.84-.5 2.13-1.17 2.6-2.12.63-1.29-.5-2.67-1.1-3.74l-2.13-3.74c-1.42-2.52-2.94-5.03-3.5-7.95-.27-1.42-2.33-.82-2.06.6h.01Z"/>
    <path fill="#fff" d="m1.83 84.35 6.96-6.78 3.45-3.36 1.61-1.58c.5-.48 1-1.2 1.73-1.1.28 0 .55-.12.75-.33.2-.21.31-.5.32-.8.07-4.48.14-9.93 3.48-13.21.37-.43.83-.75 1.35-.93a3.03 3.03 0 0 1 1.6-.11c.55.16.83.57 1.3.87.48.3 1.05.42 1.61.33 1.19-.15 2.23-.66 3.44-.24.5.14.93.46 1.22.9.3.44.44.97.4 1.5 0 .3.1.6.3.8.2.21.48.33.76.33 1.37 0 2.33 1.3 2.6 2.63.38 1.78-.33 3.68-.99 5.3-.28.7 0 1.78.92 1.69 2.2-.21 5.49-.27 7.18 1.54a2.5 2.5 0 0 1 .18 3.06 5.26 5.26 0 0 1-2.84 2.13c-2.76 1-5.72 1.56-8.55 2.32-1.1.29-3.03.4-3.3 1.87-.11.6.23 1.12.14 1.7-.22.7-.59 1.34-1.06 1.89a39.09 39.09 0 0 1-11.43 11.1 668.96 668.96 0 0 1-11.77 7.2l-.53.3c-.28.16.04 0-.04 0-1.35.22-.78 2.38.57 2.17.81-.29 1.58-.7 2.26-1.24 1.39-.82 2.76-1.66 4.13-2.5 2.13-1.33 4.31-2.65 6.45-4A41.8 41.8 0 0 0 28.3 85.75c.81-1.2 1.62-2.53 1.15-4.06.09.3-.44.09 0 .2.17.05.5-.13.7-.18l1.2-.31 2.57-.68c2.75-.75 6.03-1.12 8.36-2.94 2.33-1.82 3.26-5.28 1.08-7.6-2.18-2.3-5.87-2.46-8.69-2.19l.93 1.69c.93-2.32 1.9-5.01 1.06-7.54a5.25 5.25 0 0 0-1.7-2.62 4.83 4.83 0 0 0-2.81-1.12l1.06 1.12c.25-3.09-2.66-5-5.31-4.8-.38.03-.76.09-1.14.17-.31.07-.86.36-1.17.26-.31-.1-.54-.47-.79-.63a3.86 3.86 0 0 0-2.8-.66c-.72.08-1.4.32-2.01.71-2.36 1.42-3.8 4.28-4.5 6.94a36.7 36.7 0 0 0-.92 8.9l1.06-1.12c-1.54-.19-2.67 1.2-3.68 2.24l-3.89 3.8L.4 82.8c-1 .99.5 2.57 1.5 1.59l-.06-.04Z"/>
    <path fill="#CAE4DA" d="M24.32 82.52c1.82-2.83 5.15-4.12 8.34-4.8 3.19-.68 5.68-.87 8.6-2.41.21-.08.4-.23.55-.43a1 1 0 0 0 .19-.84c-.15-1.68-1.2-2.53-2.78-2.78-2.47-.4-4.99-.46-7.48-.17.44-1.43 1.42-2.58 2.13-3.87.71-1.3 1.12-3 .34-4.24a2.45 2.45 0 0 0-4.04-.07c.43-1.4.83-3.04.05-4.27a2.8 2.8 0 0 0-1.37-1.04 2.66 2.66 0 0 0-1.69-.02 4.09 4.09 0 0 0-2.38 2.46c-.04-1.45-.46-3.33-1.83-3.43-.5 0-1 .17-1.42.48a8.59 8.59 0 0 0-2.63 2.76 9.1 9.1 0 0 0-1.23 3.7 42.1 42.1 0 0 0 .04 4.12c0 3.63-1.19 7.12-1.8 10.68a.97.97 0 0 0 0 .52c.14.35.59.38.95.38 2.76.13 5.4 1.29 7.43 3.27"/>
    <path fill="#16276A" d="M25.23 83.09c1.6-2.39 4.34-3.47 6.94-4.11 2.95-.75 5.96-.99 8.75-2.24 1.17-.53 2.22-1.18 2.14-2.66a4.13 4.13 0 0 0-.52-1.85 3.89 3.89 0 0 0-1.28-1.37c-1.19-.74-2.74-.82-4.08-.93a28.23 28.23 0 0 0-5.44.07l1.03 1.42c.5-1.5 1.61-2.67 2.27-4.1a5.43 5.43 0 0 0 .27-4.48c-1.16-2.57-4.53-2.53-6.07-.43l1.95.86c.7-2.38.92-5.4-1.7-6.55-2.3-1-4.7.53-5.63 2.81l1.98.57c-.09-2.16-1.1-5.23-3.76-4.44-2.42.75-4.26 3.48-5.05 5.87a13 13 0 0 0-.43 4.48c.1 1.7.02 3.39-.24 5.06-.28 1.68-.7 3.32-1.05 4.98-.26 1.22-1 3.12.2 4.02.63.32 1.33.45 2.02.4a10.7 10.7 0 0 1 6.03 2.9c1 .98 2.52-.6 1.5-1.58a12.5 12.5 0 0 0-7.38-3.55l-1.02-.05c.27.27.4.28.4 0 0-.29.06-.36.1-.52.17-.92.39-1.83.6-2.75.38-1.62.68-3.27.9-4.93.36-3.13-.54-6.41 1.04-9.28.57-1.02 1.76-2.66 2.95-2.9.95-.19 1.04 1.61 1.07 2.25.04 1 1.54 1.66 1.99.56.44-1.1 1.6-2.5 2.97-1.88 1.37.61.82 2.7.46 3.9-.35 1.2 1.27 1.79 1.95.85.22-.23.51-.39.82-.44.31-.06.63-.02.92.12a1.78 1.78 0 0 1 .67 2.04c-.41 2.07-2.13 3.6-2.79 5.6a1.18 1.18 0 0 0 .19.97c.1.14.22.25.37.32.15.08.3.12.47.12a28.2 28.2 0 0 1 4.77-.12c1.12.06 2.69 0 3.68.68a1.62 1.62 0 0 1 .71 1.06c.15.53-.11.5-.6.75-1.22.57-2.48 1-3.78 1.26-4.78 1.07-10.06 1.57-13.11 6.14-.8 1.18 1.05 2.3 1.84 1.13l-.02-.03Z"/>
    <path fill="#4E51F2" d="M15.45 72.28c1.29 2.3 3.3 4.04 5.26 5.73l5.36 4.6c.27.24.56.53.54.89a1.1 1.1 0 0 1-.2.5c-1.6 2.7-4 4.75-6.38 6.73-1.98 1.68-15.48 10.21-17.45 11.88-.48-4.4-.39-14.5-1.1-17.46C5.3 81.12 11 76.52 15.08 72.8"/>
    <path fill="#16276A" d="M14.52 72.84c2.23 3.84 6.07 6.5 9.33 9.3.44.39.9.75 1.33 1.16.14.1.33.5.31.14 0 .16-.32.53-.42.66-.62.91-1.32 1.76-2.09 2.53-.71.75-1.5 1.43-2.27 2.11l-1.18 1.01c-.55.47.03 0-.35.29-3.86 2.85-7.96 5.37-11.94 8.02a62.07 62.07 0 0 0-5.4 3.73l1.82.8c-.32-3.11-.34-6.27-.46-9.4-.1-2.74-.05-5.67-.67-8.35l-.27 1.09c4.26-4.49 9.07-8.22 13.6-12.36 1.04-.95-.47-2.53-1.5-1.6-4.27 3.88-8.78 7.48-12.84 11.57-.4.4-.99.83-1.07 1.45 0 .4.06.8.17 1.2.12.8.18 1.6.23 2.4.15 2.3.22 4.59.3 6.88.09 2.3.14 4.75.38 7.11.01.22.08.43.2.6.12.18.28.32.47.4a1.04 1.04 0 0 0 1.14-.2c-.22.16.17-.15 0 0l.16-.12.43-.32a172.47 172.47 0 0 1 4.06-2.77l7.26-4.8c1.72-1.14 3.5-2.24 5.13-3.53a39.56 39.56 0 0 0 4.32-3.89c.7-.74 1.35-1.53 1.95-2.37.61-.86 1.33-1.83.84-2.94a4 4 0 0 0-1.2-1.32l-1.61-1.38-3.21-2.76c-1.9-1.62-3.82-3.28-5.1-5.5-.72-1.24-2.56-.1-1.85 1.13v.03Z"/>
  </g>
  <defs>
    <clipPath id="a">
      <path fill="#fff" d="M0 .5h160v145H0z"/>
    </clipPath>
  </defs>
</svg>
