<?xml version="1.0" encoding="UTF-8"?>
<svg width="187px" height="184px" viewBox="0 0 187 184" version="1.1" xmlns="http://www.w3.org/2000/svg" xmlns:xlink="http://www.w3.org/1999/xlink">
    <!-- Generator: Sketch 51.2 (57519) - http://www.bohemiancoding.com/sketch -->
    <title>ndla film</title>
    <desc>Created with Sketch.</desc>
    <defs></defs>
    <g id="Page-1" stroke="none" stroke-width="1" fill="none" fill-rule="evenodd">
        <g id="ndla-film">
            <rect id="Rectangle-path" fill="#507AA4" fill-rule="nonzero" x="0.436010363" y="0.436939314" width="186.370207" height="183.465963"></rect>
            <rect id="Rectangle-path" fill="#DEEBF6" fill-rule="nonzero" x="35.365285" y="78.4063325" width="115.252073" height="95.2527704"></rect>
            <rect id="Rectangle-path" fill="#DEEBF6" fill-rule="nonzero" x="7.36373057" y="0.436939314" width="18.0217617" height="12.5741425"></rect>
            <rect id="Rectangle-path" fill="#DEEBF6" fill-rule="nonzero" x="160.500259" y="0.534036939" width="18.0217617" height="11.3118734"></rect>
            <rect id="Rectangle-path" fill="#DEEBF6" fill-rule="nonzero" x="7.75129534" y="30.585752" width="18.0217617" height="18.4"></rect>
            <rect id="Rectangle-path" fill="#DEEBF6" fill-rule="nonzero" x="7.79974093" y="67.8712401" width="18.0217617" height="18.4"></rect>
            <rect id="Rectangle-path" fill="#DEEBF6" fill-rule="nonzero" x="7.70284974" y="105.302375" width="18.0217617" height="18.4"></rect>
            <rect id="Rectangle-path" fill="#DEEBF6" fill-rule="nonzero" x="7.70284974" y="142.442216" width="18.0217617" height="18.4"></rect>
            <rect id="Rectangle-path" fill="#DEEBF6" fill-rule="nonzero" x="7.65440415" y="179.387863" width="18.0217617" height="4.51503958"></rect>
            <rect id="Rectangle-path" fill="#DEEBF6" fill-rule="nonzero" x="160.015803" y="179.339314" width="18.0217617" height="4.6121372"></rect>
            <rect id="Rectangle-path" fill="#DEEBF6" fill-rule="nonzero" x="160.403368" y="142.29657" width="18.0217617" height="18.4"></rect>
            <rect id="Rectangle-path" fill="#DEEBF6" fill-rule="nonzero" x="160.16114" y="105.059631" width="18.0217617" height="18.4"></rect>
            <rect id="Rectangle-path" fill="#DEEBF6" fill-rule="nonzero" x="160.258031" y="67.4828496" width="18.0217617" height="18.4"></rect>
            <rect id="Rectangle-path" fill="#DEEBF6" fill-rule="nonzero" x="160.403368" y="30.4886544" width="18.0217617" height="18.4"></rect>
            <path d="M91.3683938,78.260686 L91.3683938,173.901847" id="Shape" stroke="#507AA4"></path>
            <ellipse id="Oval" stroke="#507AA4" cx="91.5621762" cy="126.906596" rx="42.6805699" ry="41.0722955"></ellipse>
            <path d="M35.2683938,125.692876 L150.908031,126.421108" id="Shape" stroke="#507AA4"></path>
            <path d="M78.1502463,146.236096 C75.6296852,143.158652 74.3694236,139.413932 74.3694236,135.001825 L80.5772374,135.001825 C80.841401,138.068239 81.4137469,140.29632 82.2942923,141.686134 C83.8352467,144.178974 86.6199296,145.425376 90.6484247,145.425376 C93.7743608,145.425376 96.2838774,144.587088 98.17705,142.910487 C100.070223,141.233886 101.016795,139.071986 101.016795,136.424722 C101.016795,133.159763 100.020693,130.876532 98.0284587,129.57496 C96.0362248,128.273388 93.2680518,127.622612 89.7238567,127.622612 C89.3276113,127.622612 88.9258685,127.628127 88.5186162,127.639158 C88.111364,127.650188 87.6986146,127.666733 87.2803555,127.688794 L87.2803555,122.427382 C87.8967373,122.493564 88.4140499,122.537684 88.832309,122.559745 C89.250568,122.581805 89.7018408,122.592835 90.1861407,122.592835 C92.4095178,122.592835 94.236622,122.239872 95.6675082,121.533935 C98.1770625,120.298545 99.4318209,118.092524 99.4318209,114.915807 C99.4318209,112.55533 98.5953153,110.735363 96.9222791,109.455852 C95.2492429,108.176341 93.3010655,107.536595 91.0776884,107.536595 C87.1152343,107.536595 84.3745779,108.860207 82.8556371,111.507471 C82.019119,112.963467 81.545833,115.037126 81.4357648,117.728511 L75.5581539,117.728511 C75.5581539,114.198826 76.2625796,111.198638 77.6714522,108.727858 C80.092952,104.315751 84.3525263,102.10973 90.450303,102.10973 C95.2712889,102.10973 99.0025439,103.185165 101.64418,105.336067 C104.285816,107.48697 105.606614,110.602974 105.606614,114.684173 C105.606614,117.596163 104.825142,119.956605 103.262174,121.765569 C102.293574,122.890657 101.038816,123.773065 99.4978614,124.41282 C101.985402,125.096697 103.928076,126.414794 105.325942,128.367152 C106.723808,130.319509 107.42273,132.707526 107.42273,135.531275 C107.42273,140.053685 105.936832,143.737739 102.964992,146.583548 C99.9931509,149.429357 95.7776032,150.85224 90.3182219,150.85224 C84.7267587,150.85224 80.6708075,149.313541 78.1502463,146.236096 Z" id="path-1" fill="#20588F" fill-rule="nonzero"></path>
            <ellipse id="Oval" stroke="#507AA4" cx="91.3199482" cy="127.634828" rx="32.6523316" ry="32.0422164"></ellipse>
            <polyline id="Shape" fill="#DEEBF6" fill-rule="nonzero" points="142.042487 0.436939314 150.908031 0.436939314 150.908031 56.5108179 35.9466321 56.5108179 35.9466321 0.436939314 142.042487 0.436939314"></polyline>
            <path d="M132.983161,0.242744063 C134.048964,3.8353562 134.630311,7.6707124 134.630311,11.6031662 C134.630311,34.2754617 115.542746,52.6754617 91.9497409,52.6754617 C68.3567358,52.6754617 49.269171,34.2754617 49.269171,11.6031662 C49.269171,7.57361478 49.8505181,3.68970976 51.0132124,0" id="Shape" stroke="#507AA4"></path>
            <path d="M62.4948187,0.582585752 C60.7507772,4.46649077 59.7818653,8.78733509 59.7818653,13.3023747 C59.7818653,30.8770449 74.4124352,45.101847 92.4341969,45.101847 C110.455959,45.101847 125.086528,30.8770449 125.086528,13.3023747 C125.086528,8.73878628 124.069171,4.36939314 122.276684,0.436939314" id="Shape" stroke="#507AA4"></path>
            <path d="M91.3199482,0.436939314 L91.3730732,56.9963061" id="Shape" stroke="#507AA4"></path>
            <path d="M35.9466321,10.1467018 L151.198705,10.8263852" id="Shape" stroke="#507AA4"></path>
            <path d="M86.5238342,29.5176781 L86.5238342,29.3720317 L89.6243523,26.16781 C97.811658,17.3319261 102.995337,10.8263852 102.995337,2.81583113 C102.995337,1.99050132 102.898446,1.31081794 102.753109,0.485488127 C100.766839,0.485488127 99.3619171,0.485488127 97.3272021,0.485488127 C97.6178756,1.50501319 97.7632124,2.42744063 97.7632124,3.54406332 C97.7147668,10.098153 93.2093264,15.7298153 83.3264249,26.3134565 L79.2085492,30.7799472 L79.2085492,34.3725594 L103.964249,34.3725594 L103.964249,29.4691293 L86.5238342,29.4691293 L86.5238342,29.5176781 Z" id="Shape" fill="#20588F" fill-rule="nonzero"></path>
        </g>
    </g>
</svg>