<svg xmlns="http://www.w3.org/2000/svg" xmlns:xlink="http://www.w3.org/1999/xlink">
  <symbol id="icon" viewBox="0 0 260.46 612.26">
    <g fill="currentColor">
      <g>
        <rect width="52" height="280" />
        <polygon points="97.15 39.5 52 66 191 279.77 191.12 280 260 280 260 0 207.73 0 207.73 209.54 97.15 39.5" />
      </g>
      <g>
        <path d="M5.26,363.02H1.21v-30.08h4.05l16.4,24.96h-1.12v-24.96h4.05v30.08h-4.05l-16.4-24.96h1.12v24.96Z" />
        <path d="M29.35,352.83c0-2.08.45-3.92,1.36-5.53.91-1.61,2.16-2.87,3.74-3.79,1.58-.92,3.39-1.37,5.43-1.37s3.84.46,5.41,1.37c1.57.92,2.81,2.18,3.72,3.79.91,1.61,1.36,3.45,1.36,5.53s-.45,3.92-1.36,5.53c-.91,1.61-2.15,2.87-3.72,3.79-1.57.92-3.37,1.37-5.41,1.37s-3.85-.46-5.43-1.37c-1.58-.92-2.83-2.18-3.74-3.79-.91-1.61-1.36-3.45-1.36-5.53ZM33.27,352.83c0,1.42.28,2.66.85,3.74.56,1.08,1.34,1.93,2.33,2.54s2.13.92,3.43.92,2.44-.3,3.43-.92,1.77-1.46,2.33-2.54c.56-1.08.85-2.33.85-3.74s-.28-2.7-.85-3.76c-.56-1.07-1.34-1.91-2.33-2.52-.99-.61-2.13-.92-3.43-.92s-2.44.31-3.43.92c-.99.61-1.77,1.45-2.33,2.52-.56,1.07-.85,2.32-.85,3.76Z" />
        <path d="M66.03,342.51v3.58h-1.74c-1.85,0-3.3.54-4.36,1.6-1.06,1.07-1.59,2.59-1.59,4.56v10.77h-3.88v-20.3h3.64l.33,4.08h-.37c.28-1.33.94-2.42,1.98-3.27,1.05-.85,2.35-1.27,3.92-1.27.36,0,.7.02,1.01.06.32.04.67.1,1.05.19Z" />
        <path d="M74.42,363.02l-6.61-20.34h4.01l3.35,10.57c.25.75.47,1.52.66,2.31.19.79.39,1.63.58,2.52.11-.61.24-1.2.39-1.77.15-.57.31-1.11.48-1.62.17-.51.32-.99.45-1.44l3.39-10.57h3.97l3.35,10.57c.11.25.21.58.31.98.1.4.21.83.35,1.27.14.44.26.89.37,1.33.11.44.21.86.29,1.25.11-.55.23-1.09.35-1.6.12-.51.26-1.03.41-1.54.15-.51.32-1.08.52-1.69l3.39-10.57h4.05l-6.9,20.34h-3.68l-3.51-10.9c-.33-1.03-.6-1.93-.81-2.72s-.37-1.46-.48-2.02c-.11.5-.27,1.12-.48,1.85-.21.73-.49,1.71-.85,2.93l-3.51,10.86h-3.84Z" />
        <path d="M109.42,363.52c-1.96,0-3.69-.45-5.21-1.35-1.52-.9-2.7-2.15-3.55-3.74-.85-1.59-1.28-3.45-1.28-5.55s.42-4.01,1.26-5.62c.84-1.61,2-2.87,3.47-3.79,1.47-.92,3.19-1.37,5.14-1.37s3.6.42,5.02,1.25c1.42.83,2.52,2,3.31,3.49.79,1.5,1.18,3.26,1.18,5.28v1.46l-17.31.04.08-2.62h13.35c0-1.69-.51-3.05-1.53-4.08-1.02-1.03-2.38-1.54-4.09-1.54-1.29,0-2.4.29-3.33.85-.92.57-1.63,1.4-2.11,2.5-.48,1.1-.72,2.41-.72,3.93,0,2.44.55,4.32,1.65,5.64,1.1,1.32,2.69,1.98,4.75,1.98,1.51,0,2.75-.31,3.72-.92.96-.61,1.61-1.5,1.94-2.66h3.64c-.5,2.16-1.56,3.84-3.18,5.03-1.63,1.19-3.69,1.79-6.2,1.79Z" />
        <path d="M121.6,352.33c0-1.91.39-3.64,1.16-5.18.77-1.54,1.87-2.77,3.31-3.68,1.43-.92,3.13-1.37,5.08-1.37,1.82,0,3.37.44,4.67,1.31,1.29.87,2.22,2.09,2.77,3.64l-.5.54.41-4.91h3.47v19.51c0,2.14-.41,3.99-1.24,5.55-.83,1.57-2,2.78-3.51,3.64-1.52.86-3.31,1.29-5.37,1.29-2.75,0-5.01-.74-6.78-2.21s-2.84-3.49-3.22-6.07h3.88c.25,1.5.91,2.66,1.98,3.49s2.45,1.25,4.13,1.25c1.9,0,3.42-.58,4.57-1.73,1.14-1.15,1.71-2.7,1.71-4.64v-5.74l.5.54c-.52,1.53-1.47,2.72-2.85,3.6-1.38.87-2.98,1.31-4.79,1.31-1.93,0-3.59-.45-5-1.35s-2.49-2.11-3.24-3.64c-.76-1.52-1.14-3.24-1.14-5.16ZM125.49,352.25c0,1.28.25,2.43.76,3.45.51,1.03,1.23,1.84,2.15,2.45.92.61,2,.92,3.24.92,1.32,0,2.45-.29,3.39-.87.94-.58,1.66-1.39,2.17-2.41.51-1.03.76-2.21.76-3.54s-.25-2.5-.74-3.49c-.5-1-1.21-1.79-2.15-2.37-.94-.58-2.07-.87-3.39-.87s-2.4.31-3.33.92c-.92.61-1.63,1.42-2.13,2.43-.5,1.01-.74,2.14-.74,3.39Z" />
        <path d="M149.28,337.85c-.69,0-1.29-.26-1.8-.77-.51-.51-.76-1.12-.76-1.81s.25-1.33.76-1.83c.51-.5,1.11-.75,1.8-.75s1.32.25,1.82.75c.5.5.74,1.11.74,1.83s-.25,1.3-.74,1.81c-.5.51-1.1.77-1.82.77ZM147.38,363.02v-20.34h3.88v20.34h-3.88Z" />
        <path d="M162.59,363.52c-2.15,0-3.84-.57-5.06-1.71s-1.84-2.62-1.84-4.45.66-3.35,1.98-4.47c1.32-1.12,3.17-1.78,5.54-1.98l6.36-.5v-.58c0-1.14-.21-2.04-.62-2.72-.41-.68-.98-1.17-1.69-1.46-.72-.29-1.53-.44-2.44-.44-1.63,0-2.89.34-3.78,1.02-.9.68-1.34,1.64-1.34,2.89h-3.39c0-1.41.36-2.65,1.07-3.7.72-1.05,1.73-1.87,3.04-2.45,1.31-.58,2.83-.87,4.57-.87s3.15.3,4.4.89c1.25.6,2.23,1.5,2.93,2.7.7,1.21,1.05,2.72,1.05,4.55v12.77h-3.31l-.41-3.29c-.52,1.16-1.43,2.09-2.71,2.77-1.28.68-2.73,1.02-4.36,1.02ZM163.7,360.48c1.85,0,3.29-.56,4.34-1.68,1.05-1.12,1.57-2.64,1.57-4.55v-1.08l-5.16.42c-1.71.17-2.94.57-3.7,1.21-.76.64-1.14,1.46-1.14,2.45,0,1.08.36,1.89,1.1,2.43.73.54,1.73.81,3,.81Z" />
        <path d="M182.42,363.02h-3.88v-20.34h3.51l.41,3.12c.63-1.16,1.55-2.07,2.75-2.72,1.2-.65,2.51-.98,3.95-.98,2.64,0,4.6.76,5.87,2.29,1.27,1.53,1.9,3.59,1.9,6.2v12.44h-3.88v-11.56c0-2.05-.44-3.53-1.32-4.43-.88-.9-2.07-1.35-3.55-1.35-1.82,0-3.23.6-4.23,1.79-1.01,1.19-1.51,2.79-1.51,4.78v10.77Z" />
      </g>
      <g>
        <path d="M10.62,466.02c-1.95,0-3.63-.45-5.03-1.35-1.4-.9-2.48-2.16-3.24-3.76-.76-1.61-1.13-3.44-1.13-5.49s.38-3.93,1.15-5.55c.77-1.62,1.87-2.91,3.3-3.85,1.43-.94,3.13-1.41,5.11-1.41,1.57,0,2.96.33,4.18.98,1.22.65,2.18,1.62,2.87,2.89v-13.56h3.83v30.62h-3.46l-.33-3.7c-.66,1.36-1.63,2.4-2.91,3.12-1.28.72-2.73,1.08-4.35,1.08ZM11.4,462.48c1.32,0,2.45-.3,3.4-.92.95-.61,1.68-1.46,2.21-2.54.52-1.08.78-2.33.78-3.74s-.26-2.66-.78-3.72c-.52-1.07-1.26-1.91-2.21-2.52-.95-.61-2.08-.92-3.4-.92s-2.45.31-3.38.94c-.93.62-1.65,1.47-2.14,2.54s-.74,2.29-.74,3.68.25,2.66.74,3.74c.49,1.08,1.21,1.93,2.14,2.54.93.61,2.06.92,3.38.92Z" />
        <path d="M28.96,440.35c-.69,0-1.29-.26-1.79-.77-.51-.51-.76-1.12-.76-1.81s.25-1.33.76-1.83c.51-.5,1.11-.75,1.79-.75s1.32.25,1.81.75c.49.5.74,1.11.74,1.83s-.25,1.3-.74,1.81c-.49.51-1.1.77-1.81.77ZM27.07,465.52v-20.34h3.88v20.34h-3.88Z" />
        <path d="M35.06,454.83c0-1.91.38-3.64,1.15-5.18.77-1.54,1.87-2.77,3.3-3.68,1.43-.92,3.12-1.37,5.07-1.37,1.81,0,3.37.44,4.66,1.31,1.29.87,2.21,2.09,2.76,3.64l-.49.54.41-4.91h3.46v19.51c0,2.14-.41,3.99-1.24,5.55-.82,1.57-1.99,2.78-3.5,3.64-1.51.86-3.3,1.29-5.36,1.29-2.75,0-5-.74-6.76-2.21-1.76-1.47-2.83-3.49-3.22-6.07h3.87c.25,1.5.91,2.66,1.98,3.49s2.45,1.25,4.12,1.25c1.9,0,3.41-.58,4.55-1.73,1.14-1.15,1.71-2.7,1.71-4.64v-5.74l.49.54c-.52,1.53-1.47,2.72-2.84,3.6-1.37.87-2.97,1.31-4.78,1.31-1.92,0-3.59-.45-4.99-1.35s-2.48-2.11-3.24-3.64c-.76-1.52-1.13-3.24-1.13-5.16ZM38.94,454.75c0,1.28.25,2.43.76,3.45.51,1.03,1.22,1.84,2.14,2.45.92.61,2,.92,3.24.92,1.32,0,2.45-.29,3.38-.87.93-.58,1.66-1.39,2.16-2.41.51-1.03.76-2.21.76-3.54s-.25-2.5-.74-3.49c-.5-1-1.21-1.79-2.14-2.37-.93-.58-2.06-.87-3.38-.87s-2.4.31-3.32.92c-.92.61-1.63,1.42-2.12,2.43-.49,1.01-.74,2.14-.74,3.39Z" />
        <path d="M62.68,440.35c-.69,0-1.29-.26-1.79-.77-.51-.51-.76-1.12-.76-1.81s.25-1.33.76-1.83c.51-.5,1.11-.75,1.79-.75s1.32.25,1.81.75c.49.5.74,1.11.74,1.83s-.25,1.3-.74,1.81c-.49.51-1.1.77-1.81.77ZM60.78,465.52v-20.34h3.88v20.34h-3.88Z" />
        <path d="M67.92,445.18h11.71v3.29h-11.71v-3.29ZM79.46,462.11l.49,3.25c-1.04.42-2.16.62-3.34.62s-2.18-.23-3.01-.69c-.82-.46-1.46-1.14-1.9-2.06-.44-.92-.66-2.05-.66-3.41v-21.01h3.88v20.47c0,1.17.24,1.99.72,2.48.48.49,1.11.73,1.88.73.6,0,1.25-.12,1.94-.37Z" />
        <path d="M89.39,466.02c-2.14,0-3.83-.57-5.05-1.71-1.22-1.14-1.83-2.62-1.83-4.45s.66-3.35,1.98-4.47c1.32-1.12,3.16-1.78,5.52-1.98l6.35-.5v-.58c0-1.14-.21-2.04-.62-2.72-.41-.68-.98-1.17-1.69-1.46-.71-.29-1.52-.44-2.43-.44-1.62,0-2.88.34-3.77,1.02-.89.68-1.34,1.64-1.34,2.89h-3.38c0-1.41.36-2.65,1.07-3.7.71-1.05,1.72-1.87,3.03-2.45,1.31-.58,2.82-.87,4.55-.87s3.14.3,4.39.89c1.25.6,2.23,1.5,2.93,2.7.7,1.21,1.05,2.72,1.05,4.55v12.77h-3.3l-.41-3.29c-.52,1.16-1.42,2.09-2.7,2.77-1.28.68-2.73,1.02-4.35,1.02ZM90.5,462.98c1.84,0,3.28-.56,4.33-1.68s1.57-2.64,1.57-4.55v-1.08l-5.15.42c-1.7.17-2.93.57-3.69,1.21-.76.64-1.13,1.46-1.13,2.45,0,1.08.36,1.89,1.09,2.43.73.54,1.72.81,2.99.81Z" />
        <path d="M109.26,465.52h-3.88v-30.62h3.88v30.62Z" />
      </g>
      <g>
        <path d="M5.5,563.52H1.62v-30.62h3.88v30.62Z" />
        <path d="M19.68,564.02c-1.95,0-3.68-.45-5.19-1.35-1.51-.9-2.69-2.15-3.54-3.74-.85-1.59-1.28-3.45-1.28-5.55s.42-4.01,1.26-5.62c.84-1.61,1.99-2.87,3.46-3.79,1.47-.92,3.18-1.37,5.13-1.37s3.59.42,5.01,1.25c1.42.83,2.51,2,3.3,3.49.78,1.5,1.17,3.26,1.17,5.28v1.46l-17.27.04.08-2.62h13.31c0-1.69-.51-3.05-1.53-4.08-1.02-1.03-2.38-1.54-4.08-1.54-1.29,0-2.4.29-3.32.85-.92.57-1.62,1.4-2.1,2.5-.48,1.1-.72,2.41-.72,3.93,0,2.44.55,4.32,1.65,5.64,1.1,1.32,2.68,1.98,4.74,1.98,1.51,0,2.75-.31,3.71-.92.96-.61,1.61-1.5,1.94-2.66h3.63c-.49,2.16-1.55,3.84-3.17,5.03-1.62,1.19-3.68,1.79-6.18,1.79Z" />
        <path d="M38.8,564.02c-2.14,0-3.83-.57-5.05-1.71-1.22-1.14-1.83-2.62-1.83-4.45s.66-3.35,1.98-4.47c1.32-1.12,3.16-1.78,5.52-1.98l6.35-.5v-.58c0-1.14-.21-2.04-.62-2.72-.41-.68-.98-1.17-1.69-1.46-.71-.29-1.52-.44-2.43-.44-1.62,0-2.88.34-3.77,1.02-.89.68-1.34,1.64-1.34,2.89h-3.38c0-1.41.36-2.65,1.07-3.7.71-1.05,1.72-1.87,3.03-2.45,1.31-.58,2.82-.87,4.55-.87s3.14.3,4.39.89c1.25.6,2.23,1.5,2.93,2.7.7,1.21,1.05,2.72,1.05,4.55v12.77h-3.3l-.41-3.29c-.52,1.16-1.42,2.09-2.7,2.77-1.28.68-2.73,1.02-4.35,1.02ZM39.92,560.98c1.84,0,3.28-.56,4.33-1.68s1.57-2.64,1.57-4.55v-1.08l-5.15.42c-1.7.17-2.93.57-3.69,1.21-.76.64-1.13,1.46-1.13,2.45,0,1.08.36,1.89,1.09,2.43.73.54,1.72.81,2.99.81Z" />
        <path d="M66.26,543.01v3.58h-1.73c-1.84,0-3.29.54-4.35,1.6-1.06,1.07-1.59,2.59-1.59,4.56v10.77h-3.88v-20.3h3.63l.33,4.08h-.37c.27-1.33.93-2.42,1.98-3.27,1.04-.85,2.35-1.27,3.92-1.27.36,0,.69.02,1.01.06.32.04.67.1,1.05.19Z" />
        <path d="M73.55,563.52h-3.88v-20.34h3.5l.41,3.12c.63-1.16,1.55-2.07,2.74-2.72,1.2-.65,2.51-.98,3.94-.98,2.64,0,4.59.76,5.85,2.29,1.26,1.53,1.9,3.59,1.9,6.2v12.44h-3.87v-11.56c0-2.05-.44-3.53-1.32-4.43-.88-.9-2.06-1.35-3.54-1.35-1.81,0-3.22.6-4.23,1.79-1,1.19-1.5,2.79-1.5,4.78v10.77Z" />
        <path d="M95.07,538.35c-.69,0-1.29-.26-1.79-.77-.51-.51-.76-1.12-.76-1.81s.25-1.33.76-1.83c.51-.5,1.11-.75,1.79-.75s1.32.25,1.81.75c.49.5.74,1.11.74,1.83s-.25,1.3-.74,1.81c-.49.51-1.1.77-1.81.77ZM93.17,563.52v-20.34h3.88v20.34h-3.88Z" />
        <path d="M106.32,563.52h-3.88v-20.34h3.5l.41,3.12c.63-1.16,1.55-2.07,2.74-2.72,1.2-.65,2.51-.98,3.94-.98,2.64,0,4.59.76,5.85,2.29,1.26,1.53,1.9,3.59,1.9,6.2v12.44h-3.87v-11.56c0-2.05-.44-3.53-1.32-4.43-.88-.9-2.06-1.35-3.54-1.35-1.81,0-3.22.6-4.23,1.79-1,1.19-1.5,2.79-1.5,4.78v10.77Z" />
        <path d="M124.66,552.83c0-1.91.38-3.64,1.15-5.18.77-1.54,1.87-2.77,3.3-3.68,1.43-.92,3.12-1.37,5.07-1.37,1.81,0,3.37.44,4.66,1.31,1.29.87,2.21,2.09,2.76,3.64l-.49.54.41-4.91h3.46v19.51c0,2.14-.41,3.99-1.24,5.55-.82,1.57-1.99,2.78-3.5,3.64-1.51.86-3.3,1.29-5.36,1.29-2.75,0-5-.74-6.76-2.21-1.76-1.47-2.83-3.49-3.22-6.07h3.87c.25,1.5.91,2.66,1.98,3.49s2.45,1.25,4.12,1.25c1.9,0,3.41-.58,4.55-1.73,1.14-1.15,1.71-2.7,1.71-4.64v-5.74l.49.54c-.52,1.53-1.47,2.72-2.84,3.6-1.37.87-2.97,1.31-4.78,1.31-1.92,0-3.59-.45-4.99-1.35s-2.48-2.11-3.24-3.64c-.76-1.52-1.13-3.24-1.13-5.16ZM128.54,552.75c0,1.28.25,2.43.76,3.45.51,1.03,1.22,1.84,2.14,2.45.92.61,2,.92,3.24.92,1.32,0,2.45-.29,3.38-.87.93-.58,1.66-1.39,2.16-2.41.51-1.03.76-2.21.76-3.54s-.25-2.5-.74-3.49c-.5-1-1.21-1.79-2.14-2.37-.93-.58-2.06-.87-3.38-.87s-2.4.31-3.32.92c-.92.61-1.63,1.42-2.12,2.43-.49,1.01-.74,2.14-.74,3.39Z" />
        <path d="M167.33,564.02c-2.14,0-3.83-.57-5.05-1.71-1.22-1.14-1.83-2.62-1.83-4.45s.66-3.35,1.98-4.47c1.32-1.12,3.16-1.78,5.52-1.98l6.35-.5v-.58c0-1.14-.21-2.04-.62-2.72-.41-.68-.98-1.17-1.69-1.46-.71-.29-1.52-.44-2.43-.44-1.62,0-2.88.34-3.77,1.02-.89.68-1.34,1.64-1.34,2.89h-3.38c0-1.41.36-2.65,1.07-3.7.71-1.05,1.72-1.87,3.03-2.45,1.31-.58,2.82-.87,4.55-.87s3.14.3,4.39.89c1.25.6,2.23,1.5,2.93,2.7.7,1.21,1.05,2.72,1.05,4.55v12.77h-3.3l-.41-3.29c-.52,1.16-1.42,2.09-2.7,2.77-1.28.68-2.73,1.02-4.35,1.02ZM168.44,560.98c1.84,0,3.28-.56,4.33-1.68s1.57-2.64,1.57-4.55v-1.08l-5.15.42c-1.7.17-2.93.57-3.69,1.21-.76.64-1.13,1.46-1.13,2.45,0,1.08.36,1.89,1.09,2.43.73.54,1.72.81,2.99.81Z" />
        <path d="M194.78,543.01v3.58h-1.73c-1.84,0-3.29.54-4.35,1.6-1.06,1.07-1.59,2.59-1.59,4.56v10.77h-3.88v-20.3h3.63l.33,4.08h-.37c.27-1.33.93-2.42,1.98-3.27,1.04-.85,2.35-1.27,3.92-1.27.36,0,.69.02,1.01.06.32.04.67.1,1.05.19Z" />
        <path d="M206.16,564.02c-1.95,0-3.68-.45-5.19-1.35-1.51-.9-2.69-2.15-3.54-3.74-.85-1.59-1.28-3.45-1.28-5.55s.42-4.01,1.26-5.62c.84-1.61,1.99-2.87,3.46-3.79,1.47-.92,3.18-1.37,5.13-1.37s3.59.42,5.01,1.25c1.42.83,2.51,2,3.3,3.49.78,1.5,1.17,3.26,1.17,5.28v1.46l-17.27.04.08-2.62h13.31c0-1.69-.51-3.05-1.53-4.08-1.02-1.03-2.38-1.54-4.08-1.54-1.29,0-2.4.29-3.32.85-.92.57-1.62,1.4-2.1,2.5-.48,1.1-.72,2.41-.72,3.93,0,2.44.55,4.32,1.65,5.64,1.1,1.32,2.68,1.98,4.74,1.98,1.51,0,2.75-.31,3.71-.92.96-.61,1.61-1.5,1.94-2.66h3.63c-.49,2.16-1.55,3.84-3.17,5.03-1.62,1.19-3.68,1.79-6.18,1.79Z" />
        <path d="M223.47,563.52h-3.88v-20.34h3.5l.41,3.12c.63-1.16,1.55-2.07,2.74-2.72,1.2-.65,2.51-.98,3.94-.98,2.64,0,4.59.76,5.85,2.29,1.26,1.53,1.9,3.59,1.9,6.2v12.44h-3.87v-11.56c0-2.05-.44-3.53-1.32-4.43-.88-.9-2.06-1.35-3.54-1.35-1.81,0-3.22.6-4.23,1.79-1,1.19-1.5,2.79-1.5,4.78v10.77Z" />
        <path d="M248.98,564.02c-2.14,0-3.83-.57-5.05-1.71-1.22-1.14-1.83-2.62-1.83-4.45s.66-3.35,1.98-4.47c1.32-1.12,3.16-1.78,5.52-1.98l6.35-.5v-.58c0-1.14-.21-2.04-.62-2.72-.41-.68-.98-1.17-1.69-1.46-.71-.29-1.52-.44-2.43-.44-1.62,0-2.88.34-3.77,1.02-.89.68-1.34,1.64-1.34,2.89h-3.38c0-1.41.36-2.65,1.07-3.7.71-1.05,1.72-1.87,3.03-2.45,1.31-.58,2.82-.87,4.55-.87s3.14.3,4.39.89c1.25.6,2.23,1.5,2.93,2.7.7,1.21,1.05,2.72,1.05,4.55v12.77h-3.3l-.41-3.29c-.52,1.16-1.42,2.09-2.7,2.77-1.28.68-2.73,1.02-4.35,1.02ZM250.1,560.98c1.84,0,3.28-.56,4.33-1.68s1.57-2.64,1.57-4.55v-1.08l-5.15.42c-1.7.17-2.93.57-3.69,1.21-.76.64-1.13,1.46-1.13,2.45,0,1.08.36,1.89,1.09,2.43.73.54,1.72.81,2.99.81Z" />
      </g>
      <g>
        <line x1=".85" y1="407.89" x2="260.16" y2="389.76" />
        <rect x=".53" y="394.48" width="259.94" height="8.7" transform="translate(-27.48 10.07) rotate(-4)" />
      </g>
      <g>
        <line x1=".85" y1="607.92" x2="260.16" y2="589.79" />
        <rect x=".53" y="594.51" width="259.94" height="8.7" transform="translate(-41.42 10.55) rotate(-4)" />
      </g>
      <g>
        <line x1=".5" y1="497.25" x2="259.81" y2="515.38" />
        <rect x="125.8" y="376.35" width="8.7" height="259.94" transform="translate(-384.01 600.83) rotate(-86)" />
      </g>
    </g>
  </symbol>
</svg>
