  <svg width="96px" height="84px" viewBox="0 0 96 84" version="1.1" xmlns="http://www.w3.org/2000/svg" >
        <defs />
        <path d="M48,0.7 C22,0.7 0.9,19.2 0.9,42 C0.9,51.8 4.8,60.8 11.4,67.9 C10.2,71.2 8,74.9 4,77.5 C3,78.2 3.3,79.7 4.5,79.9 C8.7,80.5 15.9,80.6 22.5,76.6 C29.9,80.8 38.6,83.2 48.1,83.2 C74.1,83.2 95.2,64.7 95.2,41.9 C95.2,19.1 74,0.7 48,0.7 L48,0.7 Z M43.9,41.4 C43.9,46.2 43.5,50.1 42.7,52.8 C42.5,53.4 42.2,53.9 41.9,54.5 L32.6,54.5 C32.7,54.4 32.9,54.3 33,54.1 C34.4,52.2 35.2,49.5 35.3,46.1 L31.7,46.1 C29.2,46.1 27.2,44.1 27.2,41.6 L27.2,33.8 C27.2,31.3 29.2,29.3 31.7,29.3 L43.9,29.3 L43.9,41.4 L43.9,41.4 Z M68.8,41.4 C68.8,46.2 68.4,50.1 67.6,52.8 C67.4,53.4 67.1,53.9 66.8,54.5 L57.5,54.5 C57.6,54.4 57.8,54.3 57.9,54.1 C59.3,52.2 60.1,49.5 60.2,46.1 L56.6,46.1 C54.1,46.1 52.1,44.1 52.1,41.6 L52.1,33.8 C52.1,31.3 54.1,29.3 56.6,29.3 L68.8,29.3 L68.8,41.4 L68.8,41.4 Z" id="Shape" stroke="none" fill="#000000" fillRule="evenodd" />
      </svg>
