<svg xmlns="http://www.w3.org/2000/svg" id="Layer_2" data-name="Layer 2" viewBox="0 0 208 175">
  <defs>
    <clipPath id="clippath">
      <path d="M0 0h208v175H0z" class="cls-1"/>
    </clipPath>
    <style>
      .cls-1{fill:none}.cls-2{clip-path:url(#clippath)}.cls-3{fill:#fff}.cls-4{fill:#cae4da}.cls-5{fill:#16276a}.cls-6{fill:#4e51f2}
    </style>
  </defs>
  <g id="Layer_1-2" data-name="Layer 1">
    <g id="Mobil">
      <g id="Ekstra_illus" class="cls-2" data-name="Ekstra illus">
        <path d="M91.9 257c-.2-6.9-1.2-16.6-1.4-23.5A41.6 41.6 0 0 1 61.2 204c-2-7.7 2-16-.5-23.6-1.9-5.9-9.2-11.4-8.5-17.5s9.3-11 12.6-5.8a56.3 56.3 0 0 1 20.7-34.4c10.9-8 26-10.4 38.2-4.7s20.5 20.1 18.1 33.7c4.7-3 11.5.5 13.3 5.9s-.5 11.5-4.4 15.6c-1.2 1.3-2.6 2.5-3.2 4.1s-.2 3.8.1 5.7a45.3 45.3 0 0 1-32.6 50.4c.9 7.3 1.1 14.7.6 22L91.9 257Z" class="cls-4"/>
        <path d="M93.5 257c-.3-7.8-1.1-15.6-1.4-23.5 0-.4-.1-.7-.3-1s-.5-.5-.8-.6a39.8 39.8 0 0 1-27.6-26.2 27 27 0 0 1-.9-11.3c.4-3.9 1-7.9.4-11.8-.7-3.3-2.1-6.4-4.2-9-1.8-2.5-4-5.1-4.8-8.1A7.1 7.1 0 0 1 57 158c1.8-1.3 4.8-2.3 6.4 0 .4.7 1.4 1 2.1.6.4-.2.6-.6.7-1a52 52 0 0 1 26.4-37.3 37.4 37.4 0 0 1 22.8-3.2 30.8 30.8 0 0 1 24.8 35.1l.5.7c.2.2.5.3.8.3s.6 0 .9-.2c2.6-1.6 5.7-.9 8 .9 1.3 1 2.3 2.4 2.9 3.9.6 1.6.8 3.2.6 4.9-.4 4-2.7 7.3-5.4 10.1a9.3 9.3 0 0 0-3 4.7c-.5 2.2.1 4.3.4 6.5a44.2 44.2 0 0 1-12.4 36.8 40.1 40.1 0 0 1-19.2 11.1c-.3.1-.6.3-.8.6-.2.3-.3.6-.3 1 .9 7.3 1.1 14.7.6 22l1.6-1.6-23.8 1.6c-2 .1-2 3.4 0 3.2l23.8-1.6c.4 0 .8-.2 1.1-.5s.5-.7.5-1.1c.5-7.3.3-14.7-.6-22l-1 1.6a46 46 0 0 0 31.2-28.6 46 46 0 0 0 2.8-22c-.3-2.1-1.2-4.6-.4-6.7.7-1.9 2.7-3.1 3.9-4.7 2.7-3.2 4.3-7.2 4.4-11.4.1-2.1-.4-4.2-1.4-6.1-.9-1.9-2.4-3.5-4.1-4.6a10 10 0 0 0-10.8-.6l2.3 1.8a34 34 0 0 0-23.2-37.2 42.4 42.4 0 0 0-44.9 15.7 61.8 61.8 0 0 0-11.8 26.2l2.9-.4c-3.9-5.6-11.4-2.2-14.3 2.7-4 6.9 2.1 13 5.5 18.5 2.2 3.6 2.7 7.3 2.4 11.5-.3 4.4-1.2 8.8-.6 13.2 1 7.4 5.1 14.5 9.9 20a42.5 42.5 0 0 0 20.9 13l-1.1-1.6c.3 7.9 1.1 15.7 1.4 23.5.1 2.1 3.2 2.1 3.1 0v-.3Z" class="cls-5"/>
        <path d="M64.4 173.5c.4-.4.8-1 1-1.6s.2-1.2.2-1.8c-.1-.5-.4-.9-.7-1.3-.3-.4-.7-.7-1.1-.9l-.8-.5-.4-.2.1.1-.1-.1-.2-.2-.2-.2c.2.3-.2-.2 0 0l-.3-.5q-.1-.1 0 .1l-.1-.3-.1-.6c-.1-.4-.4-.7-.8-.9s-.8-.3-1.2-.1c-.4.1-.7.4-.9.8s-.3.8-.2 1.2c.2.8.5 1.6 1 2.3s1.1 1.2 1.8 1.6l.8.4.2.1c.2.1.2.2-.1 0l.3.3-.1-.2v.1s-.1-.4-.1-.1v-.1c.1-.4 0 .3 0 0s-.1.4 0 0l-.1.2-.2.3c-.3.3-.4.7-.4 1.1s.2.8.4 1.1c.3.3.7.5 1.1.5s.8-.2 1.1-.5l.1-.1Zm79.8-6.4c-.2 0-.3-.1.1.1l.1.1.1.1c-.1-.2.1.3.1.1v.1-.2c0-.2-.1.4 0 .1s-.2.3 0 0l.1-.2c.2-.3-.2.2 0 0l.4-.4.9-.8c.7-.5 1.3-1.2 1.8-1.9.3-.4.5-1 .5-1.5 0-.6-.1-1.1-.3-1.6-.4-.7-1.4-1-2.1-.6-.7.5-1 1.4-.6 2.2l-.1-.2v-.3s-.1.4 0 .1 0 0 0 .1l-.2.3c.2-.3.1-.1 0 0l-.4.4c-.6.6-1.4 1.1-2 1.8a3.4 3.4 0 0 0-1.2 2.7c0 .6.2 1.1.6 1.6.3.5.8.8 1.4.9.4.1.8 0 1.2-.1.4-.2.6-.5.8-.9.1-.4.1-.8-.1-1.2-.3-.4-.6-.7-1.1-.8ZM103.3 154c.6 3.6.7 7.2.3 10.9a13 13 0 0 0 .1 4.8c.5 1.3 1.2 2.6 2.1 3.6 1.8 2.3 3.8 4.9 3.3 8a5 5 0 0 1-.8 2c-.4.6-1 1.1-1.6 1.4l-1.9 1.1-1.2.7-.4.2c-.8.3-.7.8.3 1.5.4-2-2.6-2.9-3-.9-.1.4-.1.9.1 1.3.1.4.4.8.7 1.1s.7.5 1.2.5c.4.1.9 0 1.2-.2 1.7-.8 3.4-1.7 4.9-2.9a8.6 8.6 0 0 0 3.1-10.2c-.7-1.9-1.7-3.6-3-5.1-1.2-1.5-2.4-2.9-2.3-4.9.1-2.3.4-4.5.4-6.8s-.3-4.7-.6-7.1c-.2-1.9-3.2-1.1-2.9 1Z" class="cls-5"/>
        <path d="M37.7 317.5a85.5 85.5 0 0 1-17.9-34 311.5 311.5 0 0 1-2.4-181.9l26.9 5.2c-6 48.8-7.9 98.3 1.9 146.5 1.7 8.4 9.2 14.6 9.1 19-.6 15.3-15.4 33.8-17.6 45.2" class="cls-6"/>
        <path d="M38.8 316.3a88 88 0 0 1-18.2-35.6A310.5 310.5 0 0 1 18.9 102l-1.9 1.1 26.9 5.2-1.2-1.6c-4 32.3-6.2 64.9-4.3 97.4.9 16.3 2.9 32.5 6.1 48.5.6 3.1 1.7 6 3.2 8.7 1.3 2.4 2.9 4.5 4.3 6.9.5.8 1 1.7 1.3 2.6a7 7 0 0 1 .2 3.2c-.3 2.8-.9 5.5-1.9 8.1-2.2 6.5-5.4 12.6-8.6 18.6-2.7 5.1-5.7 10.5-6.8 16.2-.4 2 2.6 2.9 3 .9 1-5 3.5-9.6 5.8-14.1 2.8-5.5 5.8-11 8.1-16.8a52 52 0 0 0 2.8-8.7 19 19 0 0 0 .6-7.5 17 17 0 0 0-3-6c-1.7-2.4-3.1-5-4.4-7.6-1.5-3.2-2-6.7-2.6-10.1l-2-12.3a439.7 439.7 0 0 1-3.3-73.1c.7-18.4 2.4-36.7 4.6-55 0-.4-.1-.7-.3-1-.2-.3-.5-.5-.8-.6l-26.9-5.2c-.4-.1-.8 0-1.2.2s-.6.6-.7 1a312.3 312.3 0 0 0 .5 176.4c4.4 14.6 9.6 29.9 20.2 41 1.4 1.6 3.6-.6 2.2-2.1Z" class="cls-5"/>
        <path d="M170.7 320.1a85.5 85.5 0 0 0 17.9-34 311.5 311.5 0 0 0 2.4-181.9l-26.9 5.2c6 48.8 7.9 98.3-1.9 146.5-1.7 8.4-9.2 14.6-9.1 19 .5 15.3 15.4 33.8 17.6 45.2" class="cls-6"/>
        <path d="M171.8 321.2a89.5 89.5 0 0 0 18.6-35.6 310.6 310.6 0 0 0 12.2-132.7c-2-16.6-5.4-33.1-10.1-49.1-.1-.4-.4-.8-.8-1-.4-.2-.8-.3-1.2-.2l-26.8 5.2c-.3.1-.6.3-.8.6s-.3.6-.3 1c4 32.4 6.2 65.2 4.3 98-.5 8.1-1.2 16.3-2.2 24.4s-2.3 16.1-4 24.1c-1.3 5.7-5.2 9.8-7.8 14.9-2.3 4.6-.7 10.1.8 14.8 2.2 6.6 5.4 12.8 8.6 18.9 2.6 5.1 5.7 10.4 6.9 16.1.4 2 3.4 1.2 3-.9-1-5-3.5-9.7-5.8-14.2-2.8-5.5-5.8-10.9-8.1-16.7-1.1-2.7-2-5.5-2.7-8.3-.5-2.1-1.2-4.9-.5-7 .9-2.2 2.1-4.2 3.6-6.1 1.7-2.4 3.1-5 4.2-7.7 1.3-3.4 1.8-7.2 2.4-10.9.7-4 1.4-8 1.9-12.1a389 389 0 0 0 3.2-72.6c-.7-18.3-2.4-36.6-4.6-54.7l-1.1 1.6 26.9-5.2-2-1.2a307 307 0 0 1-.2 173.6c-4.3 14.5-9.2 29.8-19.9 40.8-1.4 1.5.8 3.8 2.2 2.3l.1-.1ZM65 156.4c-3.9-1.5-5.4-5.9-6.8-9.9-1.2-3.7-1.8-8-.1-11.5s6.1-5.9 9.5-4.1c-1.2-4.2-2-8.8-.1-12.7s7.8-5.6 10.4-2.1c.3-3.5 1.1-6.9 2.4-10.1 1.4-3.1 4-5.9 7.3-6.7s7.2.9 8.2 4.3c1.9-4.2 6.8-6 11.3-6.9 2.4-.5 5.1-.8 7.2.4s3.4 4.5 1.7 6.3c3.5-.2 7.2-.5 10.4 1.1s5.5 5.6 4.1 8.8c3.5-.5 7.1 0 10.3 1.5 1.8.7 3.2 2 4.1 3.7.4.9.5 1.8.3 2.8-.2.9-.7 1.8-1.5 2.4a5.4 5.4 0 0 1 5.7 4.1c.3 1.3.1 2.7-.5 3.9s-1.6 2.1-2.8 2.6c2.9-.4 5.6 2.3 6 5.3.2 3-1.1 6-3.4 8a27.7 27.7 0 0 1-7.6 4.5c-3-3.3-7.3-6.9-11.3-4.9-1.2.6-2.3 1.7-3.6 1.8-3.3.1-3.8-5.4-6.8-6.9-3.7-1.8-7.9 3.8-11.7 2.1-1.6-.7-2.5-2.6-4.2-3.2-3.2-1.1-5.7 3.4-9 4.1-2.5.5-5.2-1.3-7.6-.4-3.7 1.4-3.4 7.5-6.8 9.5-2.3 1.3-5.1.1-7.4-1.1-.6 2.1-1.3 4.3-3.1 5.5s-4.7 0-4.6-2.2" class="cls-5"/>
        <path d="M65.4 154.9c-2.2-.9-3.5-3.1-4.4-5.3a30.7 30.7 0 0 1-2.3-8c-.3-2.7.1-5.7 2-7.7 1.5-1.6 4-2.7 6.1-1.6.5.3 1.2.3 1.7-.1l.5-.8.1-.9c-1.1-3.7-2.3-9.1.4-12.4 1.7-2.1 5.3-3.3 7.3-.9l.7.4c.3.1.5.1.8 0l.7-.4.4-.7c.7-4.9 1.4-10.4 5.3-13.9.7-.7 1.6-1.2 2.5-1.5s1.9-.4 2.9-.3c.9.1 1.8.4 2.5 1s1.3 1.3 1.7 2.2c.4 1.2 2.2 1.7 2.9.4 1.8-3.8 5.9-5.2 9.6-6 2.1-.5 4.8-1.1 6.8 0 1.1.6 2.4 2.6 1.4 3.8-.8 1-.4 2.9 1.1 2.8 3.3-.2 7.1-.6 10 1.1 2.3 1.3 3.9 4.1 2.9 6.8-.5 1.3.9 2.1 1.9 2 3.3-.5 6.7.1 9.7 1.6 1.3.6 2.3 1.6 3 2.8.2.5.3 1.1.2 1.6s-.4 1-.8 1.4c-1.2.8-.9 3.1.8 3 .9-.1 1.9.1 2.7.6a4 4 0 0 1 1.6 2.3c.2.9 0 1.8-.4 2.6s-1.1 1.4-1.9 1.8c-.4.1-.7.4-.9.7s-.3.7-.2 1.1c0 .4.2.7.5 1s.6.4 1 .4c.8-.1 1.6 0 2.3.4s1.3 1 1.6 1.8c.4.8.5 1.7.5 2.7a6 6 0 0 1-.7 2.6c-1.9 3.8-5.9 5.5-9.4 7.2l1.9.2a18.2 18.2 0 0 0-8-5.7 7.7 7.7 0 0 0-4.5.1c-.8.3-1.5.7-2.2 1.2-.5.3-1.1.8-1.8.7-.8-.2-1.4-1.2-1.8-1.9a32 32 0 0 0-1.9-3.1c-.8-1-1.8-1.7-3-2s-2.4-.3-3.6.2c-1.2.5-2.5 1-3.6 1.6-1 .6-2.1.8-3.2.7-1.3-.3-2.1-1.8-3.2-2.5a6 6 0 0 0-1.8-.9c-.7-.2-1.3-.2-2-.1-2.7.5-4.3 2.9-6.7 3.9-1.3.6-2.7.1-4.1-.2a7.5 7.5 0 0 0-5.1.3c-2.5 1.3-3.3 4.1-4.4 6.6a5.8 5.8 0 0 1-2.1 2.8c-1.8 1-4.2-.2-5.9-1.1l-.7-.2-.7.1-.6.4-.3.6c-.4 1.5-1 3.7-2.4 4.5-.6.4-2.4.4-2.4-.6 0-2.1-3.2-2.1-3.1 0 .1 3 3 4.6 5.7 4 3.1-.7 4.5-4.2 5.3-7l-2.3 1c2.9 1.4 6.5 2.9 9.5.7 2.1-1.5 2.8-4 3.8-6.2.3-.9.9-1.8 1.6-2.5 1.3-1 3.1-.3 4.5 0 1.4.4 2.9.4 4.3 0 1.3-.5 2.4-1.2 3.5-2.1.9-.9 2-1.5 3.1-1.9 1.3-.2 2.1 1.1 3 1.8 2.2 2 4.6 2.1 7.3 1 1.8-.8 4.7-3 6.6-1.6 1.7 1.2 2.3 3.7 3.6 5.2.4.5 1 .9 1.6 1.2s1.2.4 1.9.4c1.9-.1 3.1-1.6 4.8-2.1 3.4-1.2 7 2.6 9 4.8.2.2.6.4.9.4.3.1.7 0 1-.2 4.8-2.1 10.1-5 11.5-10.7 1.1-4.8-2.1-10.6-7.3-10.1l.4 3.2a7.5 7.5 0 0 0 4.5-8.1 7.4 7.4 0 0 0-2.6-4.3c-1.4-1-3-1.5-4.7-1.4l.8 3c3.8-2.7 2.5-7.8-.7-10.3-3.9-3-9.1-3.8-13.8-3.1l1.9 2c1.4-3.6-.5-7.5-3.4-9.8-3.6-2.7-8.4-2.5-12.5-2.2l1.1 2.8a5.7 5.7 0 0 0-.1-7.2c-2-2.6-5.2-3-8.2-2.6-5.4.7-11.8 2.6-14.4 8l2.9.4c-1.9-5.5-8.4-7-13-4.2-5.7 3.5-7.1 10.5-8 16.7l2.6-.7c-2.9-3.6-8.4-2.5-11.3.4-4.2 4.1-3 10.9-1.6 16l2.3-1.8a8 8 0 0 0-8.9 1.3 11.4 11.4 0 0 0-3.9 9.4c.2 3.7 1.1 7.3 2.6 10.7 1.3 3.2 3.3 5.8 6.4 7.1 1.9 1.2 2.7-1.9.8-2.6Z" class="cls-5"/>
        <path d="M28 87.3c1.2-27.1 1.5-54.3.8-81.5 50.8-2.4 101.7-1.9 152.5 1.3l-2.4 78.3c-15.7.3-31.4-.1-47.1-.1-19.4-.1-38.7 1.3-58.2 1-6.4-.1-14.6-.7-21-.3-8.9.6-16.6 1.4-24.6 1.3" class="cls-6"/>
        <path d="M29.6 87.3c1-21.2 1.3-42.3 1-63.5l-.3-18-1.5 1.6A1471.7 1471.7 0 0 1 147.9 7c11.1.5 22.3 1 33.4 1.8l-1.6-1.6-1.9 60.9-.5 17.4 1.6-1.6c-20.4.4-40.7-.4-61.2 0-10.2.2-20.4.7-30.6.8H72c-4.4-.1-8.8-.4-13.2-.4-10.3-.1-20.5 1.5-30.8 1.4-.4 0-.8.2-1.1.5-.6.6-.6 1.6 0 2.3.3.3.7.5 1.1.5 9.2 0 18.3-1.2 27.5-1.4s18.3.5 27.5.4c10.2-.1 20.4-.5 30.6-.8s20.6-.3 30.9-.2c11.5.1 23 .2 34.5 0 .4 0 .8-.2 1.1-.5s.5-.7.5-1.1l1.9-60.9.5-17.4c0-.4-.2-.8-.5-1.1s-.7-.5-1.1-.5A1310.4 1310.4 0 0 0 62.3 3c-11.1.3-22.3.6-33.4 1.2-.4 0-.8.2-1.1.5-.3.3-.5.7-.5 1.1.6 21.2.5 42.3-.1 63.5l-.7 18c-.1 2 2.9 2 3.1 0Z" class="cls-5"/>
        <path d="M22.5 101.9c-1.5-14.2-2.8-29.3 3.4-42.1.3-.5.6-1.1 1.2-1.2.9-.2 1.5 1.1 1.7 2 .8 4.3 1.1 8.8 1 13.2.5-6.4 2-13.1 6.7-17.4.6-.6 1.7-1.1 2.2-.3.2.3.2.7.2 1.1l-.7 16.3c1.1-3.5 3-6.7 5.6-9.3a21 21 0 0 1 9.2-5.4l-7.1 18.6c3.9-2.5 8.6-3.5 13.2-2.9.4 0 .7.2 1 .5l.2.8-.2.7c-1.7 3.9-5.6 6.2-8.5 9.3-4.6 4.8-7 11.5-10.7 17.1-.4.7-1 1.3-1.7 1.8-.6.2-1.2.4-1.8.4-5.1.2-10.2-1.3-14.4-4.2" class="cls-4"/>
        <path d="M24.1 101.9c-1-9.3-2-18.8-.7-28.1.3-2.3.8-4.5 1.4-6.7l1-3.1.7-1.7.8-1.7c.3-.3.2-.5-.4-.4l.1.3.4 1.7.5 4.1c.2 2.5.3 5.1.3 7.6 0 2.2 3 2 3.1 0a26 26 0 0 1 5-15l1.2-1.3c.4-.5.8 0 .1-.5s-.4.1-.4.6L37 63l-.4 10.5c0 .9.7 1.6 1.5 1.6.7 0 1.4-.5 1.6-1.2a20.8 20.8 0 0 1 13.6-13.5l-1.9-2L44.3 77c-.5 1.3 1.2 2.5 2.3 1.8 1.8-1.1 3.7-1.9 5.7-2.4 1-.2 2.1-.4 3.1-.4l3.1.1c1-.2-.3 0 .1-.4l-.3.5-.7 1.2a22 22 0 0 1-2 2.3l-4.2 3.9a37.8 37.8 0 0 0-7.1 9.8l-3 5.6c-.9 1.7-1.9 4.2-3.9 4.3-4.8.2-9.6-1.2-13.6-4-1.7-1.1-3.2 1.6-1.6 2.8 4.2 2.9 9.3 4.5 14.4 4.5 1.2.1 2.4-.2 3.4-.7 1-.7 1.8-1.7 2.4-2.8 1.4-2.1 2.6-4.5 3.8-6.8 2.2-4.4 5.1-8.4 8.7-11.7 1.8-1.5 3.5-3.1 4.9-4.9 1.2-1.6 3-4.4 1-6.1-1-.9-2.5-.8-3.7-.9A22 22 0 0 0 44.9 76l2.3 1.8 7.3-18.6c.3-.8-.2-1.7-1.1-2h-.9a23.4 23.4 0 0 0-15.9 15.9l3.1.4.6-13.1c.1-1.7.7-4.3-.7-5.6s-3-.5-4.1.5c-5.2 4.4-6.7 12-7.3 18.6h3.1c0-2.4 0-4.8-.2-7.1-.1-2.3-.4-4.6-.9-6.8-.5-1.7-1.7-3.2-3.5-2.9s-2.6 2.9-3.2 4.4c-3.3 8-4 16.8-3.7 25.4.2 5 .7 10 1.2 15.1.2 2 3.3 2.1 3.1-.1Z" class="cls-5"/>
        <path d="M186.2 105.4c1.5-14.2 2.8-29.3-3.4-42.1-.2-.5-.6-1.1-1.1-1.2-1-.2-1.5 1.1-1.7 2-.7 4.4-1.1 8.8-1 13.2-.5-6.4-2-13.2-6.7-17.4-.6-.6-1.7-1.1-2.2-.3-.2.3-.2.7-.2 1.1l.7 16.3c-1.1-3.5-3-6.7-5.6-9.3a21 21 0 0 0-9.2-5.4l7.1 18.6a19.8 19.8 0 0 0-13.2-2.9c-.4 0-.7.2-1 .5a1 1 0 0 0-.1.8l.2.7c1.7 3.9 5.5 6.2 8.4 9.3 4.6 4.8 7 11.5 10.7 17.1.4.7 1 1.3 1.7 1.8a4 4 0 0 0 1.8.4c5.1.2 10.2-1.3 14.4-4.2" class="cls-4"/>
        <path d="M187.8 105.4c.9-8.7 1.8-17.5.9-26.2-.4-4.3-1.3-8.5-2.7-12.5-.6-1.7-1.3-4.1-2.6-5.4-.3-.3-.7-.5-1.1-.6l-1.2-.1c-.4.1-.8.2-1.1.5l-.8.9a9 9 0 0 0-.9 3.2l-.5 4c-.3 2.7-.4 5.4-.3 8.1h3.1c-.6-6.6-2.1-14.2-7.3-18.6-1.1-1-2.8-1.6-4.1-.4s-.8 3.7-.7 5.3l.6 13.4 3.1-.4c-1.2-3.8-3.2-7.2-6-10s-6.1-4.8-9.9-5.9c-.9-.2-1.7.3-1.9 1.2-.1.3-.1.5 0 .8l7 18.6 2.3-1.8a20.8 20.8 0 0 0-14.5-3.1c-2.7.6-2.4 3.2-1.3 5.2 1.2 2 2.8 3.8 4.6 5.4 1.8 1.5 3.5 3.2 5 5 1.5 2 2.9 4.1 4 6.3l3.6 6.6c1.3 2.2 2.4 4.5 4.9 5a24.8 24.8 0 0 0 16.7-4.3c1.7-1.1.1-3.9-1.6-2.8a22.9 22.9 0 0 1-11.8 4c-1 0-2.3.2-3.1-.4a8.7 8.7 0 0 1-1.8-2.6l-3-5.4a46.5 46.5 0 0 0-6.8-10.2c-2.6-2.8-6.2-4.9-8-8.4-.1-.2-.1-.4-.3-.5-.1-.3-.2-.2-.3.3h.3l1.8-.1c3.6-.1 7.1.9 10.2 2.9 1.1.7 2.8-.5 2.3-1.8L157.5 62l-1.9 2a20.4 20.4 0 0 1 13.7 13.6c.3.8 1.2 1.3 2 1.1.7-.2 1.1-.8 1.1-1.5l-.4-10.5-.2-5v-1.2l-.8.6.4.2 1.4 1.4c3.5 4 4.5 9.8 5 15 .2 2 3.1 2.2 3.1 0a96.5 96.5 0 0 1 .8-11.7l.3-1.5.2-.4c-.5 0-.6.1-.4.4 0 .4.6 1.3.8 1.7l.7 1.7 1 3c.5 2.2 1 4.3 1.2 6.6 1.3 9.3.3 18.8-.6 28.1-.5 1.9 2.7 1.8 2.9-.2Z" class="cls-5"/>
        <path d="M64.2 109.2a18 18 0 0 1 .3-11.5c.2-.3.4-.7.8-.7l.4.1.3.3c1.3 1.5 1.3 3.7.8 5.6-.6 2.1-1.5 4.2-2.6 6.2Z" class="cls-3"/>
        <path d="M65.7 108.7c-.5-1.7-.8-3.6-.8-5.4l.1-1.5.1-.6c.1-.2 0-.2 0-.1l.1-.4.3-1.4.2-.6c.1-.2.1-.2 0-.1l.1-.3.1-.3-.1.1c-1.1-.3-1.3-.3-1 .1l.1.1.5 1.1v2.3a25 25 0 0 1-2.5 6.4c-.2.4-.3.8-.2 1.2.1.4.4.8.7 1 .4.2.8.3 1.2.2.4-.1.8-.4 1-.7 1.9-3.7 4.5-8.6 2.3-12.7-.6-1.1-1.6-2.1-2.9-1.9s-1.7 1.3-2.1 2.4c-.6 1.8-1 3.6-.9 5.5 0 2.1.3 4.2.9 6.3.1.4.4.8.7 1 .4.2.8.3 1.2.2.4-.1.7-.4.9-.8v-1.1Zm-6.3 4.2a15.7 15.7 0 0 1-5.6-6.6l-.4-1.1c-.1-.4 0-.7.1-1.1.2-.4.5-.7.8-.9.4-.2.8-.2 1.2-.1.4.1.8.3 1.1.6l.8 1c.4.7.7 1.5.8 2.4l1.5 5.9" class="cls-3"/>
        <path d="m60.2 111.5-.8-.6-.2-.1-.4-.3-1.4-1.5-.3-.4-.1-.2-.1-.1c.1.1 0-.1 0-.1l-.2-.2-.3-.4-1-1.8-.1-.3c.1.2 0-.1 0 0l-.1-.4v-.2c.1-.2-.2.2 0 0l.1-.1c.2-.1-.2 0 .1 0h.2-.1l.3.1.2.1.2.1.2.2.3.5.1.2c-.1-.1 0 .1 0 .1l.2.5.3 1.2 1.5 5.7c.1.4.4.8.7 1 .4.2.8.3 1.2.2.4-.1.7-.4.9-.8s.2-.8.1-1.2l-1.6-6c-.6-2-1.4-4.1-3.5-4.8-.5-.2-1-.2-1.5-.1s-1 .3-1.4.6-.8.7-1 1.2-.4 1-.4 1.5c.1 1.1.4 2.1 1 3a18 18 0 0 0 5.8 6.5c.4.2.8.3 1.2.2.4-.1.8-.4 1-.8.2-.4.3-.8.2-1.2-.1-.4-.4-.8-.7-1l-.6-.3Z" class="cls-3"/>
        <path d="M142.5 6.6c1.9 2 2.6 2.5 3.9 4.8a7.7 7.7 0 0 1 0 7.5c-1.4 2.5-4.1 4.2-4.7 7-.4 1.9.2 3.9.9 5.7 1 2.7 2 5.5 4.1 7.4 3.1 2.8 7.8 2.9 12 2.7 2-.1 4.4-.1 5.6 1.5.9 1.2.9 2.9 1.4 4.4a7 7 0 0 0 2.3 2.8c1 .7 2.1 1.1 3.4 1.3 2.4.2 4.8 0 7.2-.7 1.6-14.5 2-29.1 1-43.7-12 0-24.5-.9-37.1-.7" class="cls-4"/>
        <path d="M141.4 7.8c1.5 1.6 3.3 3.2 4.1 5.4.9 2.5 0 4.8-1.6 6.8-1.5 1.8-3.1 3.5-3.6 5.8-.6 2.9.7 5.8 1.7 8.4.8 2.4 2.2 4.6 4.1 6.4 1.9 1.5 4.2 2.5 6.6 2.7 2.4.2 4.9.2 7.3.1 1-.1 2.1.1 3 .6.9.8.9 2.2 1.2 3.3a9.8 9.8 0 0 0 2 3.6c1 1 2.2 1.7 3.5 2.1 3.1 1.1 6.4.4 9.5-.3.3-.1.6-.3.8-.6a245.3 245.3 0 0 0 1.3-44.7c0-.4-.2-.8-.5-1.1s-.7-.5-1.1-.5c-12.3 0-24.7-.9-37-.8-.4 0-.8.2-1.1.5-.7.7-.7 1.7-.2 2.3.4.4.8.5 1.2.5 12.3-.2 24.7.7 37 .8L178 7.5c.9 14.6.6 29.2-1.1 43.7l1.2-1.6c-2.6.6-5.6 1.3-8.2.1-.9-.4-1.7-1-2.3-1.8-.7-1.1-.7-2.5-1.1-3.7-1.7-5.3-7.4-3.8-11.5-3.9-2.3 0-4.5-.6-6.5-1.8-2.1-1.5-3.1-4-4-6.4s-2-5-.4-7.5c1.2-1.8 3-3.2 4-5.2a9.7 9.7 0 0 0 .1-8 19.7 19.7 0 0 0-4.5-5.8c-.3-.3-.7-.4-1.1-.4s-.8.2-1.1.5c-.6.6-.6 1.6 0 2.2l-.1-.1Z" class="cls-5"/>
        <path d="M96.2 85c.3-1.9 1.7-3.4 2.4-5.2 1.4-3.9-1.2-8-3.9-11.1s-5.9-6.4-5.7-10.6a9.4 9.4 0 0 1 5.2-7.5c2.8-1.4 6-2.1 9.1-2.1.9 0 1.8-.2 2.5-.6 2.2-1.4 1-4.9.9-7.5-.1-.5.1-1 .4-1.5.3-.3.7-.5 1.1-.6 3.6-1.2 7.5-.7 10.7 1.3 1.6 1 2.9 2.4 3.8 4.1.9 1.7 1.4 3.6 1.4 5.5 0 3.3-1.6 6.4-3.5 9.1a9 9 0 0 0-1.8 3.8c-.1 2.4 2 4.2 4 5.2s4.4 1.8 5.7 3.8c.6.9.9 1.9 1 3s-.1 2.2-.4 3.2c-.8 2-1.9 3.9-3.3 5.5a3.7 3.7 0 0 1-3.8 1.8l-25.2-.4" class="cls-4"/>
        <path d="M97.7 85.4c.4-2.3 2.3-4 2.7-6.4a11 11 0 0 0-1.5-7.1c-2.3-4.2-7.1-7.2-8.2-12.1-1.2-5.1 3.8-8.3 7.9-9.2 1.3-.3 2.5-.4 3.8-.5 1.2 0 2.5-.2 3.6-.6 2-.9 2.7-2.9 2.7-5 0-1.1-.2-2.2-.3-3.2 0-.3-.2-1.2-.1-1.5s1.3-.4 1.6-.5a12 12 0 0 1 7.2.8 10 10 0 0 1 5 12c-.8 2.5-2.4 4.4-3.7 6.6-.6 1-1 2.1-1 3.2s.3 2.3.9 3.2c1.3 1.8 3.1 3.2 5.2 4 1.9.9 4.1 1.9 4.5 4.3.4 2.9-1.3 5.5-3 7.5a5 5 0 0 1-1.4 1.5 5 5 0 0 1-2.1.1l-4.6-.1-20-.4c-.4 0-.8.2-1.1.5-.6.6-.6 1.6 0 2.3.3.3.7.5 1.1.5l19.6.3 4.6.1c1.4.2 2.7 0 4-.5 1-.6 1.9-1.5 2.5-2.5a22 22 0 0 0 2.4-3.8 9.8 9.8 0 0 0 .7-7.7c-.9-2.4-2.9-3.8-5.1-4.9-1.8-.8-5-2-5.2-4.3-.1-1.2.9-2.4 1.6-3.3.9-1.2 1.6-2.6 2.3-3.9 2.2-5 1.8-10.6-2-14.8a14 14 0 0 0-14.5-3.6c-2.7.9-2.7 3.1-2.4 5.7.2 1.1.3 2.2.2 3.2-.3 1.3-1.6 1.2-2.7 1.3-5.2.3-10.9 1.6-13.9 6.4-3.4 5.4-.2 10.9 3.4 15.1 2 2.3 4.3 4.7 4.9 7.8s-2.1 5.3-2.6 8.3c-.4 2.3 2.6 3.2 3 1.2Z" class="cls-5"/>
        <path d="M32.6 314.9a242.8 242.8 0 0 1-26.3-79.4 308 308 0 0 1 0-88.9 421 421 0 0 1 4.3-25l2.8-12.4c.4-1.5 1.6-10.3 4.5-8.4 1.7 1.1 3.3-1.7 1.6-2.8-2.8-1.8-5.9.3-7.1 3-.6 1.5-1.1 3.1-1.4 4.8l-1.4 6A367.4 367.4 0 0 0 .1 182c-1 30 2.3 60.3 10.9 89.1A225.2 225.2 0 0 0 30.2 317c.3.3.7.4 1.2.3l.6-.2.5-.4.3-.6v-.6l-.2-.6Z" class="cls-3"/>
        <path d="M21 99c-1.1-7.5-1.3-15.1-.7-22.6.3-3.7 1-7.4 2-11 .8-3 1.8-6.9 4.4-8.8 1.7-1.2.1-4-1.6-2.8-3 2.2-4.3 5.7-5.4 9.1-1.2 3.9-2 8-2.5 12.1a98 98 0 0 0 .7 24.8c.1.4.4.8.7 1 .4.2.8.3 1.2.2s.7-.4.9-.8c.3-.3.4-.8.3-1.2Z" class="cls-3"/>
        <path d="m28.2 55.8-.3-52-1.6 1.6a1242.7 1242.7 0 0 1 122-1.4c11.4.4 22.8.9 34.2 1.6 2 .1 2-3.1 0-3.2a1376.5 1376.5 0 0 0-156.1-.2c-.4 0-.8.2-1.1.5-.3.3-.5.7-.5 1.1l.4 52c0 .4.1.8.4 1.2.6.6 1.6.6 2.2 0 .2-.4.4-.8.4-1.2Z" class="cls-3"/>
        <path d="M181.9 5.3c.8.4.7 2.2.6 3l-.1 3.1-.2 7-.5 13.6-1 27.4c-.1 2.1 3.1 2.1 3.1 0l1-29.5.5-14.6c.1-2.4.3-4.9.2-7.3 0-1.9-.4-4.3-2.2-5.3s-3.3 1.7-1.4 2.6Z" class="cls-3"/>
        <path d="M181.7 60.9c1.6.3 2.4 1.6 2.9 3.1a93.6 93.6 0 0 1 2.9 37.6c-.2 2 2.9 2 3.1 0a98 98 0 0 0-2.4-36.1c-.9-3.2-2.1-7.1-5.8-7.7-1.8-.4-2.7 2.7-.7 3.1Z" class="cls-3"/>
        <path d="m189.5 103.2 3.5-.2-1.5-1.2a320.3 320.3 0 0 1 11.4 127 256 256 0 0 1-8.9 43.3 210.2 210.2 0 0 1-16.6 40.2l-2.7 4.8c-.4.8-.2 1.7.6 2.2.4.2.8.3 1.2.2.4-.1.8-.4 1-.8a203.7 203.7 0 0 0 17.9-40.2c4.6-14.2 7.9-28.7 9.9-43.5a314.2 314.2 0 0 0-9.4-129.2l-1.4-4.8c-.1-.3-.3-.6-.6-.8s-.6-.3-1-.3l-3.5.2c-2 .1-2 3.3 0 3.2l.1-.1ZM52.6 90.4c26 1.3 52 .8 78 .2l21.8-.5c2 0 2-3.3 0-3.2-25.9.6-51.8 1.5-77.7 1.1a808 808 0 0 1-22-.7c-2-.2-2 3-.1 3.1Z" class="cls-3"/>
        <path d="M151.1 89.6c2.6 2.9 5 6 7.2 9.2 1.1 1.6 2 3.3 2.8 5 .6 1.7 1.7 3.1 3 4.3.4.2.8.3 1.2.2s.8-.4 1-.8c.2-.4.3-.8.2-1.2s-.4-.8-.7-1c-1.2-.9-1.7-2.7-2.4-4l-2.9-4.9c-2.2-3.1-4.6-6.1-7.2-9-1.3-1.5-3.5.7-2.2 2.2Zm-99.6-2.2c-3.7 4.7-5.6 10.5-9.4 15.1-.3.3-.4.7-.4 1.1s.2.8.4 1.1c.6.6 1.6.6 2.2 0 3.8-4.6 5.7-10.4 9.4-15.1.6-.7.6-1.6 0-2.3-.3-.3-.7-.5-1.1-.5-.4.1-.8.2-1.1.6Z" class="cls-3"/>
        <path d="M44.8 105.3c-.3.3-.1 0-.1.5v1.4l-.3 4.3-.6 8-1.2 16c-.8 10.7-1.4 21.3-1.8 32-.7 20.6-.3 41.2 2.5 61.6 1.6 11.3 4 22.6 7.3 33.5.3.8 1.2 1.2 2 .9.7-.3 1.1-1 1-1.7a242.3 242.3 0 0 1-9.8-63.4c-.8-22.2.6-44.5 2.2-66.7l1.4-18.7.4-4.8c.2-1.3.2-2.6-.2-3.8-.2-.5-.4-1-.8-1.3-.4-.4-.8-.6-1.3-.8H44c-.5.1-1 .4-1.3.7-1.5 1.5.7 3.8 2.1 2.3Zm119-1c-3.3 2.2-3.5 6.4-3.1 10.2l1.6 16a481.1 481.1 0 0 1-2.7 114.7c-.8 5.6-1.6 11.3-4.2 16.3-1 1.8 1.7 3.5 2.7 1.6 2.3-4.3 3.3-9 4-13.8a423 423 0 0 0 4.8-47.4 519.2 519.2 0 0 0-2.5-81.4c-.3-2.7-.7-5.4-.8-8-.1-1.9 0-4.3 1.7-5.4s.2-3.9-1.5-2.8Z" class="cls-3"/>
        <path d="M117.6 236.9c3.8-.2 7.1-2 10.3-4a55.4 55.4 0 0 0 20.3-22.6c3.3-7 5-14.6 5-22.3 0-2.1-.2-4.1-.4-6.1l-.4-2.9c0-.9.8-1.7 1.3-2.4 2.4-3.1 4.4-6.5 5.9-10.1 1.6-4 1.6-8.6-.2-12.6-.9-1.7-2.1-3.1-3.6-4.3a12 12 0 0 0-5.1-2.1c-2-.3-2.8 2.8-.8 3.1 1.5.2 2.9.8 4.1 1.6 1.2.9 2.2 2.1 2.9 3.4 1.5 3.2.9 7.1-.4 10.3-1.4 3.4-3.6 6.4-5.7 9.3a5.6 5.6 0 0 0-1.3 4.3c.2 2 .6 3.9.7 5.9a50.1 50.1 0 0 1-22.1 43.5c-3.1 2.1-6.6 4.5-10.4 4.7-2.1.2-2.1 3.5-.1 3.3Zm-29-2.7a41.6 41.6 0 0 1-26.8-24.8c-1.3-3.4-2-7-2.1-10.7-.1-3.8.5-7.6.4-11.5 0-3.3-.8-6.5-2.3-9.5-1.4-2.7-3.2-5.1-4.7-7.8-1.6-2.8-2.7-6-1.6-9.3a9.3 9.3 0 0 1 6.8-6c2-.4 1.2-3.5-.8-3.1a12.2 12.2 0 0 0-9.3 14.3c1.3 6.7 7.1 11.2 8.5 17.8.8 4.1.1 8.3-.1 12.4a36 36 0 0 0 1.3 11.3 43.7 43.7 0 0 0 29.8 29.8c.4.1.8 0 1.1-.2.4-.2.6-.6.7-1 .1-.4.1-.8-.1-1.2l-.8-.5Z" class="cls-3"/>
        <path d="M151.6 150.5c2.6-2.9 5.2-6.3 5.3-10.5.1-1.7-.4-3.4-1.3-4.9a7.4 7.4 0 0 0-3.8-3.2l1.1 2c1.1-3 2-6.4.6-9.5a6.4 6.4 0 0 0-2.4-3 5.8 5.8 0 0 0-3.6-1l1.5 2c1.4-3.8-.4-8-3.3-10.4-3.4-2.8-8-3.2-12.2-3l1.5 1.2a14.6 14.6 0 0 0-16.2-11.5l1.9 1.1c-1.6-5.1-6.9-7.2-11.7-7-4.6.2-10.6 1.3-13.8 5.2l1.5-.4a22.8 22.8 0 0 0-8.1-1.9c-2.6 0-5.2 1-7.2 2.8a19.2 19.2 0 0 0-6.6 13.4c-.1 2.1 3 2 3.1 0 .4-4.2 2.3-8 5.4-10.8 3.7-3.4 8.4-1.9 12.5-.4.3.1.6.1.8 0l.7-.4c2.4-3.1 7-3.9 10.6-4.2s8.4.4 9.6 4.5c.1.4.4.7.8.9.4.2.8.3 1.2.1 5.7-.8 11.2 3.6 12.3 9.2l.6.9c.3.2.6.3 1 .3 3.3-.2 6.9-.1 9.7 1.8 1.2.8 2.1 1.9 2.6 3.2.5 1.4.5 2.8.1 4.2v.7c0 .2.1.5.3.7l.6.5.7.2c.8 0 1.6.2 2.2.7.6.5 1.1 1.2 1.2 2 .6 2.1-.3 4.6-1 6.7-.2.9.2 1.7 1.1 2 2.1.8 3 3.6 2.7 5.7-.4 3-2.4 5.4-4.3 7.5-1.3 1.8.9 4.1 2.3 2.6Z" class="cls-3"/>
        <path d="M76.4 110.5c-2.5-.2-5.1-.4-7.5.6a8.6 8.6 0 0 0-4.6 4.6 20 20 0 0 0-1.6 6.4c-.3 2.4-.3 4.8 1.4 6.6l1.1-2.8c-6-.5-10 5.2-11.3 10.5a21 21 0 0 0 2.3 16.1c.4.7 1.4 1 2.2.5.7-.4 1-1.4.5-2.2a18.2 18.2 0 0 1-2.2-12.9c.9-4.3 3.6-9.3 8.5-8.9l.9-.3.6-.7a2 2 0 0 0-.3-1.8c-1-1.1-.7-3.2-.5-4.6.2-1.7.6-3.3 1.3-4.8 1.9-3.7 5.7-3.6 9.2-3.2 2 .3 2-2.9 0-3.1Z" class="cls-3"/>
        <path d="M30.3 8c1.1 4.2 2.2 8.7 5.5 11.5 2.1 1.7 4.7 2.8 7.4 3.1 4.5.8 9.2.6 13.7-.7 1.7-.5 3.5-1.1 5.2-.7s3.2 2.2 4.8 3.3a11.2 11.2 0 0 0 14.2-1c4.2-4.2 4.6-11 4.7-17-18.2.5-36.5 1.4-54.7 2.7" class="cls-4"/>
        <path d="M28.8 8.4c1.3 5.3 3 10.8 7.9 13.7 5.2 3 12 3 17.6 2 2.9-.5 6.2-2.5 8.9-.5 2.1 1.5 3.8 3.3 6.4 4.1 2.3.7 4.8.7 7.2 0 2.4-.7 4.5-2 6.1-3.9 3.9-4.8 4.2-11.3 4.3-17.3 0-.4-.2-.8-.5-1.1s-.7-.5-1.1-.5c-18.3.5-36.5 1.4-54.7 2.7-2 .1-2 3.4 0 3.2 18.2-1.3 36.5-2.2 54.7-2.7L84 6.5c0 4.7-.1 9.8-2.6 13.9a10.7 10.7 0 0 1-4.9 4c-2 .7-4.2.8-6.3.1-2.2-.7-3.6-2.4-5.5-3.7-2.3-1.7-4.9-1.5-7.5-.8-5.4 1.5-11.2 2-16.7.3-2.6-.8-4.9-2.6-6.2-5-1.2-2.4-2.1-5-2.6-7.7-.4-2-3.5-1.1-2.9.8Z" class="cls-5"/>
      </g>
    </g>
  </g>
</svg>
