<svg xmlns="http://www.w3.org/2000/svg" fill="none" viewBox="0 0 1440 164">
  <g clip-path="url(#a)">
    <path stroke="#444" stroke-linecap="round" stroke-linejoin="round" stroke-width=".8" d="m1260 121.8-1.4-1.2s1 1.9.2 2.4-1.2.6-2.6.2c-1.4-.4-.7-.8-2.4-.4-1.8.4-.7.8-2.8.5-2-.3-2.2 1.6-2-.3.1-1.8 1.8-2.8.1-1.8-1 .5-2 1-3 1.3 0 0-3-2.3-2.7-2.5.3-.3 2.2 2.8 1.5 3.4-.6.7-2.4.3-3.2.2-.9-.2-1.8-.4-2.3 0-.5.6-.9 1.4-1.4.7-.5-.6 2.1-.4-.5-.6-2.6-.3-3.8.5-4.5-.3-.7-.8-.8-1.4-1.9-1.2-1.2.2-2.3.6-3.4 1-.7.6-1.8.4-4.7 0-3-.2-6.8.6-7.5 0l-.6-.4c-1.4 1.3-.2 2.2-1.4 1.3-1.2-1-1.2-2.3-2-1.7l-.6.5s-4.7-2.5-5-2.1c-.3.4 1.5 1.2 1 2-.6.8-1.6.8-3 .5-1.3-.3-2 .3-3.2.3-1.3 0-.7-.7-2.8-.4l-3 .4s-1.7-1.5-.8-2.2c.9-.6-1.2-.9-2 0-.6 1-2.5 2.7-3.4 2.5-.8-.1-5 0-5.7-.2-.7-.3 1.2-2.8.5-3.2-.7-.4-3.4.4-3.8 1.6-.3 1.2-2.2-.8-2.2-.8s-.7 1.9-1.4 2.1a11 11 0 0 1-4 .3c-1.7-.1-4.3-.1-5.2-.5-.9-.4.2-1.1-2.2-.3-2.5.8-2.5 1.7-3.5.8-1-1-.3-1.6-1.9-1m-31.1-.2a4 4 0 0 1-2.2.2c-.8-.3-1.5-.3-2.3-.2-1 .1-1.9.6-2.4.2-.5-.4-1.3-1.2-1.5-1-.2 0 .6.5.4.8-1 .4-2 .4-3 .2-.5-.3-1-.7-1.3-1.2 0 0 .5 1 0 1h-3.4c-1.3 0-1.6.4-2 0-.2-.2.6-1.3 1-1.4.6-.1-1.5.1-2 1-.5.8-1.8 1.3-2.2.9l-1.3-1.7s1 1 .4 1.3c-1.6.2-3.2.3-4.8.1m-87.6.5s-2.8-1.1-4-1c-1.3.1-2 .1-1.2-1.3l.8-1.3a25 25 0 0 0-2.8 2.5c-1.1 1.2-2.3-.8-2.1-1.7.3-.8.5 2.8-.5 2.8s-3.7-1.2-5.1-.5c-1.4.6-3.2 1.2-3.2.2s1-2.6.6-2.7c-.5-.1-1.9 1-2.1 2-.3.8-2.5-1.9-2.5-1.9s2.4 3 1.2 3.1c-1 .1-4 .6-4.8.2-.8-.3.2-.5-1.8-.6-2-.1-2.2-1.6-3.6-1.2-1.3.3-2 .2-3.2 1-1.2 1-4 .2-6 .3-2 .1-.9-.1-2 .1-1.1.3-2 1-2.5.3-.5-.8-1-.9-1.2-.4-.3.5.8.7-.3.5-1.1-.3-2-2.5-2-2.5s.4 1.6-.5 1.3a9 9 0 0 1-2.5-1.5l-.8-.8s.4 1.9-.5 2c-1.2 0-2.4.2-3.6.4-1.9.8-3 2-4 1s0-2.6-1.6-2.5c-1 0-2 .3-3 .6 0 0 0 1.4-1 1.4-1.2 0-1.7-1-3.1-.5-1.5.5-1.2 2-1.5.4-.4-1.6.9-3 .4-3s-2 1.3-2.4 2.4c-.5 1.1-2-.3-2.5-1-.5-.8-1.4-.2-1.5.9-.1 1.1-2.1.7-2.1.7s-3.5.9-4.9.3c-1.3-.6-2-.2-3.7-.2-1.7 0-2.5-1-3.5-.7a3.9 3.9 0 0 1-2.8-1.1c-.3-.4-1 1.3-1 2.2-.1.9-2 1.5-2.9.7-.9-.7-.1-.7-2-.3-1.9.3-3.1 1.8-3.5.5-.4-1.4.1-1.9 0-2.3-.1-.4-2.5 1.9-2.5 1.9s-.5-3-.7-2.9c-.3.9-.5 1.7-.6 2.6 0 0-2.4 1.4-2.8.1l-1-3.4s-.1 2.2-.8 2.6c-.6.4-1.7.8-1.8.3-.1-.4.7-.7-.6-2-1.4-1.4-.5 1.4-.5 1.4s-1 2.2-1.3.9c-.4-1.4-2.7 1-2.8 0a1.4 1.4 0 0 0-.9-1.2s-.8 1.8-1.3 1.6c-.5-.3-4.3.6-5.2-.2l-1.5-1.1s0 2.1-1.2 1.4l-1.1-.8s1 .9-1.5.8c-2.6-.2-4.1 0-2.9-1.2 1.3-1.2-.9-.3-1.5.4-.6.8-1.6.9-1.8.1-.3-.7-1.6-1.2-1.6-1.2l.2 1.3a2.3 2.3 0 0 1-2 .7m487.5-2.3-1.5-1.2s1 1.9.2 2.4c-.8.6-1.2.6-2.6.2-1.4-.4-.7-.8-2.4-.4s-.7.8-2.8.5c-2-.3-2.2 1.6-2-.3.1-1.8 1.9-2.8.1-1.8-.9.5-1.9 1-2.9 1.3 0 0-3.1-2.3-2.8-2.5.4-.3 2.3 2.8 1.6 3.4-.7.7-2.4.3-3.3.2-.8-.2-1.7-.4-2.2 0-.6.6-1 1.4-1.4.8-.5-.7 2-.4-.5-.7-2.6-.3-3.8.5-4.5-.3-.7-.8-1-1.4-2-1.2-1 .3-2.7.6-3.4 1.1-.7.5-1.7.3-4.7 0s-6.7.5-7.4 0l-.7-.5c-1.4 1.3-.2 2.2-1.4 1.3-1.2-1-1.2-2.3-1.9-1.7l-.7.5s-4.6-2.5-5-2.1c-.3.4 1.6 1.2 1 2-.5.8-1.5.8-3 .5-1.3-.3-2 .3-3.2.3-1.2 0-.7-.7-2.8-.4l-3 .4s-1.6-1.5-.8-2.2c.9-.6-1.2-.9-1.9 0-.7 1-2.6 2.7-3.4 2.6-.9-.2-5 0-5.8-.3-.7-.3 1.3-2.8.6-3.2-.7-.4-3.5.4-3.8 1.6-.4 1.2-2.3-.8-2.3-.8s-.7 1.9-1.4 2.1a11 11 0 0 1-4 .3c-1.7-.1-4.3-.1-5.2-.5-.8-.4.2-1.1-2.2-.3-2.4.8-2.4 1.7-3.5.8-1-1-.3-1.6-1.9-1m-420.5.1s-3.7 1.2-5 .1c-1.4-1-2.2-2.3-2.7-1-.5 1.1-.6 1.8-2.9 1.8-2.2 0-9.1-1-10-.6-1 .4-.6 1.5-1.6.8-1-.8-1.3-2.7-1.8-1.8-.5 1-1.6.2-2.5-1-.8-1-2.5-2.6-2-1.2.3 1.4 1.6 3.8-.2 3.2-1.9-.6-3.1-1-4.1-.4-1 .7-.3 1.3-1.9 1-1.6-.5-2.2.8-2.8-.2-.7-1 .3-3 0-3.4-.4-.3-2.5.5-3.2 1.6-.6 1.1-.8 2.6-1.8 2-1-.6-.8-1.5-2.3-1-1.4.3-.5 1.3-1.4.3-1-1-.2-3-.5-3.4-.4-.3-2.8.9-2.4 2.3.4 1.3-1.1.6-1.1.6s-.5-2.3-1.4-2c-.9.2-.5 2.3-1.1 2.3-.6 0-4.9 1.3-5.6.6-.8-.6-3.7-1.3-4.7-.8-1 .4-.7 1.8-1.7.8s-.5-1.7-1.6-1.3c-1 .3-2.6 1.3-3 .6-.6-.8-1-2.3-1.6-2.1-.5 0-1 2.2-.7 3 .4.7-1.3.8-1.9.4a3.4 3.4 0 0 0-2.9-.6c-1.7.3-2.3 1.5-3.3.5a2.8 2.8 0 0 1-.8-2.4s-.8 3.3-1.6 2.4l-2.3-2.5s1.8 2.2 1.3 2.4c-.5 0-4.4.7-5-.5a17 17 0 0 1-.7-3.4s.6 4.5-1 3.6c-1.6-.9-3.2-3.8-3.4-4 0-.1 2.2 4 1.3 3.7-.7-.2-1.4-.6-2-1l.9 1.8s-4 .5-4-.3v-2.3s-1.5 2.3-2 1.8a25 25 0 0 1-1.1-2.2s.7 2.8-.4 2.8-3.5.6-3.8.1l-.8-1.6s-.4 2-1.3 1.6c-1-.6-1.7-1.4-2.4-2.3 0 0 2.4 2 .4 2-1.5 0-3-.2-4.6-.4 0 0 1.2-1.9 1-2.2-.3-.4-2.3 2.3-2.5 2.5 0 .3-2.2-2.2-2.2-2.2s1.8 2.1.6 2.2c-1 .2-3.2.8-4.3.2-.9-.4-1.8-.6-2.8-.7-.3 0-.5-1.7-.5-1.7s-.7 1.9-1.8 2.1c-1.1.2-1.6-1-1.6-1l-2.4.9c-.8.3-2.1-2-2.1-2s1.2 1.6.2 2c-1 .3-1.8 1.2-3 .6-1.3-.6-.7-1.7-.4-2.4.2-.6-1.8-1-2 .9-.3 2-1.4 2.6-1.7 2a3.7 3.7 0 0 0-3-1.4c-.8.3-.7-3-.7-3s-.4 2.7-1.7 3.1c-1.4.4-3-1.5-3-1.5s1 2.1.5 2.5c-1.6.7-3.3.9-4.9.6l-4.1-.5.3-2.7s-.3 3-1.4 2a11 11 0 0 1-2.1-2.2s2 2.3.7 2.9c-1.4.6-1.7 1.3-4.1.8-2.4-.5-3.1.3-4.4-.6-1.2-.8-2-1.8-2.3-1.1-.3.7.4 1.2-2.9 1.3-3.2.2-6 .7-7.2.2-1-.4-2.2-.6-3.3-.7 0 0 .3 2.1-.7 1.5-1-.6-1-2.6-1.8-2.3-.8.2-4.9-2-4.5-1.8.4.3 1.6 2.3 1 2.4-.6 0-1.9 1.2-2.9.5-1-.8-.2-.3-3-.2-2.7.2-3.5 2.5-3.8.6-.4-1.8 1.9-5.1 0-3.3-1.9 1.8-1.4 3-2.1 3-.8.2-2.8.6-3.1 0-.4-.4-3.8-.4-3.8-.4s1-4-.2-3.2c-1.1.8-1.6 4.2-2.5 3.7a6.8 6.8 0 0 1-1.7-2.4s-.3 2.6-1.8 2.6-4 .9-4.8.2c-.9-.6-3.3-.6-4.6-.6a9 9 0 0 1-3.3-1.2h-3l-.5-1s1 2-.2 2.3c-1.3.3-4.5.6-4.9.3-.4-.2-3.2 1.9-3.5.6l-.5-2.3s-1.5 3-1.8 2.2a22 22 0 0 1-1.3-2.5l-.1 2.5s-2 .4-2.7-.2c-.8-.7-1.4-4.1-1.4-4.1s1 4-.5 4a3.1 3.1 0 0 1-2.4-1.5s-3.6-3.6-2.2-2 2 4.3 1.1 4c-.9-.2-2.9 1.3-3.4-.3-.4-1.6-.2-2.5-1-2.2-1 .2-1.6-.4-1.4 1 0 1.5-1.6-1.2-1.6-1.2s0 3.1-1.6 2.5c-1.5-.6-3.2-1.6-3.2-1.6s1.1 2.3-.6 1.7a3.2 3.2 0 0 1-2.1-2 1.8 1.8 0 0 1-1.4 1.8h-.8c-2.2-.4-.8-3-1.3-3s-1.9 1.3-2.6 2.3a3.5 3.5 0 0 1-3.4 1.1l-.7-.4"/>
    <path stroke="#444" stroke-linecap="round" stroke-linejoin="round" stroke-width=".8" d="M567.8 124.3s-3.8 1.2-5.1 0c-1.4-1-2.1-2.3-2.6-1-.5 1.2-.7 1.8-3 1.8-2.1 0-9.1-1-10-.6-.9.4-.6 1.5-1.6.7-1-.7-1.2-2.7-1.7-1.7-.5 1-1.6 0-2.5-1-.8-1.1-2.5-2.7-2.1-1.3.4 1.4 1.7 3.8-.2 3.2-1.8-.6-3-1-4-.4s-.3 1.2-2 .8c-1.5-.3-2.2.9-2.8-.1-.6-1 .4-3 0-3.4-.4-.3-2.5.5-3.1 1.6-.7 1.1-1 2.6-2 2-.9-.6-.6-1.5-2.1-1.1-1.5.3-.5 1.3-1.5.3s-.1-3-.5-3.3c-.4-.4-2.7.8-2.4 2.2.4 1.3-1.1.6-1.1.6s-.5-2.2-1.4-2c-.8.2-.5 2.4-1.1 2.3-.6 0-4.9 1.2-5.6.6-.7-.6-3.7-1.4-4.7-1-1 .6-.7 2-1.6 1-1-1-.5-1.8-1.7-1.4-1 .3-2.6 1.3-3 .5-.5-.7-1-2.2-1.5-2-.5 0-1.2 2.1-.8 3 .3.7-1.3.8-1.9.4a3.4 3.4 0 0 0-2.8-.7c-1.8.3-2.4 1.5-3.4.5a2.9 2.9 0 0 1-.7-2.4s-1 3.2-1.7 2.4l-2.3-2.5s1.8 2.2 1.3 2.3c-.5.2-4.4.7-5-.5l-.7-3.3s.6 4.4-1 3.5c-1.5-.9-3.2-3.8-3.3-4-.1 0 2 4 1.2 3.8-.7-.3-1.4-.7-2-1.2l.9 1.9s-4 .4-4-.3v-2.3s-1.6 2.3-2 1.8l-1.1-2.2s.7 2.8-.4 2.8c-1.2 0-3.5.6-3.8 0l-.8-1.5s-.4 2-1.3 1.5c-1-.6-1.8-1.4-2.4-2.3 0 0 2.4 2 .4 2-1.5 0-3-.2-4.6-.5 0 0 1.2-1.8 1-2.2-.3-.3-2.3 2.4-2.5 2.6-.1.2-2.2-2.3-2.2-2.3s1.7 2.2.6 2.3c-1.1.1-3.2.7-4.3 0-.9-.3-1.8-.5-2.8-.6-.3-.1-.4-1.7-.4-1.7s-.8 1.8-2 2c-1 .3-1.5-1-1.5-1l-2.4.9c-.8.4-2.1-2-2.1-2s1.2 1.6.2 2c-1 .4-1.9 1.2-3 .6-1.3-.6-.7-1.7-.4-2.4.2-.6-1.8-1.1-2 .9-.3 2-1.4 2.6-1.7 2a3.6 3.6 0 0 0-3-1.4c-.8.2-.7-3-.7-3s-.4 2.7-1.8 3c-1.3.4-3-1.5-3-1.5s1.1 2.2.5 2.5a8 8 0 0 1-4.8.6l-4.1-.5.2-2.8s-.3 3.1-1.4 2.1l-2-2.2s2 2.2.7 2.8c-1.4.6-1.8 1.4-4.2.9-2.3-.6-3 .2-4.3-.7-1.2-.9-2-1.9-2.3-1.2-.3.8.3 1.3-3 1.4-3.2 0-6 .5-7.1 0-1.1-.4-2.2-.6-3.4-.7 0 0 .4 2.1-.6 1.5-1-.6-1.1-2.6-1.9-2.4-.7.3-4.8-2-4.4-1.7.3.2 1.6 2.2 1 2.3-.6.1-1.9 1.2-2.9.5-1-.8-.2-.3-3-.2-2.7.1-3.5 2.5-3.8.6-.4-1.9 1.9-5.2 0-3.3-2 1.8-1.4 3-2.2 3-.7.1-2.7.5-3.1 0-.4-.4-3.7-.5-3.7-.5s.9-4-.2-3.2c-1.2.8-1.7 4.2-2.6 3.7a6.7 6.7 0 0 1-1.7-2.4s-.3 2.6-1.8 2.6c-1.4 0-4 .8-4.8.2-.9-.7-3.2-.7-4.6-.7a9.1 9.1 0 0 1-3.3-1.2h-3l-.5-1s1 2-.3 2.3c-1.3.3-4.5.5-4.9.3-.3-.3-3.2 1.8-3.4.6l-.5-2.4s-1.5 3-2 2.2l-1.1-2.5-.2 2.5s-2 .4-2.7-.3c-.8-.6-1.3-4-1.3-4s1 4-.6 4a3.1 3.1 0 0 1-2.3-1.6s-3.6-3.6-2.2-2c1.3 1.7 2 4.4 1 4.1-.8-.3-2.8 1.2-3.3-.4s-.2-2.5-1.1-2.2c-.9.2-1.5-.4-1.4 1 .1 1.6-1.6-1.2-1.6-1.2s0 3.1-1.5 2.5l-3-1.9s1.1 2.4-.6 1.8a3.3 3.3 0 0 1-2.1-2 1.8 1.8 0 0 1-1.5 1.7h-.8c-2.1-.4-.7-3-1.2-3s-1.9 1.3-2.6 2.3a3.4 3.4 0 0 1-3.4 1.1c-.9-.7-1.7-1.6-2.3-2.5m844.6-46.2a1.2 1.2 0 0 0-1.3 0l-.3.4c-.7 1.3-2.4 4.7-1.1 7.5.6 1.2 1.5 1.4 2.4 1 1.4-.9 2.7-3.6 1.9-6.3-.2-1-.8-1.9-1.6-2.6v0Z"/>
    <path stroke="#444" stroke-linecap="round" stroke-linejoin="round" stroke-width=".8" d="M1135.8 80c-.3-.1-1.3-.6-2-.3m2.4 5.2.8 2m.2.3s-2.8 3 .6 12.3c3.5 9.4 6 8.4 6.5 7.7.5-.7 1.4-3.5-.7-10"/>
    <path stroke="#444" stroke-linecap="round" stroke-linejoin="round" stroke-width=".8" d="M1136.3 89.3s1.3 7.3 4.7 8.9m-4.9-9.2s-1.7 7-4.7 8.9c-3 1.8-8 1.5-8.7 1.8-.7.2-1.3.7-.8.6.6 0 1.2.3 1.1.5-.1.2-1.2 2.1-.3 1.8.8-.3 1-2.2 1.8-2.4"/>
    <path stroke="#444" stroke-linecap="round" stroke-linejoin="round" stroke-width=".8" d="M1137.4 87.1c1.4 0 9.3 5 10 6 .5.8-6 5-6.2 5.7-.3.9-.5 2.2.4 1.2l1.4-2"/>
    <path stroke="#444" stroke-linecap="round" stroke-linejoin="round" stroke-width=".8" d="M1138.4 87.8c1.8 2.5 4.4 7.8 4.6 9.2m1.4.6c.5.1 3.5 4.9 2.7 7.7a3 3 0 0 1-3.6 2.3m-2.4-1.4c0 .3-3.9 13.3-4.8 15.2-.8 1.9-5-2.1-5.6-1-.6 1 2.6 2.6 4 2.2m10.3-14.8c.6.8 2.4 5 4 6.2 1.6 1.1 10 4.1 10 4.3 0 .2-2.5 5.4-3.1 4-.6-1.4 1-2.6 1.8-3.3m-37.9-16.3c-.2 0-1.3.9-1 1.3.3.4.8-.3.8-.3m1.2 1.3-.1.4c-.2.5-.4 1.4-.1 1.1m1.4 1.8c.3.7-.1 1.4-.4 1.2-.3-.2-.3-1-.3-1m-3.5-2.1c-.4.8.1 1.8.3 1.4.2-.4-.3-1.4-.3-1.4Zm1.6 4.2c.2.8-.2 1.7-.5 1.2m-1.9-1.7c-.7.7-.6 1.4-.4 1.4.2 0 .7-.8.7-.8m3.3 3.7c.2 1 .3 1.9-.3 1.5-.6-.3-.5-.7-.5-.7m-2.8-.8c-.5.7-.4 1.6 0 1.5.6-.2 1-.4 1.4-.8m-3.6-1.5c-.6.6-1.1 1.1-.7 1.3.4.2.9-.4.9-.4m3.3 3.5s.8.5 1 .2m-5.1.3s-.2.8-.5.5M853 75.5c-.4 0-3 4.2-1 8.8 2.2 4.6 5 1 4.9-2.4l-.2-1.6c-.4-2.7-1.8-4.6-3.6-4.8Z"/>
    <path stroke="#444" stroke-linecap="round" stroke-linejoin="round" stroke-width=".8" d="M856.8 80.3c-.3 0-2.8 0-2.8.6m4.2 25.8c.3.1 5.1 4.8 5.2 7.5 0 2.7-.1 9 .5 9s5.4-1 5.7.2c.2 1.2.3.7-.8.7l-3.8-.2m-10.5-15.2c.2.4 0 7-1 8-1.2 1-10.2 3.6-10.5 4-.3.5 1.6 4.3 2.6 3.6 1-.8-.5-2.5-1-3"/>
    <path stroke="#444" stroke-linecap="round" stroke-linejoin="round" stroke-width=".8" d="M846.7 112.3c-.2-.2-1-1.9-2-1.7-.8.1-7.7 4.5-6.2 7 1.5 2.4 9.9-.6 9.9-1.8-.1-1-.5-2-1.1-2.9m7.2-26.4v1.1m-.8 18.2c-.6-.3-3.3-6-3.7-7.7-.3-1.7 3.5-9.4 3.7-9.7m10.8 10.9c.1-.7.4-1.3.9-1.8.4-.3 1-.7 1.5-.3.4.5 1.4 1.8 1.3 2.2 0 .5-2.5 1.1-2.8 1a2 2 0 0 1-.7-.5l-.3-.4m.3.5-18 12.6"/>
    <path fill="#fff" d="M853.9 105.7s2.2.5 2 1.2c-.4.8-1.3 1.1-1.8.4-.3-.4-.6-1-.6-1.5"/>
    <path stroke="#444" stroke-linecap="round" stroke-linejoin="round" stroke-width=".8" d="M853.9 105.7s2.2.5 2 1.2c-.4.8-1.3 1.1-1.8.4-.3-.4-.6-1-.6-1.5m12.7-17s7 0 7.4-.2c.4-.2 1-1.4 2-2 1-.6 1.8-1.4 1.8-2.2m-4 4.6c.1 0 1 .4 1.2 1.2.2.7-.6 1 .2 1.5l3.2 1.8m-4-4.8c.9.3 1.8.4 2.7.3 1-.2 1.8-.3 2-.1m-13.9-.2-9-.1m-2.5-.1h-9.9l-2.8 1.4-.9.2"/>
    <path stroke="#444" stroke-linecap="round" stroke-linejoin="round" stroke-width=".8" d="M843.6 88.6c-.8 1.3-1.6 2.6-2.2 4m-1.4-6.8c0 .1 3 1.9 3.5 2.8"/>
    <path stroke="#444" stroke-linecap="round" stroke-linejoin="round" stroke-width=".8" d="M833.8 81.5c0-.7.2-1.3.5-.9s.2 1.2.8.9c.7-.4 2.5-.7 2.2-.1-.3.5-.7.8-.6 1.2 0 .5.3.5.7.6.3.2.2.8.5 1 .3.3 2.2.5 2.3 1 0 .5-1.6 1-2 1.3-.2.3.4.5-.2.8-.6.4-1.2.9-.5 1.2.6.2 2 .1 2 .7l.2 1.5c0 .2 1 .8.4 1.3-.7.4-1.7.7-1.4 1.2.3.6.8.2 1.4 0 .7-.2 1.2 0 1.3.6 0 .6.4.5-.3 1.2-.7.6-1.5.3-1.5.7 0 .4.8.2.7.9 0 .7-.4.9 0 1.3s1.4.2.6.7c-.9.5-1.4 0-1.9 0-.4-.2 0 .3-1 .6-.7.2-1.3 0-1.5.2-.1.1.6-.7-.2 1.2-.7 1.8-1.3.3-1.3-.2-.1-.4.3-.7-.5-.5-.8 0-1.2.5-2-.2-.6-.7-.3-.4-.6-1.4-.3-1-1.5.3-1.8-.7-.2-1 1-2.3.4-2-.8.3-1.7.4-2.6.2 0 0-2.7-1.6-1.3-4.1.3-.5 1.9-1.1 2.1-1.5.2-.4-1.8-.5-2.2-1.6-.1-.6 1-2.6 1.2-2.8.6-.4.3-1.5.6-2.1.4-.6 1-.7 1.8-1.2.8-.4.8-.8 1.1-1 .4-.1 2.6.6 2.6 0Z"/>
    <path stroke="#444" stroke-linecap="round" stroke-linejoin="round" stroke-width=".8" d="M831.8 85.2c-.1 0-.6.6-.4 1.1m1.4 3.5a1.4 1.4 0 0 0 .5 1.2c.4.3-1 1.2-.7 1.4.3.3 1 0 1 0m21.9-3.5c.1 0 4.5 7.3 6 7 1.4-.5 3.2-4.1 3.3-5.6.2-1.4.6-2.7 1-2.3.4.8.5 1.8.3 2.7a.5.5 0 0 1-1-.1"/>
    <path stroke="#444" stroke-linecap="round" stroke-linejoin="round" stroke-width=".8" d="M854 88s1.2-.7 1.4.2c.6 2.6 3.3 12.8 3.5 14.7m.1 2.3s-.8 2.4-2.5 2.9-2.4.1-2.4.1m-.1-20.1-1 14.4c0 1.4-.2 4.7.2 5.2m204.2 45.5c23.8 0 43-18.8 43-42a42.6 42.6 0 0 0-43-42.2c-23.7 0-43 18.8-43 42.1a42.6 42.6 0 0 0 43 42.1Z"/>
    <path stroke="#444" stroke-linecap="round" stroke-linejoin="round" stroke-width=".8" d="M1028 80.7c.5 0 3-.1 4.6 1 1.7 1.2 5.8-3 8.3-1.4 2.5 1.5 1.8 2.1 3.3 2.3 1.5.1 5 1.8 4 3.1s-4.1 0-1 1.3c3.2 1.3 4.7-.8 5.8 2 1.2 2.8 7.3 5.8 5.8 8.7-1.4 3-2.1 4-5 2-2.8-2-5-1.3-7.4-2-2.5-.6-3.2-2.4-4.2-1.3-1 1.2 1 5.3-1.5 6.6-2.4 1.3-5.3-1.3-6 .8-1 2.2.3 8.1-3 9.4-3.4 1.4-4.5-.1-6.9-.1-2.3 0-4.4 1-2.8-2.3 1.7-3.3 5-5.5 2.5-5.3-2.5.1-5.3 2.8-7.3 2.8h-2"/>
    <path stroke="#444" stroke-linecap="round" stroke-linejoin="round" stroke-width=".8" d="M1044.6 102.4c.8-1.2.3-3.8 3.5-2 3.1 1.8 2.3 3 5.6 2.3 3.3-.7 2.5-.8 5.3 2.3 2.8 3.1 5.8 5 4.2 6.3-1.7 1.3-1.4-1.2-2.5 2.3-1.2 3.4 1.8 5.2-2.8 5.4-4.7.2-4.2-3.4-6.5-1.5-2.3 2-2.8.9-4 3.7-1.2 2.8-.2 1.1 0 7 .2 5.7-2 15-4.5 14.7-2.4-.3-2-1.3-5.3-2.6s-5.3-1-5.6-6.4c-.4-5.5 1.2-5.3-.2-9.4-1.3-4.1-4.1-3.3-1.3-6 2.8-2.6 2.7-.5 4-3.4 1.3-3 1.5-2.8 2-5.3s-1.7-2.6 1-3.6.3-.2 3.6-1.5c3.3-1.3 3.5-2.3 3.5-2.3Zm15.3-28.4c-2.8 0-4.2 2.5-1.7 4s5.1 1.1 5.1 3.8c0 2.6.9 1 4 2.6 3.2 1.6 4.9 5.8 5.5 2 .7-3.8-1-4.3 1.2-5.3 2.1-1 7.3-2.6 2.3-4.1a98.3 98.3 0 0 0-16.4-3v0Zm25 5.3c-1.2.5-7.1 1.4-6.1 4.3 1 2.8 3.1.6 1.8 4.6-1.3 4-5 3-1.7 4.7 2 1 4.1 1.9 6.3 2.3 1.8.5 5.2.5 6.7 4.5 1.4 4 4 5.1 3.4 8.6-.5 3.4.5 5.6 1.7 4.3 1.2-1.4 3-4 3-4m-1 10.9c-.7-1.3-1-1.5-2.5-3s-3-1.3-6.6 0c-3.7 1.3-9.6.2-10 2.3-.3 2.1.7 1.7-.3 2.2-1 .4-6.1-2.5-5.8 2.8.3 5.2 2.7 6.5 1.7 10-1 3.5 2.6 4.3 4.6 7.3 2 3 6 2 6 2"/>
    <path stroke="#444" stroke-linecap="round" stroke-linejoin="round" stroke-width=".8" d="M1031.3 77c-.6-.7-4.3-3-5.3-5a5.4 5.4 0 0 0-3.1-3c-1.2-.5-2.2-1.6-3.2 1s.2 6.4-1.8 5.8c-2-.7-.8-2.5-3.1-.5-2.4 2-3.5 3.4-5.7 2.1-2.1-1.3-3.6-2.1-3.6-4 0-1.8-.5-2.3-1.5-2.4-1-.2-4 .8-5-1.5s-2.5-3-1.7-4.5c.9-1.4.2.5.9-1.4.6-2-.9-2.2.1-4.8l1-2.7a4.8 4.8 0 0 1-3-4.6c.2-3.4.5-3.6 1.8-5 1.4-1.3 0-1.6 2.5-3 2.5-1.3 3.5-1.4 4.8-1.3 1.4.2.4-1.4 2.7-2.8 2.3-1.3 3.1 0 3.3-1.3.2-1.3-.3-2.6.8-3.6 1.2-1 1.2-.5 2.2-.3 1 .1 1.1-1.3 2.5-2.2 1.3-.8 3-1 3.5.2.4 1.2 2 2 2.3 2.3.3.3 1.3-1.3 3.1-1 1.9.3 3.2 1.5 4.3.3 1.2-1.1 3.2-3.3 4.5-2.1 1.4 1.2 2.7 5 2.7 5s-1-5.3.3-5.8 3.5-1 3.3-2.6c-.1-1.7.3-5.1 2.3-5.1a8 8 0 0 1 3.5.8s-.1-3.2 2.3-2.3c2.5.8 4.2 2 5 .6.9-1.3 1.4-2.4 3.3-2.1 2 .3 4.2 1.8 5.2.2 1-1.7 2.2-5 4.5-3s2.6 3.1 3.8 2.6c1.1-.5 2-2 2.1.7.1 1.5.3 3 .7 4.4 0 0 3.8-1.1 5.1 1 1.4 2.2 5.3-.1 6 3 .4 2 .3 4-.5 5.8 0 0 2.9-2.2 4.4-.3 1.5 1.8 2.6-2.2 4.4-.2 1.8 2 2.7 3.8 3.3 3.1.7-.6 4.5-.1 5.7 1.2 1.2 1.3 3.8-2.8 5.8-.2 1 1.3 2 2.5 3.1 3.6 0 0 4.7-1.6 4.2 1.3a7.6 7.6 0 0 1-2.8 4.7s3.6.6 4 2.4l.3 1.8s4-2 4 1.2c0 3.1-4.1 6.1-5.1 6-1-.2-.4 5.7-1.7 6.4-1.3.6 3.3 5.3.5 7a5.8 5.8 0 0 1-5.5.1s0 3.8-2.3 4c-2.3.2-4.3-1.3-4.3-3.5v-3.8s-2.5 2.2-3.7.5c-1.1-1.6-2.4-4.1-4.6-3.1-2.2 1-8 9.5-8.1 10.4"/>
    <path stroke="#444" stroke-linecap="round" stroke-linejoin="round" stroke-width=".8" d="M1043 70.6c-1.2-1-.5-4-2-3.3-1 .5-2.2.7-3.3.6-1.2 0-1 3.2-3.3 2l-3.2-1.5s-.3 2.8-2.8.5-2.3-4.4-2.3-4.4-5.5.5-4.7-1.8c.9-2.3 2.9-2.2 2.4-3.8-.5-1.7 0-1.2.1-4 .2-2.8-2.5-5.1.4-6.4 2.8-1.3 5.8 1.1 6-1.2.2-2.3-.9-3.3 2.3-3.8 3.1-.5 5-.3 5-.8s2.5-3.8 5.6-2.6c1.5.5 3 1.1 4.3 2 0 0 1-1.4 1.7 1.1.6 2.5 1 4.1 1.6 4.1.7 0 2 3.2 3.4 1.7 1.3-1.5 1.8-2.2 3.3-1.3 1.5.8.8 3.6 3.1 1.6s3.7-1.8 4.7-1.8.6-1 2.1-2.3c1.5-1.3 2.5.2 4-.5s1.5-1.3 2.8-.3c1.4 1 2.2 2.8 3.2 1.5a4.5 4.5 0 0 1 5.1-1.2c1.8.8 3-1 4.2.7 1.1 1.6.6 3 1.5 2.4.8-.5 4 .2 2.6 2.7-1.3 2.4 2 2.4 1.5 4.3a3 3 0 0 1-2.6 2s.3 2.4-.2 3.4 3.3 3 .7 3.5c-1.7.3-3.3 0-4.7-.9 0 0 1.3 2.5-.8 2.8a5 5 0 0 1-4.8-1.3c-1.5-1.3-4-1.5-4.5-.3-.5 1.1-2.7 3.8-2.5 6.6"/>
    <path stroke="#444" stroke-linecap="round" stroke-linejoin="round" stroke-width=".8" d="M1068.8 69.6a9 9 0 0 0 1.2-5c-.2-2.1-1.2-3.1-2-3.1-.9 0-1.2 1-2.4 0-1.1-1-2.8.6-3.4-1-.7-1.7 1.3-1.8-.4-3.3-1.6-1.5-3-.7-1.3-3.3 1.7-2.6 2.2-1.7 2-3.5-.2-1.8 0-2.3 1-3m-6.1.2c-.2 1.2-.4 7.6.6 8.8m-4-7.4s.4 2.7-.6 3.6c-1 .8-1.8 1-1.2 2.1.7 1.2 2.8 1.2.2 2.5-2.7 1.3-3.5 1.8-3.5.6 0-1.1 1.8-2 0-1.1-1.8.8-3 3.6-3.5 2.1-.4-1.4.4-3-1.5-1.4-1.8 1.5-2.1-2.7-3-1.5-.8 1.1 1.4 3.8-.5 4.3-1.8.5-4.6.8-3.6 1.1 1 .3 4.3 1.5 4.8 2.6"/>
    <path stroke="#444" stroke-linecap="round" stroke-linejoin="round" stroke-width=".8" d="M1046.8 69.4c-.4-.7-4.8-2.8-2.2-9m9.4-2.8a7.6 7.6 0 0 1 1.4 4c0 2.2-.2 4.3-.5 6.5m6.4-6.1s-.1 5 .2 6m10.3-4.6c.2-2.8-1.8-4.2-.7-4.7 1.2-.5.4 2.4 2.5 1.6 2.2-.8 2.2-1.5 3.8-.6 1 .5 2 1.3 2.7 2.3m2.1 4.4a21 21 0 0 1-.3 5c-.4 1.2-1 2.2-2 3M291.4 124s-4.2 1.2-5.7.1c-1.5-1-2.3-2.3-2.8-1-.6 1.1-.7 1.8-3.2 1.8s-10.2-1-11.1-.6c-1 .4-.7 1.5-1.8.8-1-.7-1.4-2.7-2-1.7-.5 1-1.7 0-2.7-1-1-1.2-2.7-2.6-2.3-1.3.4 1.4 2 3.9-.1 3.2-2.1-.6-3.5-1-4.6-.3-1 .6-.2 1.2-2 .8-1.8-.3-2.5.9-3.2-.1-.7-1 .4-3 0-3.3-.4-.4-2.7.5-3.4 1.6-.7 1-1 2.6-2 2-1.1-.7-.9-1.5-2.5-1.2-1.7.4-.6 1.4-1.7.4-1-1-.1-3-.5-3.3-.4-.4-3 .8-2.6 2.2.4 1.3-1.3.6-1.3.6s-.5-2.2-1.5-2c-1 .2-.5 2.4-1.2 2.4s-5.4 1.2-6.2.6c-.8-.6-4.1-1.4-5.2-1-1.1.6-.7 2-1.8 1s-.6-1.8-1.8-1.4c-1.2.4-2.9 1.3-3.4.6-.6-.7-1.1-2.2-1.7-2-.5 0-1.2 2.1-.8 2.9.4.8-1.4.9-2 .5a4 4 0 0 0-3.2-.6c-2 .2-2.6 1.4-3.7.4a2.7 2.7 0 0 1-.8-2.3s-1 3.2-1.8 2.3a45 45 0 0 0-2.6-2.4s2 2.2 1.5 2.3c-.6.1-5 .8-5.5-.5-.4-1-.7-2.2-.8-3.3 0 0 .7 4.4-1.1 3.6-1.8-1-3.6-3.9-3.7-4-.2-.2 2.3 4 1.3 3.7l-2.2-1.1 1 1.8s-4.3.5-4.3-.2v-2.4s-1.7 2.4-2.1 1.9l-1.4-2.2s.8 2.8-.4 2.8c-1.2 0-3.8.6-4.1.1l-1-1.6s-.4 2-1.4 1.6c-1-.6-2-1.4-2.7-2.3 0 0 2.7 2 .5 2-1.7 0-3.4-.2-5-.4 0 0 1.2-1.9 1-2.3-.3-.3-2.5 2.4-2.7 2.6 0 .3-2.4-2.2-2.4-2.2s1.9 2.1.7 2.2c-1.3.2-3.6.8-4.8.1l-3-.6c-.5-.1-.6-1.7-.6-1.7s-.8 1.9-2 2.1a1.7 1.7 0 0 1-1.8-1c-1 .2-1.8.5-2.6.9-.9.3-2.4-2-2.4-2s1.4 1.6.3 2c-1.1.3-2 1.2-3.4.6s-.7-1.7-.4-2.4c.2-.6-2-1-2.2.9-.3 2-1.6 2.6-1.8 2a4.2 4.2 0 0 0-3.3-1.4c-1 .3-.8-3-.8-3s-.5 2.8-2 3.1c-1.5.4-3.3-1.5-3.3-1.5s1.3 2.2.6 2.5c-1.7.7-3.6 1-5.4.6-2.8-.2-4.5-.5-4.5-.5l.3-2.7s-.3 3.1-1.5 2.1l-2.4-2.2s2.4 2.2.9 2.8c-1.5.6-2 1.4-4.6.9-2.6-.5-3.4.2-4.8-.6-1.3-1-2.3-1.9-2.6-1.2-.3.8.4 1.3-3.1 1.4-3.6.1-6.8.6-8 .1-1.2-.3-2.5-.5-3.8-.6 0 0 .5 2.1-.6 1.5-1.1-.7-1.3-2.6-2-2.4-1 .3-5.4-2-5-1.7.4.2 1.7 2.2 1 2.3-.6.2-2 1.3-3 .5-1.2-.7-.4-.2-3.4-.1s-3.8 2.5-4.2.6c-.5-1.9 2-5.2 0-3.3-2.1 1.8-1.6 3-2.4 3-.8.2-3 .5-3.4 0-.5-.4-4.1-.4-4.1-.4s1-4.1-.3-3.3c-1.3 1-1.8 4.2-2.7 3.8a6.8 6.8 0 0 1-2-2.4s-.2 2.6-1.9 2.6c-1.6 0-4.4.8-5.3.2-1-.6-3.6-.6-5.1-.6a9.4 9.4 0 0 1-3.7-1.1H39l-.6-1.1s1.1 2-.2 2.3c-1.4.4-5 .6-5.4.4-.4-.3-3.6 1.8-3.8.6l-.6-2.4s-1.6 3-2 2.3a22 22 0 0 1-1.4-2.6l-.1 2.5s-2.2.4-3-.2c-.8-.7-1.5-4.1-1.5-4.1s1 4-.6 4a3.5 3.5 0 0 1-2.6-1.5s-4-3.6-2.5-2c1.6 1.6 2.2 4.3 1.3 4-1-.2-3.2 1.3-3.7-.3-.6-1.6-.3-2.5-1.3-2.2-1 .2-1.6-.4-1.5 1 .1 1.6-1.8-1.2-1.8-1.2s0 3.1-1.7 2.5a39 39 0 0 1-3.5-1.6s1.2 2.3-.7 1.7c-2-.6-1.8-1.6-1.8-1.6m1439.9-1.7c-2.6-.3-2.8.7-3.5 0-.7-.8-.9-1.5-1.9-1.2-1.2.1-2.3.5-3.5 1-.6.5-1.7.3-4.6 0-3-.3-6.8.5-7.5 0l-.7-.5c-1.3 1.3-.1 2.2-1.3 1.3-1.2-1-1.2-2.2-2-1.7l-.6.5s-4.7-2.5-5-2.1c-.4.4 1.5 1.2 1 2-.6.8-1.6.8-3 .5-1.3-.3-2 .3-3.3.3-1.2 0-.7-.7-2.7-.4l-3 .4s-1.7-1.5-.8-2.1c.8-.7-1.2-1-2 0-.6.9-2.5 2.6-3.4 2.5-.8-.2-5 0-5.7-.3-.7-.3 1.2-2.8.5-3.2-.7-.4-3.4.4-3.8 1.6-.3 1.2-2.2-.8-2.2-.8s-.7 1.9-1.4 2.1a11 11 0 0 1-4 .3c-1.8-.1-4.3-.1-5.2-.5-.9-.4.2-1-2.3-.3-2.4.8-2.4 1.7-3.4.8-1-1-.4-1.6-2-1"/>
  </g>
  <defs>
    <clipPath id="a">
      <path fill="#fff" d="M0 0h1440v164H0z"/>
    </clipPath>
  </defs>
</svg>
