<svg xmlns="http://www.w3.org/2000/svg" fill="none" viewBox="-100 0 1440 175">
  <path stroke="#444" stroke-linecap="round" stroke-linejoin="round" stroke-width=".8" d="M1011.6 97.4s-7 18.5-4.4 24.4c2.6 6 7 1.3 7 1.3l-1.3-20c0-2.7.2-6.1-1.3-5.7Zm2.2-9.9s-4 2.5-3.6 5.5c.3 3 2.2 4.8 4.1 2.3 2-2.5 1.9-7.4-.5-7.8Z"/>
  <path stroke="#444" stroke-linecap="round" stroke-linejoin="round" stroke-width=".8" d="M1008 123.4c-1.2 4-2 8.2-2 12.4-.3 7.6.2 8.7.2 8.7s-5.4-2.3-5.6-.2c0 1 5.5.4 5.5.4m7.3-20.5c.3 3 1 6 2.2 8.8 1.7 3.6 4.7 11.6 4.7 11.6s-5.4-2.1-5.4-.1c0 1 5.3.4 5.3.4m-9.4-45.8s-3.6 8.3-7 12.2m7.2-20.6c.4-.3 2.1.2 2.6.4"/>
  <path fill="#fff" stroke="#444" stroke-linecap="round" stroke-linejoin="round" stroke-width=".8" d="m992 110 14.4-4c2.3-.6 12.5-3.2 16.8-4.5 4.3-1.3 10-3.5 12-3.6 2-.2 4-.6 5.8-1l4 17s-9 4-11.2 4.3c-2.2.3-18.4 5-18.4 5s-18.9 4.9-18.9 4.5L992 110Z"/>
  <path stroke="#444" stroke-linecap="round" stroke-linejoin="round" stroke-width=".8" d="m1005.7 111.8 19.8-4.8m-24.2 12.3 34.9-9.1m-23.4-11.5s4.4 10.2 4.7 12.3c.3 2.7-.8 8.4-.8 8.4.1-.2-2.5.3-2.2 1.7.3 1 2-.6 2-.6M852.9 83.2H866l37.8-.6s24 .9 24 .4c-.5-1.8-.8-3.7-.7-5.6l.7-5.8-75.3.2.3 11.4Z"/>
  <path stroke="#444" stroke-linecap="round" stroke-linejoin="round" stroke-width=".8" d="m891 75-23.8.2c-1 0-2.8.5-2.7 2.3 0 2.2 2 1.7 2.5 1.8a4701.2 4701.2 0 0 0 47.4-.2 1.1 1.1 0 0 0 .7-1.1c0-.8.4-2.1-.2-2.5-1-.6-5-.4-5-.4m-57 8.1s1 11.2.5 14.1c-.6 3-1.7 31-1.3 32.6.4 1.7 0 14.1 0 14.1m75.7-61 .4 14.7-1 32.6v13.2m-52.4-43.3a683 683 0 0 1 28.9 1.1l1 27.5s-12.7-.7-17.1-.3c-4.1.1-8.3 0-12.4-.2l.4-20.2c-.1-2.6-.3-5.3-.8-7.9v0Z"/>
  <path stroke="#444" stroke-linecap="round" stroke-linejoin="round" stroke-width=".8" d="M881.9 109c1.3-.2 8.7 11 8.7 10.5 0-.6 7.4-11 7.4-11"/>
  <path fill="#fff" stroke="#444" stroke-linecap="round" stroke-linejoin="round" stroke-width=".8" d="M895.4 78.8 882 67.4s22-20 25.5-22.9c3.5-3 8.9-9.5 8.9-9.5l17.9 14-28.5 30-10.4-.3Z"/>
  <path fill="#fff" d="M911.8 48S897 62.7 897 62.1L911.8 48Z"/>
  <path stroke="#444" stroke-linecap="round" stroke-linejoin="round" stroke-width=".8" d="M911.8 48S897 62.7 897 62.1m25.4-11.9-20.7 18.1m29.5-17.4s-1.6 1.7-.5 2c1.1.4.9.5.9.5s2.3 12.3 5 16.9c2.8 4.5 2.3 3.5 2.3 3.5m-10.2-18.6s2 7.2 3.6 11.4c1 2.7 4.7 7.1 4.7 7.1"/>
  <path stroke="#444" stroke-linecap="round" stroke-linejoin="round" stroke-width=".8" d="M938.2 71.2c-.3 0-4.5 15.3-1.8 20 3.4 3.6 6 .6 6 .3s0-1.4-1.1-5.4c-1.2-4-1.2-9.5-1.4-12-.2-2.6-.3-3-1.7-3Zm1.4-8.1c.3-.1 3.1 0 3.3 2.4.1 2.3-1.8 4.9-3.2 4.9a2.7 2.7 0 0 1-2-1.2 2.6 2.6 0 0 1-.4-2.3c1-3 2.6-3 3.6-3.2"/>
  <path stroke="#444" stroke-linecap="round" stroke-linejoin="round" stroke-width=".8" d="M938.5 64.8s1.5.7 1.8 1.3m-2.6 26.5 5.3 25.3c0 .4-1.2 4.7-.4 4.8 2.1.2.8-3.6.7-4.4M941 93c.4.5 9 21.8 11.4 24 2.4 2.4 3.5 2.8 3.1 1.3-.3-1.6-3.1-1.6-3.1-1.6"/>
  <path stroke="#444" stroke-linecap="round" stroke-linejoin="round" stroke-width=".8" d="M939.8 124.5s-1.8 1.7-.6 2.9c1.2 1.1 5-1.5 8.2-.8 3.2.7 4 3.7 6 3.8 2 .1 5-2.1 4-4.2-1.1-2-6.9-7.3-17.6-1.7Zm-5-2.8a5.8 5.8 0 0 0-1 6c1.5 3.5 4 1.3 4.1 0 .1-1.9 0-3.7-.6-5.4a2 2 0 0 0-2.5-.6v0Z"/>
  <path stroke="#444" stroke-linecap="round" stroke-linejoin="round" stroke-width=".8" d="M933.7 125.4s1.4-.7 2.2-.2m18.1 4a59 59 0 0 0-6.1 4.3c0 .3 7 10 7 10.3 0 .3-3-2-4.2-.3-1 1.2 4 .7 4.2.6"/>
  <path stroke="#444" stroke-linecap="round" stroke-linejoin="round" stroke-width=".8" d="M941.3 127.4c2.8-.8 5.6-1.4 8.4-1.9.3.2-.7 6.6-.7 6.6s-2.8-.3-2.8.6c0 1 1.6.7 1.6.7l-.6 10.5s-3.5-1.7-4.2-.2c-.5 1.2 3.9.4 3.9.4m493.1.9H-100"/>
</svg>
