<svg xmlns="http://www.w3.org/2000/svg" viewBox="0 0 1030 174">
  <g fill="none" fill-rule="evenodd">
    <path d="M1 0h994v165H1z"/>
    <path stroke="#000" stroke-linecap="round" stroke-linejoin="round" stroke-width=".8" d="m831.7 144.4-830.4.4m639.2-47.5s-7 18.5-4.4 24.4c2.6 5.9 7 1.3 7 1.3l-1.2-20c-.1-2.7.1-6.2-1.4-5.7Zm2.2-10s-3.9 2.5-3.6 5.5c.3 3 2.2 4.8 4.1 2.3 2-2.5 1.9-7.4-.5-7.8Z"/>
    <path stroke="#000" stroke-linecap="round" stroke-linejoin="round" stroke-width=".8" d="M637 123.2c-1.3 4-1.9 8.2-2 12.4-.3 7.6.1 8.7.1 8.7s-5.4-2.3-5.5-.1c-.1 1 5.5.4 5.5.4m7.2-20.6c.3 3 1 6 2.2 8.8 1.8 3.6 4.7 11.6 4.7 11.6s-5.4-2.1-5.4-.1c0 1 5.3.5 5.3.5m-9.3-45.9s-3.6 8.3-7 12.1m7.2-20.5c.4-.3 2.1.2 2.6.4"/>
    <path fill="#FFF" fill-rule="nonzero" stroke="#000" stroke-linecap="round" stroke-linejoin="round" stroke-width=".8" d="m620.9 109.9 14.4-4c2.3-.7 12.5-3.2 16.8-4.5 4.3-1.3 10-3.5 12-3.6 2-.2 3.9-.6 5.8-1.1l4 17.1s-9.2 4-11.3 4.3c-2.1.3-18.3 5.1-18.3 5.1s-18.9 4.8-18.9 4.4a505 505 0 0 0-4.5-17.7Z"/>
    <path stroke="#000" stroke-linecap="round" stroke-linejoin="round" stroke-width=".8" d="m634.7 111.6 19.8-4.8m-24.3 12.3 34.9-9.1m-23.3-11.5s4.4 10.2 4.7 12.3c.3 2.7-.8 8.5-.8 8.5.1-.2-2.5.3-2.1 1.7.3 1 1.9-.6 1.9-.6M481.8 83H495l37.8-.6s24 .8 24 .4c-.5-1.8-.8-3.7-.7-5.6l.7-5.8-75.3.1.3 11.5Z"/>
    <path stroke="#000" stroke-linecap="round" stroke-linejoin="round" stroke-width=".8" d="m519.9 74.9-23.8.1c-1 0-2.8.5-2.7 2.3.1 2.2 1.9 1.8 2.5 1.8 2.5.1 40.2-.1 47-.1l.4-.1.4-.2.2-.4.1-.4c0-.8.4-2.1-.2-2.5-1-.6-5.1-.4-5.1-.4m-56.9 8s1.1 11.2.5 14.1c-.6 2.9-1.7 31-1.3 32.6.4 1.6 0 14.1 0 14.1m75.8-60.9.3 14.6-.9 32.6v13.2m-52.4-43.2a631 631 0 0 1 28.9 1.1l.9 27.5s-12.6-.7-17-.4c-4.1.2-8.3.1-12.4-.2l.4-20.2c-.2-2.6-.4-5.2-.8-7.8h0Z"/>
    <path stroke="#000" stroke-linecap="round" stroke-linejoin="round" stroke-width=".8" d="M510.8 108.9c1.3-.2 8.7 11 8.7 10.5 0-.6 7.4-11 7.4-11"/>
    <path fill="#FFF" fill-rule="nonzero" stroke="#000" stroke-linecap="round" stroke-linejoin="round" stroke-width=".8" d="M524.3 78.6 511 67.3s22-20 25.5-22.9c3.5-2.9 8.9-9.5 8.9-9.5L563.2 49l-28.5 30-10.4-.4Z"/>
    <path fill="#FFF" fill-rule="nonzero" d="M540.8 47.8S526 62.5 526 61.9l14.8-14.1Z"/>
    <path stroke="#000" stroke-linecap="round" stroke-linejoin="round" stroke-width=".8" d="M540.8 47.8S526 62.5 526 61.9M551.4 50l-20.7 18.1m29.4-17.4s-1.6 1.7-.5 2.1c1.1.3.9.5.9.5s2.3 12.3 5.1 16.8l2.3 3.6m-10.3-18.6s2 7.1 3.6 11.3c1.1 2.7 4.7 7.1 4.7 7.1"/>
    <path stroke="#000" stroke-linecap="round" stroke-linejoin="round" stroke-width=".8" d="M567.2 71c-.3 0-4.5 15.3-1.8 20 3.4 3.6 5.9.6 5.9.3s.1-1.4-1-5.4c-1.2-4.1-1.2-9.5-1.4-12-.2-2.6-.4-3-1.7-2.9Zm1.4-8c.3-.1 3.1 0 3.3 2.3.1 2.3-1.8 4.9-3.2 4.9a2 2 0 0 1-1.1-.3c-.4-.2-.7-.5-.9-.8-.2-.3-.4-.7-.4-1.1-.1-.4 0-.8.1-1.2.9-3 2.5-3 3.6-3.2"/>
    <path stroke="#000" stroke-linecap="round" stroke-linejoin="round" stroke-width=".8" d="M567.5 64.7s1.5.6 1.8 1.2m-2.6 26.5 5.3 25.3c.1.4-1.2 4.7-.4 4.8 2.1.2.8-3.6.6-4.4M570 92.9c.3.4 8.9 21.8 11.3 24.1 2.4 2.3 3.5 2.7 3.1 1.2-.3-1.5-3.1-1.5-3.1-1.5"/>
    <path stroke="#000" stroke-linecap="round" stroke-linejoin="round" stroke-width=".8" d="M568.8 124.3s-1.8 1.7-.6 2.9c1.2 1.2 5-1.4 8.2-.8 3.2.7 4 3.6 6 3.8 2 .1 5.1-2.1 4-4.2-1.2-2-6.9-7.2-17.6-1.7Zm-5-2.8a5.8 5.8 0 0 0-1.2 6.1c1.5 3.4 4 1.2 4.2-.1.1-1.8-.1-3.6-.6-5.4-.3-.4-.7-.6-1.1-.7a2 2 0 0 0-1.3.1h0Z"/>
    <path stroke="#000" stroke-linecap="round" stroke-linejoin="round" stroke-width=".8" d="M562.6 125.2s1.5-.7 2.2-.1m18.2 4a62.6 62.6 0 0 0-6.2 4.3c-.1.3 7 10.1 7 10.4 0 .3-3-2-4.2-.4-1 1.3 4 .7 4.2.7"/>
    <path stroke="#000" stroke-linecap="round" stroke-linejoin="round" stroke-width=".8" d="M570.2 127.2c2.8-.8 5.6-1.4 8.4-1.9.3.1-.7 6.5-.7 6.5s-2.8-.3-2.8.7 1.7.7 1.7.7l-.6 10.5s-3.6-1.8-4.2-.2c-.5 1.1 3.9.4 3.9.4m-340.8-41.5a3 3 0 0 0-.9.2c-.3.2-.5.4-.6.7-.7 1.6-1.5 4.8 0 6.9 2.1 2.8 4.3-.1 4.6-2.1.3-1.8-.1-5.7-3.1-5.7Z"/>
    <path stroke="#000" stroke-linecap="round" stroke-linejoin="round" stroke-width=".8" d="M233.9 103c.2-.2 1.4-1.8 3.2-1m.9 3.5c-.8-.2-1.6-.1-2.3.2m-3.5 3.1c-5 1.1-9.6 3.8-13 7.6-5.6 6.4-3.4 8.5-.6 7.7 2.8-.8 5.3-5.9 9.4-8.8 4.1-2.9 5.4-4.9 5.4-4.9m-14.2 13.7c.4.1 7.5 5.8 7.7 6.9.2 1.1-5.2 12.2-5.2 12.5 0 .3 7.4-.6 5.8.4-1.5 1.1-4.7 1.4-5.8-.1"/>
    <path stroke="#000" stroke-linecap="round" stroke-linejoin="round" stroke-width=".8" d="m216.3 124-5.2 9.8c-1.8 2.8-7.8 9-7.8 9s6.2-.4 4.8 1.4c-1.4 1.8-5-1.2-5-1.2m25.4-30.7c0 .2-5.2 8-3.1 10.5 1.5 1.6 3.4 2.7 5.5 3.1 0 0 3.2-1.7 3.4-.6.2 1.7-3.3.6-3.3.6m.2-13.1c.1.3 2.1 7.3 3.7 7.5 1.6.2 9.1-3.8 9.9-3.9.8-.1 1.8 1.5 1.5 1.9m5.6-18.9c-.5.3-.8.7-1.1 1.2-.6 1.7-1.3 7.5 2.3 7.4 3.8-.1 4.3-3.8 3.8-5.4-.5-1.6-1.9-5-5-3.2Z"/>
    <path stroke="#000" stroke-linecap="round" stroke-linejoin="round" stroke-width=".8" d="M250.4 103.1c.1-.2 1-1.1 2.8-.6m3.9 3.7c.4 0 17.1 8.3 16.9 12.6-.2 3.4-2.7 4.2-4.1 3.7l-.9-.6c-.9-1.3-7.4-10-10-11.9-2.7-1.8-2.9-3.8-1.9-3.8Zm12.3 16.2a81 81 0 0 0-14 5.8c-.2.9-2.2 15.6-2.5 15.7-.3.1-5.3-2.2-5-.3.3 1.9 4.2.6 4.7.4"/>
    <path stroke="#000" stroke-linecap="round" stroke-linejoin="round" stroke-width=".8" d="M272.2 122.1c-.4.3-7.5 7.8-6.7 9.3.8 1.5 11.5 11.6 11.4 12.1-.1.6-7-1.5-5.7.5 1.2 1.8 5.8 0 5.8 0m-18.3-35.2s-7.9 8.8-10.5 9.7c-2.7.9-4.7-1.2-3.8-1.5m-37.1-53.7-.3.6v.7c.2 1.7 1.2 5.6 4 6 3.6.4 4.1-3.7 2.2-6-1.8-2.2-3.8-3.3-5.9-1.3Z"/>
    <path stroke="#000" stroke-linecap="round" stroke-linejoin="round" stroke-width=".8" d="M210.4 65.6c-1.1.2-2 .8-2.8 1.6m8.4 5.5c-1-1.7-2.4-3.7-3.2-1.3-.3 1.6-.5 3.2-.3 4.8 0 3.3-3.2 9.5-1.3 13 3.5 6.1 7.3-2.5 6.5-9.9a15 15 0 0 0-1.7-6.6Z"/>
    <path stroke="#000" stroke-linecap="round" stroke-linejoin="round" stroke-width=".8" d="M211.2 89.1c-.6.1-7.9 4.6-8.6 5.7-.7 1.2-7.5 12.7-7.8 13.5-.5.9-5.2-.9-5.1.8.1 1.8 4.5.4 4.9-.3m20.3-18.2c.1.4-.6 9.2.3 10.4.9 1.1 10.9 8.8 10.9 9.6 0 .8-4.6 3.4-4 1.7.3-.6.7-1 1.1-1.4a5 5 0 0 1 1.6-.9m-22.9-43.4s-1-1-.8-1.8c.1-.8-1.3-1-1.8.4-.6 1.4 1.5 2 1.5 2 1.2 2.6 2.8 5 4.7 7.2 2.4 2.6 6 .2 6.9-.5m31.2-11.8s-4.7-1.3-6.3 2.6c-1.6 3.9 1.7 5 4.2 3.8 3.1-1.5 4.2-5.6 2.1-6.4Z"/>
    <path stroke="#000" stroke-linecap="round" stroke-linejoin="round" stroke-width=".8" d="M240.1 62.2s2.1 1.8 1.8 2.9m-5.8 4.5s-6.4 9.9-3.6 16a11 11 0 0 0 2.1 3.2c2.5 2.7 4.9 1.8 4.1-1.8-1.1-4.6-2.8-8-1.7-12.2.9-4.3.5-6-.9-5.2Zm-1.3 19.5s-8.1 7.9-8 8.7l1.9 11.9"/>
    <path stroke="#000" stroke-linecap="round" stroke-linejoin="round" stroke-width=".8" d="M238.4 90.1s6.1 19.2 7.1 21.2c.9 2 1.4 5.6 0 5-1.4-.6-1.4-4.6-.5-6.1m-7.6-38.7s3.4 13.7 5.2 15.6c1.8 1.9 4.4 1.2 3 .4l-1.5-.7m-19.2-60.5c.3.1 15 5.4 16 5.5 1 .1 2.2.9 1.7 1.5-.5.6-1.5.1-2-.8m-13.3 13.1c-.1.4-7.7 21.8-7.9 21.8-1.7.7-3.3 1.9-4.4 3.4-.4 1.3 1.6 1.8 4.4-3.3m10.4-21.6 3.9 20.5c.6 1.5 2.6 2.4 2 3.7"/>
    <path stroke="#000" stroke-linecap="round" stroke-linejoin="round" stroke-width=".8" d="M233.9 66.8s-.6 4.4 1.1 4.5a59.5 59.5 0 0 1-8 3c-2.3.5-8.8.8-10-.2m2.9-58.9c-.3.1-4.3 3.9-.7 7.9 3.6 4 5.8-.8 5.5-3.5-.3-2.6-2.5-5.7-4.8-4.4Z"/>
    <path stroke="#000" stroke-linecap="round" stroke-linejoin="round" stroke-width=".8" d="M221 18.6c-.6 0-1.2 0-1.7.3-.5.2-1 .6-1.4 1m5.4 5.1c-1.3.9-2.4 11.7.8 16.9 3.2 5.2 7.9 5.4 6.3.2-1.6-5.2-4.1-7.6-4.3-10.1-.2-2.5-1.1-7.7-2.8-7ZM52.5 81.3s-5.3 1.7-3 6 8.4 6.5 9 2.8c.5-3.7-5-9-6.8-7.9"/>
    <path stroke="#000" stroke-linecap="round" stroke-linejoin="round" stroke-width=".8" d="M54.5 83.3s-1.7 1.8-1.6 2.7m-.9 6.9c-4.6 3.2-5.2 15.5-2.3 23.6 2.6 7.1 6.4 3.8 6 0-.4-3.8-2.1-8.8-2-13.2.1-4.4.9-8 .8-9.4-.2-1.2-1.1-2-2.5-1Z"/>
    <path stroke="#000" stroke-linecap="round" stroke-linejoin="round" stroke-width=".8" d="M52 120.3c0 .4 1.7 10.1 1.7 11.5 0 .9-2.6 12.6-2.6 12.6s3.2-2.1 5.6-.4c.5.3 0 .9-1.9 1-1.3 0-2.5-.1-3.8-.3"/>
    <path stroke="#000" stroke-linecap="round" stroke-linejoin="round" stroke-width=".8" d="m54.8 120.3 2.1 11.3c.3.9-1.4 12-1.4 12 .5-.1 3.3-.5 4.3 0 1.3.7.2 1.5-.8 1.4m-7.4-49.7-1 25.4s0 6.4-1 5.3c-1-1.1-.3-4.3.1-4.6m979.4 22.4c-.5-.6-.6-1.1-1.4-.9-.9.1-1.7.4-2.5.8-.5.4-1.2.2-3.4 0-2.1-.2-4.8.4-5.3 0l-.5-.4c-1 1-.1 1.8-1 1-.9-.7-.9-1.8-1.4-1.4l-.5.4s-3.4-2-3.6-1.7c-.2.3 1.1.9.7 1.6-.4.6-1.1.6-2.1.4-1-.2-1.5.2-2.4.2-.9 0-.5-.5-2-.3l-2.1.3s-1.2-1.1-.6-1.7c.6-.5-.9-.7-1.4 0-.5.7-1.9 2.1-2.5 2-.6-.1-3.6 0-4.1-.2-.5-.2.9-2.2.4-2.5-.5-.3-2.5.3-2.7 1.2-.2.9-1.6-.6-1.6-.6s-.5 1.5-1 1.7a7 7 0 0 1-2.9.2c-1.2-.1-3.1-.1-3.7-.4-.6-.3.1-.8-1.6-.2-1.7.6-1.7 1.4-2.5.6-.7-.7-.2-1.2-1.4-.8m-32.6.2c-.7.3-1.5.3-2.2.2-.7-.3-1.5-.3-2.2-.2-1.1.1-1.9.5-2.4.2-.5-.4-1.3-1.1-1.5-1.1-.2.1.6.6.4.9-.9.3-1.9.4-2.9.1a2 2 0 0 1-1.3-1.2s.5 1-.1 1h-3.3c-1.2 0-1.6.4-1.9.1-.3-.3.5-1.4 1-1.5.5-.1-1.5.1-2.1 1-.5.8-1.8 1.4-2.2.9l-1.3-1.7s1 1.1.4 1.3a47 47 0 0 1-6.5 0m35.9-45.8-.4-.2h-.5l-.4.2-.3.3c-.7 1.2-2.4 4.6-1.1 7.4.6 1.3 1.5 1.4 2.4 1 1.5-.8 2.8-3.5 1.9-6.1-.2-1-.8-1.9-1.6-2.6h0Z"/>
    <path stroke="#000" stroke-linecap="round" stroke-linejoin="round" stroke-width=".8" d="M951 101.3c-.3-.1-1.3-.6-2.1-.2m2.4 5 .8 2.1m.2.2s-2.7 2.9.7 12.2c3.4 9.2 6 8.3 6.4 7.6.5-.7 1.4-3.4-.7-9.8"/>
    <path stroke="#000" stroke-linecap="round" stroke-linejoin="round" stroke-width=".8" d="M951.4 110.5s1.3 7.1 4.7 8.7m-4.8-9s-1.7 6.9-4.7 8.7c-3 1.8-8 1.5-8.7 1.7-.7.2-1.3.7-.7.7.5-.1 1.2.3 1.1.5-.1.2-1.2 2.1-.3 1.8.9-.3 1.1-2.2 1.8-2.3"/>
    <path stroke="#000" stroke-linecap="round" stroke-linejoin="round" stroke-width=".8" d="M952.5 108.3c1.3.1 9.3 4.9 9.9 5.8.6.9-5.8 5-6.1 5.8-.3.8-.5 2.1.4 1.1l1.4-2"/>
    <path stroke="#000" stroke-linecap="round" stroke-linejoin="round" stroke-width=".8" d="M953.5 109c1.7 2.5 4.4 7.7 4.6 9.1m1.3.5c.5.1 3.5 4.8 2.7 7.7a3 3 0 0 1-1.3 1.8c-.7.4-1.5.5-2.2.4m-2.4-1.4a270 270 0 0 1-4.8 15.1c-.9 1.9-5.1-2.1-5.6-1s2.6 2.6 4.1 2.2m10.2-14.6c.6.8 2.3 5 4 6.1 1.6 1.1 9.8 4.1 9.9 4.3.1.2-2.5 5.3-3.1 3.9-.6-1.4.9-2.6 1.8-3.3M935 123.7c-.2 0-1.3.9-1 1.3.3.4.7-.3.7-.3m1.3 1.3-.1.4c-.2.6-.4 1.4-.1 1.2m1.4 1.7c.3.7-.1 1.3-.4 1.1-.3-.2-.3-1.1-.3-1.1m-3.5-1.9c-.4.7.1 1.8.3 1.4.3-.4-.3-1.4-.3-1.4Zm1.6 4.1c.2.8-.2 1.7-.5 1.3m-1.9-1.8c-.7.7-.5 1.4-.3 1.4s.7-.8.7-.8m3.2 3.6c.2.9.3 1.8-.3 1.5-.6-.3-.5-.7-.5-.7m-2.7-.8c-.5.7-.5 1.6 0 1.5l1.3-.8m-3.5-1.4c-.7.6-1.1 1.1-.7 1.3.4.2.9-.4.9-.4m3.2 3.4s.8.5.9.2m-4.9.3s-.2.7-.5.5m-56 33.8a42.2 42.2 0 0 0 42.8-41.6c0-23-19.2-41.6-42.8-41.6a42.2 42.2 0 0 0-42.8 41.6c0 23 19.2 41.6 42.8 41.6Z"/>
    <path stroke="#000" stroke-linecap="round" stroke-linejoin="round" stroke-width=".8" d="M843.8 102c.5 0 3-.2 4.6 1 1.6 1.1 5.8-2.9 8.2-1.5 2.5 1.5 1.8 2.1 3.3 2.3 1.5.2 5 1.8 4 3.1s-4.1 0-1 1.3c3.1 1.3 4.6-.8 5.8 2 1.2 2.8 7.3 5.7 5.8 8.6-1.5 2.9-2.1 3.9-5 2-2.8-2-5-1.3-7.4-2-2.4-.7-3.1-2.4-4.1-1.3-1 1.1 1 5.2-1.5 6.5-2.5 1.3-5.3-1.3-6.1.8-.8 2.1.3 8-3 9.3-3.3 1.3-4.4-.2-6.8-.2-2.3 0-4.4 1-2.8-2.3 1.7-3.3 5-5.4 2.5-5.2-2.5.2-5.3 2.8-7.2 2.8h-2"/>
    <path stroke="#000" stroke-linecap="round" stroke-linejoin="round" stroke-width=".8" d="M860.3 123.4c.8-1.1.3-3.7 3.5-2 3.1 1.8 2.3 2.9 5.6 2.3 3.3-.7 2.5-.8 5.3 2.3 2.8 3.1 5.8 4.9 4.1 6.2-1.6 1.3-1.3-1.1-2.5 2.3s1.8 5.2-2.8 5.4c-4.6.2-4.1-3.4-6.4-1.5-2.3 2-2.8.8-4 3.6-1.2 2.8-.2 1.1 0 6.9.2 5.8-2 15-4.4 14.6-2.5-.3-2-1.3-5.3-2.6s-5.3-1-5.6-6.4c-.3-5.4 1.2-5.2-.2-9.3-1.4-4.1-4.1-3.2-1.3-5.9 2.8-2.6 2.6-.5 4-3.4 1.3-2.9 1.5-2.8 2-5.2.5-2.4-1.6-2.6 1-3.6l3.6-1.5c3.2-1.2 3.4-2.2 3.4-2.2Zm15.1-28.1c-2.7 0-4.1 2.4-1.6 3.9 2.5 1.5 5.1 1.1 5.1 3.7s.8 1 4 2.6 4.8 5.7 5.4 2c.7-3.7-1-4.2 1.2-5.2 2.1-1 7.3-2.6 2.3-4.1-5.4-1.3-10.8-2.3-16.4-2.9h0Zm24.9 5.3c-1.2.5-7.1 1.5-6.1 4.2 1 2.8 3.1.7 1.8 4.6-1.3 3.9-5 3.1-1.6 4.7 2 1 4.1 1.8 6.3 2.3 1.8.5 5.1.5 6.6 4.4 1.5 3.9 4 5 3.5 8.5-.5 3.4.5 5.5 1.7 4.2 1.2-1.3 3-3.9 3-3.9m-1.2 10.7c-.7-1.3-1-1.5-2.5-2.9-1.5-1.5-3-1.3-6.6 0-3.6 1.3-9.6.2-9.9 2.3-.3 2.1.7 1.6-.3 2.1s-6.1-2.4-5.8 2.8c.3 5.2 2.6 6.5 1.7 9.9-1 3.4 2.6 4.2 4.6 7.2 2 2.9 6 2 6 2"/>
    <path stroke="#000" stroke-linecap="round" stroke-linejoin="round" stroke-width=".8" d="M847.1 98.3c-.7-.6-4.3-2.9-5.3-4.9-.3-.7-.7-1.3-1.3-1.8-.5-.5-1.2-.9-1.9-1.1-1.2-.5-2.1-1.6-3.1 1s.2 6.3-1.8 5.7c-2-.6-.8-2.4-3.1-.5-2.3 2-3.5 3.4-5.6 2.1-2.1-1.3-3.6-2.1-3.6-3.9 0-1.8-.5-2.3-1.5-2.4-1-.2-4 .8-5-1.5s-2.5-2.9-1.7-4.4c.8-1.5.2.5.8-1.5.6-2-.8-2.1.2-4.7l1-2.6c-.9-.4-1.7-1-2.2-1.8-.5-.8-.8-1.8-.8-2.8.2-3.4.5-3.6 1.8-4.9 1.3-1.3 0-1.6 2.5-2.9 2.5-1.3 3.5-1.5 4.8-1.3 1.3.2.3-1.5 2.6-2.8 2.3-1.3 3.1 0 3.3-1.3.2-1.3-.3-2.6.8-3.6 1.2-1 1.2-.5 2.1-.3.9.2 1.2-1.3 2.5-2.1s3-1 3.5.2 2 2 2.3 2.3c.3.3 1.3-1.3 3.1-1 1.8.3 3.1 1.5 4.3.3 1.2-1.1 3.1-3.2 4.5-2.1 1.3 1.1 2.6 4.9 2.6 4.9s-1-5.2.3-5.7 3.5-1 3.3-2.6c-.2-1.6.3-5 2.3-5 1.2 0 2.4.3 3.5.8 0 0-.2-3.1 2.3-2.3 2.5.8 4.1 2 5 .7.8-1.3 1.3-2.4 3.3-2.1 2 .3 4.1 1.8 5.1.2s2.1-4.9 4.5-2.9c2.3 2 2.6 3.1 3.8 2.6 1.2-.5 2-2 2.1.6.1 1.5.3 3 .7 4.4 0 0 3.8-1.1 5.1 1 1.3 2.1 5.3-.2 6 2.9a10 10 0 0 1-.5 5.7s2.8-2.1 4.3-.3 2.6-2.1 4.4-.2c1.8 2 2.6 3.7 3.3 3.1.7-.6 4.5-.2 5.6 1.1 1.2 1.3 3.8-2.8 5.8-.2.9 1.3 2 2.5 3.1 3.6 0 0 4.6-1.6 4.1 1.3a7.5 7.5 0 0 1-2.8 4.6s3.6.7 4 2.4l.3 1.8s4-2 4 1.1-4.1 6-5.1 5.9c-1-.1-.3 5.7-1.6 6.4-1.3.6 3.3 5.2.5 6.9-.8.5-1.8.7-2.7.8a6 6 0 0 1-2.7-.6s0 3.7-2.3 3.9c-2.3.2-4.3-1.3-4.3-3.4v-3.8s-2.5 2.1-3.6.5c-1.2-1.6-2.5-4.1-4.6-3.1a38 38 0 0 0-8.1 10.3"/>
    <path stroke="#000" stroke-linecap="round" stroke-linejoin="round" stroke-width=".8" d="M858.7 92c-1.2-1-.5-3.9-2-3.2-1 .5-2.2.7-3.3.6-1.2 0-1 3.1-3.3 2l-3.1-1.5s-.3 2.8-2.8.5-2.3-4.4-2.3-4.4-5.4.5-4.6-1.8c.8-2.3 2.8-2.1 2.3-3.7s0-1.1.2-3.9-2.5-5 .3-6.4c2.8-1.3 5.8 1.1 6-1.1.2-2.3-.8-3.2 2.3-3.7 3.1-.5 5-.3 5-.8s2.5-3.7 5.6-2.6c1.5.5 2.9 1.1 4.3 2 0 0 1-1.3 1.6 1.1.7 2.4 1 4.1 1.7 4.1s2 3.1 3.3 1.6c1.3-1.5 1.8-2.1 3.3-1.3 1.5.8.8 3.6 3.1 1.6s3.6-1.8 4.6-1.8c1 0 .7-1 2.1-2.3 1.5-1.3 2.5.2 4-.5 1.5-.6 1.5-1.3 2.8-.3 1.3 1 2.1 2.8 3.1 1.5.6-.7 1.5-1.2 2.4-1.4.9-.2 1.9-.1 2.7.3 1.8.8 3-1 4.1.6 1.1 1.6.7 2.9 1.5 2.4s4 .2 2.6 2.6c-1.3 2.4 2 2.4 1.5 4.2-.2.5-.6 1-1 1.4-.5.3-1 .6-1.6.6 0 0 .3 2.4-.2 3.4s3.3 2.9.7 3.4c-1.6.3-3.2 0-4.6-.8 0 0 1.3 2.4-.8 2.8-.8.2-1.7.2-2.6 0a5 5 0 0 1-2.2-1.3c-1.5-1.3-4-1.5-4.5-.3-.5 1.1-2.6 3.7-2.5 6.5"/>
    <path stroke="#000" stroke-linecap="round" stroke-linejoin="round" stroke-width=".8" d="M884.3 91a8.5 8.5 0 0 0 1.2-4.9c-.2-2.1-1.2-3.1-2-3.1s-1.2 1-2.3 0c-1.2-1-2.8.7-3.5-1-.7-1.6 1.3-1.8-.3-3.3-1.7-1.5-3-.6-1.3-3.2s2.1-1.6 2-3.4c-.2-1.8 0-2.3 1-2.9m-6.1.1c-.2 1.1-.3 7.5.7 8.6m-4-7.3s.3 2.8-.7 3.6c-1 .8-1.8 1-1.2 2.1.7 1.1 2.8 1.1.2 2.4-2.6 1.3-3.5 1.8-3.5.7s1.8-2 0-1.1c-1.8.8-3 3.6-3.5 2.1s.3-2.9-1.5-1.5c-1.8 1.5-2.1-2.6-3-1.5-.8 1.1 1.3 3.7-.5 4.2s-4.6.8-3.6 1.1c1 .3 4.3 1.5 4.8 2.6"/>
    <path stroke="#000" stroke-linecap="round" stroke-linejoin="round" stroke-width=".8" d="M862.4 90.8c-.3-.6-4.8-2.8-2.1-8.8m9.4-2.8a7 7 0 0 1 1.3 3.9c-.1 2.1-.2 4.2-.5 6.4m6.4-6s-.2 5 .2 5.9m10.2-4.5c.2-2.8-1.8-4.2-.7-4.7 1.2-.5.3 2.4 2.5 1.6 2.1-.8 2.1-1.5 3.8-.6 1 .5 1.9 1.3 2.6 2.3m2.2 4.4c.1 1.6 0 3.3-.3 4.9-.4 1.2-1 2.2-2 2.9M221.9 27.4c-.2.2-12.8 9.6-13.4 10.4-.6.8-2 1.3-2.2.6-.2-.7.7-1.3 1.7-1.2"/>
  </g>
</svg>

