<svg xmlns="http://www.w3.org/2000/svg" fill="none" viewBox="-338 0 1440 175">
  <path stroke="#444" stroke-linecap="round" stroke-linejoin="round" stroke-width=".8" d="M1011.6 97.4s-7 18.5-4.4 24.4c2.6 6 7 1.3 7 1.3l-1.3-20c0-2.7.2-6.1-1.3-5.7Zm2.2-9.9s-4 2.5-3.6 5.5c.3 3 2.2 4.8 4.1 2.3 2-2.5 1.9-7.4-.5-7.8Z"/>
  <path stroke="#444" stroke-linecap="round" stroke-linejoin="round" stroke-width=".8" d="M1008 123.4c-1.2 4-2 8.2-2 12.4-.3 7.6.2 8.7.2 8.7s-5.4-2.3-5.6-.2c0 1 5.5.4 5.5.4m7.3-20.5c.3 3 1 6 2.2 8.8 1.7 3.6 4.7 11.6 4.7 11.6s-5.4-2.1-5.4-.1c0 1 5.3.4 5.3.4m-9.4-45.8s-3.6 8.3-7 12.2m7.2-20.6c.4-.3 2.1.2 2.6.4"/>
  <path fill="#fff" stroke="#444" stroke-linecap="round" stroke-linejoin="round" stroke-width=".8" d="m992 110 14.4-4c2.3-.6 12.5-3.2 16.8-4.5 4.3-1.3 10-3.5 12-3.6 2-.2 4-.6 5.8-1l4 17s-9 4-11.2 4.3c-2.2.3-18.4 5-18.4 5s-18.9 4.9-18.9 4.5L992 110Z"/>
  <path stroke="#444" stroke-linecap="round" stroke-linejoin="round" stroke-width=".8" d="m1005.7 111.8 19.8-4.8m-24.2 12.3 34.9-9.1m-23.4-11.5s4.4 10.2 4.7 12.3c.3 2.7-.8 8.4-.8 8.4.1-.2-2.5.3-2.2 1.7.3 1 2-.6 2-.6M852.9 83.2H866l37.8-.6s24 .9 24 .4c-.5-1.8-.8-3.7-.7-5.6l.7-5.8-75.3.2.3 11.4Z"/>
  <path stroke="#444" stroke-linecap="round" stroke-linejoin="round" stroke-width=".8" d="m891 75-23.8.2c-1 0-2.8.5-2.7 2.3 0 2.2 2 1.7 2.5 1.8a4701.2 4701.2 0 0 0 47.4-.2 1.1 1.1 0 0 0 .7-1.1c0-.8.4-2.1-.2-2.5-1-.6-5-.4-5-.4m-57 8.1s1 11.2.5 14.1c-.6 3-1.7 31-1.3 32.6.4 1.7 0 14.1 0 14.1m75.7-61 .4 14.7-1 32.6v13.2m-52.4-43.3a683 683 0 0 1 28.9 1.1l1 27.5s-12.7-.7-17.1-.3c-4.1.1-8.3 0-12.4-.2l.4-20.2c-.1-2.6-.3-5.3-.8-7.9v0Z"/>
  <path stroke="#444" stroke-linecap="round" stroke-linejoin="round" stroke-width=".8" d="M881.9 109c1.3-.2 8.7 11 8.7 10.5 0-.6 7.4-11 7.4-11"/>
  <path fill="#fff" stroke="#444" stroke-linecap="round" stroke-linejoin="round" stroke-width=".8" d="M895.4 78.8 882 67.4s22-20 25.5-22.9c3.5-3 8.9-9.5 8.9-9.5l17.9 14-28.5 30-10.4-.3Z"/>
  <path fill="#fff" d="M911.8 48S897 62.7 897 62.1L911.8 48Z"/>
  <path stroke="#444" stroke-linecap="round" stroke-linejoin="round" stroke-width=".8" d="M911.8 48S897 62.7 897 62.1m25.4-11.9-20.7 18.1m29.5-17.4s-1.6 1.7-.5 2c1.1.4.9.5.9.5s2.3 12.3 5 16.9c2.8 4.5 2.3 3.5 2.3 3.5m-10.2-18.6s2 7.2 3.6 11.4c1 2.7 4.7 7.1 4.7 7.1"/>
  <path stroke="#444" stroke-linecap="round" stroke-linejoin="round" stroke-width=".8" d="M938.2 71.2c-.3 0-4.5 15.3-1.8 20 3.4 3.6 6 .6 6 .3s0-1.4-1.1-5.4c-1.2-4-1.2-9.5-1.4-12-.2-2.6-.3-3-1.7-3Zm1.4-8.1c.3-.1 3.1 0 3.3 2.4.1 2.3-1.8 4.9-3.2 4.9a2.7 2.7 0 0 1-2-1.2 2.6 2.6 0 0 1-.4-2.3c1-3 2.6-3 3.6-3.2"/>
  <path stroke="#444" stroke-linecap="round" stroke-linejoin="round" stroke-width=".8" d="M938.5 64.8s1.5.7 1.8 1.3m-2.6 26.5 5.3 25.3c0 .4-1.2 4.7-.4 4.8 2.1.2.8-3.6.7-4.4M941 93c.4.5 9 21.8 11.4 24 2.4 2.4 3.5 2.8 3.1 1.3-.3-1.6-3.1-1.6-3.1-1.6"/>
  <path stroke="#444" stroke-linecap="round" stroke-linejoin="round" stroke-width=".8" d="M939.8 124.5s-1.8 1.7-.6 2.9c1.2 1.1 5-1.5 8.2-.8 3.2.7 4 3.7 6 3.8 2 .1 5-2.1 4-4.2-1.1-2-6.9-7.3-17.6-1.7Zm-5-2.8a5.8 5.8 0 0 0-1 6c1.5 3.5 4 1.3 4.1 0 .1-1.9 0-3.7-.6-5.4a2 2 0 0 0-2.5-.6v0Z"/>
  <path stroke="#444" stroke-linecap="round" stroke-linejoin="round" stroke-width=".8" d="M933.7 125.4s1.4-.7 2.2-.2m18.1 4a59 59 0 0 0-6.1 4.3c0 .3 7 10 7 10.3 0 .3-3-2-4.2-.3-1 1.2 4 .7 4.2.6"/>
  <path stroke="#444" stroke-linecap="round" stroke-linejoin="round" stroke-width=".8" d="M941.3 127.4c2.8-.8 5.6-1.4 8.4-1.9.3.2-.7 6.6-.7 6.6s-2.8-.3-2.8.6c0 1 1.6.7 1.6.7l-.6 10.5s-3.5-1.7-4.2-.2c-.5 1.2 3.9.4 3.9.4M666.8 99a1.7 1.7 0 0 0-1.6 1c-.8 1.8-1.7 5.3 0 7.5 2.3 3 4.7 0 5-2.2.3-2 0-6.2-3.4-6.2Z"/>
  <path stroke="#444" stroke-linecap="round" stroke-linejoin="round" stroke-width=".8" d="M665.6 99.7c.2-.2 1.4-2 3.4-1m1 3.7a4 4 0 0 0-2.5.3m-3.8 3.3a26.8 26.8 0 0 0-14 8.3c-6.1 6.9-3.7 9.2-.7 8.3 3-.9 5.8-6.4 10.2-9.5 4.4-3.2 5.9-5.3 5.9-5.3m-15.5 14.7c.5.1 8.2 6.3 8.3 7.5.2 1.2-5.6 13.2-5.6 13.5 0 .3 8-.6 6.3.5-1.6 1.2-5 1.5-6.3-.1"/>
  <path stroke="#444" stroke-linecap="round" stroke-linejoin="round" stroke-width=".8" d="m646.6 122.4-5.7 10.6c-2 3-8.4 9.8-8.4 9.8s6.7-.4 5.2 1.5-5.4-1.3-5.4-1.3m27.4-33.2c0 .2-5.6 8.7-3.4 11.4 1.6 1.7 3.7 2.9 6 3.3 0 0 3.5-1.8 3.6-.6.3 1.8-3.5.7-3.5.7m.2-14.2c.1.3 2.3 7.9 4 8.1 1.7.2 9.8-4.1 10.7-4.2 1 0 2 1.6 1.7 2m6-20.5c-.5.4-.9.8-1.2 1.3-.6 1.8-1.3 8.1 2.5 8 4.1 0 4.7-4.1 4.1-5.8-.5-1.7-2-5.4-5.4-3.5Z"/>
  <path stroke="#444" stroke-linecap="round" stroke-linejoin="round" stroke-width=".8" d="M683.4 99.9c.1-.3 1.1-1.2 3-.7m4.2 4c.4 0 18.5 9 18.2 13.7-.2 3.7-2.9 4.5-4.4 4a2 2 0 0 1-1-.6c-1-1.4-8-10.8-10.8-12.9-2.8-2-3-4.2-2-4.2Z"/>
  <path stroke="#444" stroke-linecap="round" stroke-linejoin="round" stroke-width=".8" d="M704 120.7c-.6 0-15 5.4-15.2 6.3-.2 1-2.3 16.9-2.6 17-.3.1-5.7-2.4-5.4-.3.3 2 4.5.6 5 .4m21.2-23.7c-.5.3-8.2 8.5-7.3 10.1 1 1.6 12.5 12.5 12.4 13.1 0 .6-7.6-1.6-6.2.6 1.3 2 6.3 0 6.3 0M692.4 106s-8.6 9.5-11.4 10.5c-3 1-5-1.3-4.2-1.6m-40-58.1a1.5 1.5 0 0 0-.4 1.4c.2 1.8 1.2 6 4.3 6.4 3.9.5 4.4-4 2.4-6.4-2-2.4-4.1-3.6-6.3-1.4Z"/>
  <path stroke="#444" stroke-linecap="round" stroke-linejoin="round" stroke-width=".8" d="M640.1 59.3c-1.1.3-2.2.9-3 1.8m9.1 5.9c-1-1.8-2.6-4-3.5-1.4-.3 1.6-.5 3.4-.3 5.1 0 3.6-3.6 10.3-1.4 14 3.8 6.7 7.9-2.7 7-10.7a17 17 0 0 0-1.8-7ZM641 84.8a44 44 0 0 0-9.4 6.1l-8.4 14.6c-.6 1-5.7-1-5.6.9.1 2 4.9.4 5.3-.4"/>
  <path stroke="#444" stroke-linecap="round" stroke-linejoin="round" stroke-width=".8" d="M645 86.4c0 .4-.7 10 .3 11.2 1 1.2 11.8 9.5 11.8 10.4 0 1-5 3.7-4.4 1.8a5 5 0 0 1 3-2.5m-26-46.3a32 32 0 0 0 5 7.7c2.6 2.9 8.6-.9 9.6-1.6M676 55.5s-5-1.4-6.8 2.9c-1.7 4.2 1.8 5.4 4.5 4 3.4-1.6 4.7-6 2.3-6.9Z"/>
  <path stroke="#444" stroke-linecap="round" stroke-linejoin="round" stroke-width=".8" d="M672.3 55.6s2.2 2 2 3.1m-6.3 4.9s-7 10.6-4 17.3c.6 1.2 1.4 2.4 2.3 3.4 2.7 2.9 5.3 2 4.4-2-1.2-5-3-8.7-1.9-13.2s.7-6.3-.9-5.5Zm-1.5 21.2s-8.8 8.5-8.6 9.3c0 .9 2 12.9 2 12.9"/>
  <path stroke="#444" stroke-linecap="round" stroke-linejoin="round" stroke-width=".8" d="M670.4 85.8s6.6 20.7 7.7 22.9c1 2.2 1.4 6 0 5.4-1.5-.7-1.6-5-.6-6.7m-8.1-41.8a87 87 0 0 0 5.6 16.9c1.9 2 4.7 1.2 3.1.4l-1.6-.8m-48.4-46.6s-4.8 18.6-10.6 21.8c0 0 1.9 2.8.6 4m-6.6-58c-.4 1.5.8 6.3 5 7.4 4.1 1 6.8-1 5.5-4a11.5 11.5 0 0 0-5.8-5.8c-1.4-.6-3.8-.9-4.7 2.4Z"/>
  <path stroke="#444" stroke-linecap="round" stroke-linejoin="round" stroke-width=".8" d="M616.1 4.5c-.5 0-2.1 1.6-2.8 4.3m8.7 2.5c1.3-1 16 10.5 13 21.1-2.4 8.1-8.7 3.3-8.1-1.5.5-4.8-1.3-12-4.1-15.1-2.7-2.7-2-3.7-.8-4.5Z"/>
  <path stroke="#444" stroke-linecap="round" stroke-linejoin="round" stroke-width=".8" d="M621.3 14s-9.7 12.5-15.4 13.8c-5.7 1.4-7.5 2.3-5.8 3.2 1.7 1 3.7-2.7 3.7-2.7M629.7 17c.3.2 6 7.3 9.4 5.8a13.2 13.2 0 0 0 4.8-3.5c.2-.4-3.7-3-3.1-1 .4 1.5 1.4 1.4 1.7 1.4m.8.3s1.6 5.6 2.6 5.5c1-.1 7-6.2 7.1-6.7M633.5 36l6.7 19.6m15.6-38c.3.1 16.3 6 17.3 6 1.1.2 2.4 1 1.9 1.6-.6.6-1.6.1-2.2-.8m-14.3 13.2c-.2.4-8.4 23.6-8.6 23.7-2 .7-3.6 2-4.8 3.7-.4 1.4 1.7 2 4.8-3.6M661.2 38l4.2 22.1c.7 1.6 2.8 2.6 2.2 4m-2-3.5s-.7 4.7 1.1 4.8a51 51 0 0 1-8.7 3.2c-2.5.6-9.4.9-10.8-.2M614.9 57s-3.5 8.6-7.5 16.5c-2.5 5 1.8 6.9 5 2.8a31 31 0 0 0 4.8-16.8c-.3-3.1-1.6-3-2.3-2.5Zm.5-12.6s-4.5 2.2-2.5 6.5 6.5 4.7 6.5.6c0-4.2-1.8-7.7-4-7.1Z"/>
  <path stroke="#444" stroke-linecap="round" stroke-linejoin="round" stroke-width=".8" d="M614.5 60s3.3 5.7 7.3 4.7c3-.8 5.7-2.1 8.1-3.8 0 0-2.2-4.2-2.8-.8-.3 1.5 2.6.7 2.6.7m-22.5 17.1s.5 8.8-.1 10.2c-.3.7-7.9 6.1-8.1 7-.3.9 3.8 2 4.7 1.2 2-1.7-3.2-2-4.4-1.5M610.8 78c.2.2 3.1 9.8 3 10.7 0 .9-.6 10.7-.2 11.7.5 1.1 1.6 5.3.4 5.2-2-.2-1.1-4.5-1-5m5.9-51a4 4 0 0 0-3.4-.4m39.9-45.1c-.3 0-6 2-4 7.6 1.8 5.5 6 1.7 6.9-1 .8-2.8-.1-6.9-2.9-6.6Z"/>
  <path stroke="#444" stroke-linecap="round" stroke-linejoin="round" stroke-width=".8" d="M655 8a4.1 4.1 0 0 0-3.7-.1m2.7 7.5c-1.4 1-2.6 12.7.9 18.3 3.5 5.6 8.5 5.9 6.8.2-1.8-5.6-5.3-9-5.5-11.8-.2-2.7-.3-7.4-2.1-6.7ZM484.1 81.5s-5.3 1.7-3 6c2.4 4.3 8.5 6.4 9 2.8.5-3.7-5-9-6.8-7.9"/>
  <path stroke="#444" stroke-linecap="round" stroke-linejoin="round" stroke-width=".8" d="M486.1 83.5s-1.7 1.8-1.6 2.7m-.9 6.8c-4.5 3.3-5.2 15.6-2.2 23.7 2.5 7 6.3 3.7 6 0-.5-3.8-2.2-8.8-2-13.2 0-4.5.9-8 .7-9.5-.2-1.2-1-2-2.5-1Z"/>
  <path stroke="#444" stroke-linecap="round" stroke-linejoin="round" stroke-width=".8" d="M483.6 120.5c0 .4 1.8 10.1 1.7 11.5 0 1-2.6 12.6-2.6 12.6s3.1-2.1 5.6-.4c.5.3 0 .9-1.9 1a29 29 0 0 1-3.8-.3"/>
  <path stroke="#444" stroke-linecap="round" stroke-linejoin="round" stroke-width=".8" d="M486.4 120.4c0 .4 1.8 10.4 2.1 11.3.3.9-1.4 12-1.4 12 .5 0 3.3-.5 4.3 0 1.3.7.3 1.6-.8 1.5m-7.4-49.8-1 25.5s0 6.4-1 5.2c-1-1.1-.3-4.2.1-4.6M1102 145H-338"/>
</svg>
