<svg xmlns="http://www.w3.org/2000/svg" fill="none" viewBox="-336 0 1440 175">
  <path stroke="#444" stroke-linecap="round" stroke-linejoin="round" stroke-width=".8" d="M606.8 99a1.7 1.7 0 0 0-1.6 1c-.8 1.8-1.7 5.3 0 7.5 2.3 3 4.7 0 5-2.2.3-2 0-6.2-3.4-6.2Z"/>
  <path stroke="#444" stroke-linecap="round" stroke-linejoin="round" stroke-width=".8" d="M605.6 99.7c.2-.2 1.4-2 3.4-1m1 3.7a4 4 0 0 0-2.5.3m-3.8 3.3a26.8 26.8 0 0 0-14 8.3c-6.1 6.9-3.7 9.2-.7 8.3 3-.9 5.8-6.4 10.2-9.5 4.4-3.2 5.9-5.3 5.9-5.3m-15.5 14.7c.5.1 8.2 6.3 8.3 7.5.2 1.2-5.6 13.2-5.6 13.5 0 .3 8-.6 6.3.5-1.6 1.2-5 1.5-6.3-.1"/>
  <path stroke="#444" stroke-linecap="round" stroke-linejoin="round" stroke-width=".8" d="m586.6 122.4-5.7 10.6c-2 3-8.4 9.8-8.4 9.8s6.7-.4 5.2 1.5-5.4-1.3-5.4-1.3m27.4-33.2c0 .2-5.6 8.7-3.4 11.4 1.6 1.7 3.7 2.9 6 3.3 0 0 3.5-1.8 3.6-.6.3 1.8-3.5.7-3.5.7m.2-14.2c.1.3 2.3 7.9 4 8.1 1.7.2 9.8-4.1 10.7-4.2 1 0 2 1.6 1.7 2m6-20.5c-.5.4-.9.8-1.2 1.3-.6 1.8-1.3 8.1 2.5 8 4.1 0 4.7-4.1 4.1-5.8-.5-1.7-2-5.4-5.4-3.5Z"/>
  <path stroke="#444" stroke-linecap="round" stroke-linejoin="round" stroke-width=".8" d="M623.4 99.9c.1-.3 1.1-1.2 3-.7m4.2 4c.4 0 18.5 9 18.2 13.7-.2 3.7-2.9 4.5-4.4 4a2 2 0 0 1-1-.6c-1-1.4-8-10.8-10.8-12.9-2.8-2-3-4.2-2-4.2Z"/>
  <path stroke="#444" stroke-linecap="round" stroke-linejoin="round" stroke-width=".8" d="M644 120.7c-.6 0-15 5.4-15.2 6.3-.2 1-2.3 16.9-2.6 17-.3.1-5.7-2.4-5.4-.3.3 2 4.5.6 5 .4m21.2-23.7c-.5.3-8.2 8.5-7.3 10.1 1 1.6 12.5 12.5 12.4 13.1 0 .6-7.6-1.6-6.2.6 1.3 2 6.3 0 6.3 0M632.4 106s-8.6 9.5-11.4 10.5c-3 1-5-1.3-4.2-1.6m-40-58.1a1.5 1.5 0 0 0-.4 1.4c.2 1.8 1.2 6 4.3 6.4 3.9.5 4.4-4 2.4-6.4-2-2.4-4.1-3.6-6.3-1.4Z"/>
  <path stroke="#444" stroke-linecap="round" stroke-linejoin="round" stroke-width=".8" d="M580.1 59.3c-1.1.3-2.2.9-3 1.8m9.1 5.9c-1-1.8-2.6-4-3.5-1.4-.3 1.6-.5 3.4-.3 5.1 0 3.6-3.6 10.3-1.4 14 3.8 6.7 7.9-2.7 7-10.7a17 17 0 0 0-1.8-7ZM581 84.8a44 44 0 0 0-9.4 6.1l-8.4 14.6c-.6 1-5.7-1-5.6.9.1 2 4.9.4 5.3-.4"/>
  <path stroke="#444" stroke-linecap="round" stroke-linejoin="round" stroke-width=".8" d="M585 86.4c0 .4-.7 10 .3 11.2 1 1.2 11.8 9.5 11.8 10.4 0 1-5 3.7-4.4 1.8a5 5 0 0 1 3-2.5m-26-46.3a32 32 0 0 0 5 7.7c2.6 2.9 8.6-.9 9.6-1.6M616 55.5s-5-1.4-6.8 2.9c-1.7 4.2 1.8 5.4 4.5 4 3.4-1.6 4.7-6 2.3-6.9Z"/>
  <path stroke="#444" stroke-linecap="round" stroke-linejoin="round" stroke-width=".8" d="M612.3 55.6s2.2 2 2 3.1m-6.3 4.9s-7 10.6-4 17.3c.6 1.2 1.4 2.4 2.3 3.4 2.7 2.9 5.3 2 4.4-2-1.2-5-3-8.7-1.9-13.2s.7-6.3-.9-5.5Zm-1.5 21.2s-8.8 8.5-8.6 9.3c0 .9 2 12.9 2 12.9"/>
  <path stroke="#444" stroke-linecap="round" stroke-linejoin="round" stroke-width=".8" d="M610.4 85.8s6.6 20.7 7.7 22.9c1 2.2 1.4 6 0 5.4-1.5-.7-1.6-5-.6-6.7m-8.1-41.8a87 87 0 0 0 5.6 16.9c1.9 2 4.7 1.2 3.1.4l-1.6-.8m-48.4-46.6s-4.8 18.6-10.6 21.8c0 0 1.9 2.8.6 4m-6.6-58c-.4 1.5.8 6.3 5 7.4 4.1 1 6.8-1 5.5-4a11.5 11.5 0 0 0-5.8-5.8c-1.4-.6-3.8-.9-4.7 2.4Z"/>
  <path stroke="#444" stroke-linecap="round" stroke-linejoin="round" stroke-width=".8" d="M556.1 4.5c-.5 0-2.1 1.6-2.8 4.3m8.7 2.5c1.3-1 16 10.5 13 21.1-2.4 8.1-8.7 3.3-8.1-1.5.5-4.8-1.3-12-4.1-15.1-2.7-2.7-2-3.7-.8-4.5Z"/>
  <path stroke="#444" stroke-linecap="round" stroke-linejoin="round" stroke-width=".8" d="M561.3 14s-9.7 12.5-15.4 13.8c-5.7 1.4-7.5 2.3-5.8 3.2 1.7 1 3.7-2.7 3.7-2.7M569.7 17c.3.2 6 7.3 9.4 5.8a13.2 13.2 0 0 0 4.8-3.5c.2-.4-3.7-3-3.1-1 .4 1.5 1.4 1.4 1.7 1.4m.8.3s1.6 5.6 2.6 5.5c1-.1 7-6.2 7.1-6.7M573.5 36l6.7 19.6m15.6-38c.3.1 16.3 6 17.3 6 1.1.2 2.4 1 1.9 1.6-.6.6-1.6.1-2.2-.8m-14.3 13.2c-.2.4-8.4 23.6-8.6 23.7-2 .7-3.6 2-4.8 3.7-.4 1.4 1.7 2 4.8-3.6M601.2 38l4.2 22.1c.7 1.6 2.8 2.6 2.2 4m-2-3.5s-.7 4.7 1.1 4.8a51 51 0 0 1-8.7 3.2c-2.5.6-9.4.9-10.8-.2M554.9 57s-3.5 8.6-7.5 16.5c-2.5 5 1.8 6.9 5 2.8a31 31 0 0 0 4.8-16.8c-.3-3.1-1.6-3-2.3-2.5Zm.5-12.6s-4.5 2.2-2.5 6.5 6.5 4.7 6.5.6c0-4.2-1.8-7.7-4-7.1Z"/>
  <path stroke="#444" stroke-linecap="round" stroke-linejoin="round" stroke-width=".8" d="M554.5 60s3.3 5.7 7.3 4.7c3-.8 5.7-2.1 8.1-3.8 0 0-2.2-4.2-2.8-.8-.3 1.5 2.6.7 2.6.7m-22.5 17.1s.5 8.8-.1 10.2c-.3.7-7.9 6.1-8.1 7-.3.9 3.8 2 4.7 1.2 2-1.7-3.2-2-4.4-1.5M550.8 78c.2.2 3.1 9.8 3 10.7 0 .9-.6 10.7-.2 11.7.5 1.1 1.6 5.3.4 5.2-2-.2-1.1-4.5-1-5m5.9-51a4 4 0 0 0-3.4-.4m39.9-45.1c-.3 0-6 2-4 7.6 1.8 5.5 6 1.7 6.9-1 .8-2.8-.1-6.9-2.9-6.6Z"/>
  <path stroke="#444" stroke-linecap="round" stroke-linejoin="round" stroke-width=".8" d="M595 8a4.1 4.1 0 0 0-3.7-.1m2.7 7.5c-1.4 1-2.6 12.7.9 18.3 3.5 5.6 8.5 5.9 6.8.2-1.8-5.6-5.3-9-5.5-11.8-.2-2.7-.3-7.4-2.1-6.7ZM424.1 81.5s-5.3 1.7-3 6c2.4 4.3 8.5 6.4 9 2.8.5-3.7-5-9-6.8-7.9"/>
  <path stroke="#444" stroke-linecap="round" stroke-linejoin="round" stroke-width=".8" d="M426.1 83.5s-1.7 1.8-1.6 2.7m-.9 6.8c-4.5 3.3-5.2 15.6-2.2 23.7 2.5 7 6.3 3.7 6 0-.5-3.8-2.2-8.8-2-13.2 0-4.5.9-8 .7-9.5-.2-1.2-1-2-2.5-1Z"/>
  <path stroke="#444" stroke-linecap="round" stroke-linejoin="round" stroke-width=".8" d="M423.6 120.5c0 .4 1.8 10.1 1.7 11.5 0 1-2.6 12.6-2.6 12.6s3.1-2.1 5.6-.4c.5.3 0 .9-1.9 1a29 29 0 0 1-3.8-.3"/>
  <path stroke="#444" stroke-linecap="round" stroke-linejoin="round" stroke-width=".8" d="M426.4 120.4c0 .4 1.8 10.4 2.1 11.3.3.9-1.4 12-1.4 12 .5 0 3.3-.5 4.3 0 1.3.7.3 1.6-.8 1.5m-7.4-49.8-1 25.5s0 6.4-1 5.2c-1-1.1-.3-4.2.1-4.6m681.9 22.8c-.7-.8-.9-1.4-1.9-1.2-1.2.2-2.4.6-3.4 1.1-.7.5-1.8.3-4.7 0-3-.3-6.7.5-7.4 0l-.7-.5c-1.3 1.3-.1 2.2-1.3 1.3-1.2-1-1.2-2.2-2-1.7l-.6.5s-4.7-2.5-5-2c-.3.3 1.6 1 1 1.9-.5.8-1.5.8-3 .5-1.3-.3-2 .3-3.2.3-1.2 0-.7-.7-2.7-.4l-3 .4s-1.7-1.5-.8-2.1c.8-.7-1.2-1-1.9 0-.7.9-2.6 2.6-3.4 2.4-.9 0-5 0-5.7-.2-.7-.3 1.2-2.8.5-3.2-.7-.3-3.4.4-3.8 1.6-.3 1.2-2.2-.8-2.2-.8s-.7 1.9-1.4 2.1a11 11 0 0 1-4 .3c-1.7-.1-4.3-.1-5.1-.5-.9-.4.2-1-2.3-.3-2.4.8-2.4 1.7-3.4.8-1-1-.3-1.6-1.9-1m-30.9-.2a4 4 0 0 1-2.2.2c-.7-.2-1.5-.3-2.2-.2-1.1.1-2 .6-2.5.2-.5-.3-1.3-1.1-1.5-1-.2 0 .6.6.4.8-1 .4-2 .4-2.9.2-.6-.2-1-.6-1.3-1.2 0 0 .4 1 0 1h-3.4c-1.3 0-1.6.4-2 0-.2-.2.6-1.3 1-1.4.6-.1-1.5.1-2 1-.5.8-1.8 1.3-2.2.9l-1.3-1.7s1 1 .4 1.3c-1.6.3-3.2.3-4.7.1m-87 .2s-2.8-1.1-4-1c-1.3.1-1.9.1-1.1-1.2l.7-1.4c-1 .8-1.9 1.6-2.7 2.5-1.1 1.2-2.4-.8-2.1-1.6.2-.9.5 2.6-.5 2.6s-3.7-1-5-.5c-1.4.7-3.3 1.3-3.3.3s1.1-2.6.6-2.7c-.4-.1-1.8 1-2 2-.3.8-2.5-1.9-2.5-1.9s2.3 3 1.2 3c-1.1.2-4 .7-4.8.3-.8-.4.2-.5-1.8-.6-2-.1-2.2-1.6-3.5-1.2-1.4.3-2 .2-3.3 1-1.2 1-6 .3-8 .4m0 0c-1.9.1 1.2-.2 0 0Zm0 0c-1 .3-1.9 1-2.4.3m-30.7-.4s-3.7 1.2-5 .1c-1.4-1-2.1-2.3-2.6-1-.5 1.2-.7 1.8-2.9 1.8s-9.1-1-10-.5c-.9.3-.6 1.4-1.6.7-1-.8-1.2-2.7-1.7-1.7-.5 1-1.6 0-2.5-1-.9-1.1-2.5-2.6-2.1-1.2.4 1.3 1.7 3.7-.1 3.1-1.9-.6-3.1-1-4.1-.3-1 .6-.3 1.2-1.9.8-1.6-.4-2.2.9-2.8-.1-.6-1 .4-3 0-3.3-.4-.4-2.5.5-3.1 1.6-.6 1-.9 2.5-1.9 2-1-.7-.7-1.5-2.2-1.2-1.5.4-.5 1.4-1.5.4-1-1 0-3-.5-3.3-.3-.4-2.7.8-2.3 2.2.4 1.3-1.1.6-1.1.6s-.5-2.2-1.4-2c-.8.3-.5 2.3-1.1 2.3"/>
  <path stroke="#444" stroke-linecap="round" stroke-linejoin="round" stroke-width=".8" d="M758.4 143.7s-3.7 1.2-5 .1c-1.4-1-2.1-2.3-2.6-1-.5 1.2-.7 1.8-2.9 1.8s-9.1-1-10-.5c-.9.3-.6 1.4-1.6.7-1-.8-1.2-2.7-1.7-1.7-.5 1-1.6 0-2.5-1-.9-1.1-2.5-2.6-2.1-1.2.4 1.3 1.7 3.7-.1 3.1-1.9-.6-3.1-1-4.1-.3-1 .6-.3 1.2-1.9.8-1.6-.4-2.2.9-2.8-.1-.6-1 .4-3 0-3.3-.4-.4-2.5.5-3.1 1.6-.6 1-.9 2.5-1.9 2-1-.7-.7-1.5-2.2-1.2-1.5.4-.5 1.4-1.5.4-1-1 0-3-.5-3.3-.3-.4-2.7.8-2.3 2.2.4 1.3-1.1.6-1.1.6s-.5-2.2-1.4-2c-.8.3-.5 2.3-1.1 2.3m300.9-46-.5-.1h-.4c-.2 0-.3 0-.4.2l-.3.3c-.7 1.2-2.4 4.6-1.2 7.4.6 1.2 1.5 1.4 2.4 1 1.5-.9 2.8-3.6 2-6.2a5 5 0 0 0-1.6-2.6v0Z"/>
  <path stroke="#444" stroke-linecap="round" stroke-linejoin="round" stroke-width=".8" d="M1006.6 101.4c-.4 0-1.3-.5-2-.2m2.4 5.1.7 2m.2.2s-2.8 3 .7 12.2c3.4 9.2 6 8.3 6.4 7.6.5-.6 1.4-3.4-.7-9.8"/>
  <path stroke="#444" stroke-linecap="round" stroke-linejoin="round" stroke-width=".8" d="M1007 110.7s1.3 7.1 4.7 8.7m-4.8-9s-1.8 7-4.7 8.7c-3 1.8-8 1.6-8.7 1.8-.7.2-1.3.7-.8.6.6 0 1.2.3 1.1.5-.1.2-1.2 2.1-.3 1.8.9-.4 1-2.2 1.8-2.4"/>
  <path stroke="#444" stroke-linecap="round" stroke-linejoin="round" stroke-width=".8" d="M1008.1 108.5c1.4 0 9.3 4.9 9.9 5.8.6 1-5.8 5-6 5.8-.4.8-.6 2 .3 1 .5-.5 1-1.2 1.4-1.9"/>
  <path stroke="#444" stroke-linecap="round" stroke-linejoin="round" stroke-width=".8" d="M1009.2 109.1a40 40 0 0 1 4.5 9.1m1.3.6c.6.1 3.6 4.8 2.7 7.7a3 3 0 0 1-1.3 1.8 3 3 0 0 1-2.2.4m-2.4-1.4c0 .4-3.8 13.2-4.7 15-.9 1.9-5.1-2-5.6-1-.6 1 2.6 2.6 4 2.3m10.2-14.6c.6.7 2.3 4.9 4 6 1.6 1.1 9.8 4.1 9.9 4.3 0 .2-2.5 5.3-3 4-.7-1.4.9-2.6 1.7-3.4m-37.6-16c-.2 0-1.3.9-1 1.3.3.4.7-.3.7-.3m1.3 1.2-.2.4c-.2.6-.4 1.4-.1 1.2m1.4 1.7c.3.7-.1 1.4-.4 1.2-.3-.2-.3-1.1-.3-1.1m-3.4-2c-.4.8 0 1.8.3 1.4.2-.4-.3-1.4-.3-1.4Zm1.6 4.1c.2.8-.2 1.8-.6 1.3m-1.9-1.7c-.7.6-.6 1.4-.4 1.4.2 0 .7-.8.7-.8m3.3 3.6c.2 1 .3 1.9-.3 1.5-.6-.3-.5-.7-.5-.7m-2.6-.8c-.6.7-.6 1.6 0 1.5a3 3 0 0 0 1.3-.8m-3.6-1.5c-.7.6-1.1 1.1-.7 1.3.4.2.8-.4.8-.4m3.3 3.5s.8.4 1 .2m-5 .3s-.2.7-.5.5M823.7 97c-.5 0-3 4.2-1 8.7 2.1 4.5 4.9 1 4.8-2.3 0-.6 0-1.1-.2-1.7-.4-2.6-1.8-4.5-3.6-4.7Z"/>
  <path stroke="#444" stroke-linecap="round" stroke-linejoin="round" stroke-width=".8" d="M827.4 101.8c-.2-.1-2.8 0-2.8.5m4.2 25.6c.3 0 5 4.6 5.2 7.3 0 2.7-.1 9 .4 9 .6 0 5.4-1.1 5.7 0 .2 1.3.3.8-.7.8l-3.9-.2m-10.4-15c.2.4 0 6.9-1 7.9-1.2 1-10.1 3.5-10.4 4-.3.5 1.5 4.2 2.5 3.5 1-.8-.5-2.5-.9-3"/>
  <path stroke="#444" stroke-linecap="round" stroke-linejoin="round" stroke-width=".8" d="M817.4 133.4c-.3-.3-1-2-2-1.8-.9.2-7.6 4.5-6.2 6.9 1.5 2.4 9.9-.5 9.9-1.7a7 7 0 0 0-1.2-2.8m7.1-26.1.1 1m-.8 18.1c-.5-.4-3.3-6-3.6-7.7-.3-1.7 3.5-9.3 3.6-9.5m10.7 10.7a4 4 0 0 1 1-1.8c.3-.3 1-.7 1.4-.2.4.4 1.5 1.7 1.4 2.1-.1.5-2.5 1.1-2.8 1a2.4 2.4 0 0 1-1-.8m.2.4-17.9 12.4"/>
  <path fill="#fff" d="M824.5 126.9s2.2.4 2 1.2c-.4.7-1.3 1-1.8.3a4 4 0 0 1-.6-1.5"/>
  <path stroke="#444" stroke-linecap="round" stroke-linejoin="round" stroke-width=".8" d="M824.5 126.9s2.2.4 2 1.2c-.4.7-1.3 1-1.8.3a4 4 0 0 1-.6-1.5m12.6-16.8s7 0 7.4-.2c.4-.2 1-1.3 2-2 1-.6 1.8-1.3 1.8-2m-3.9 4.4s.9.5 1 1.2c.3.7-.4 1 .3 1.5l3.2 1.8m-4-4.8c.9.3 1.8.4 2.7.4 1-.3 1.8-.4 2-.2m-13.8-.2h-9m-2.4-.1h-10l-2.8 1.3-.8.2"/>
  <path stroke="#444" stroke-linecap="round" stroke-linejoin="round" stroke-width=".8" d="M814.3 110c-.8 1.2-1.6 2.5-2.2 3.9m-1.4-6.7s3 1.8 3.4 2.8"/>
  <path stroke="#444" stroke-linecap="round" stroke-linejoin="round" stroke-width=".8" d="M804.6 103c0-.7.2-1.4.5-1 .2.4.2 1.2.8.9.6-.3 2.4-.6 2.1 0-.3.4-.7.7-.6 1.1 0 .5.4.5.7.6.3.2.2.8.5 1 .3.3 2.2.5 2.3 1 0 .5-1.6 1-2 1.3-.2.3.4.4-.2.8-.5.4-1.1.8-.5 1 .7.4 2 .3 2 .9l.2 1.5c0 .1 1 .7.4 1.2-.7.4-1.7.7-1.4 1.2.3.5.8.2 1.5 0 .6-.2 1 0 1.1.6.1.6.5.5-.2 1.1-.7.6-1.5.4-1.5.7 0 .4.8.2.7 1 0 .7-.4.8 0 1.2.4.4 1.4.2.5.7-.8.5-1.3 0-1.8 0-.4-.1 0 .3-.9.6l-1.5.2c-.2.1.5-.7-.3 1.2-.7 1.8-1.2.3-1.3-.2 0-.4.3-.7-.5-.5-.8 0-1.2.5-1.9-.2s-.3-.4-.6-1.4c-.3-1-1.6.3-1.8-.7-.3-1 .9-2.2.3-2-.8.4-1.7.5-2.5.3 0 0-2.8-1.7-1.3-4.1.3-.5 1.9-1.1 2-1.5.3-.3-1.7-.5-2-1.5-.3-.6.8-2.6 1.1-2.8.6-.4.3-1.5.6-2.1.3-.6 1-.7 1.8-1.1.7-.4.7-.8 1.1-1 .4-.2 2.6.5 2.6 0Z"/>
  <path stroke="#444" stroke-linecap="round" stroke-linejoin="round" stroke-width=".8" d="M802.6 106.6c-.2 0-.7.6-.5 1m1.5 3.6a1.4 1.4 0 0 0 .4 1.1c.5.3-1 1.2-.7 1.4.4.3 1 0 1 0m21.8-3.5c.1.1 4.5 7.3 6 6.9 1.4-.4 3.2-4 3.3-5.4.1-1.5.6-2.7 1-2.4.4.9.5 1.8.3 2.8a.5.5 0 0 1-.6.3c-.1 0-.2 0-.3-.2l-.1-.3"/>
  <path stroke="#444" stroke-linecap="round" stroke-linejoin="round" stroke-width=".8" d="M824.6 109.3s1.2-.6 1.4.3c.6 2.5 3.3 12.5 3.5 14.5m.1 2.2s-.8 2.4-2.5 2.9-2.4.1-2.4.1m-.2-19.8-1 14.2c0 1.3-.1 4.6.3 5.1m104.8 45a42.2 42.2 0 0 0 42.8-41.6c0-23-19.1-41.6-42.8-41.6a42.2 42.2 0 0 0-42.7 41.6c0 23 19.1 41.6 42.7 41.6Z"/>
  <path stroke="#444" stroke-linecap="round" stroke-linejoin="round" stroke-width=".8" d="M899.4 102.2c.5 0 3-.2 4.6 1 1.6 1.1 5.8-3 8.2-1.5 2.5 1.5 1.8 2.1 3.3 2.3 1.5.2 5 1.8 4 3-1 1.4-4.1 0-1 1.4 3.1 1.3 4.6-.8 5.8 2 1.1 2.7 7.2 5.6 5.8 8.6-1.5 2.9-2.2 3.9-5 2-2.8-2-5-1.4-7.4-2-2.5-.7-3.2-2.5-4.2-1.3-1 1.1 1 5.2-1.4 6.5-2.5 1.3-5.3-1.3-6.1.8-.9 2.1.3 8-3 9.3-3.3 1.3-4.5-.2-6.8-.2s-4.4 1-2.8-2.3c1.7-3.2 5-5.3 2.5-5.2-2.5.2-5.3 2.8-7.3 2.8h-2"/>
  <path stroke="#444" stroke-linecap="round" stroke-linejoin="round" stroke-width=".8" d="M915.9 123.5c.8-1 .3-3.7 3.5-2 3 1.9 2.3 3 5.6 2.4 3.3-.7 2.4-.8 5.2 2.2 2.8 3.1 5.8 5 4.2 6.2-1.7 1.3-1.4-1.1-2.5 2.3-1.2 3.4 1.8 5.2-2.8 5.4-4.6.1-4.1-3.4-6.5-1.5-2.3 2-2.7.8-4 3.6-1.1 2.8 0 1.1 0 6.9.2 5.7-2 15-4.4 14.6-2.4-.3-2-1.3-5.3-2.6-3.2-1.3-5.2-1-5.6-6.3-.3-5.4 1.2-5.2-.1-9.3-1.3-4-4.1-3.3-1.3-6 2.8-2.5 2.6-.4 4-3.3 1.3-3 1.4-2.8 2-5.2.4-2.5-1.7-2.6 1-3.6 2.6-1 .2-.2 3.5-1.5s3.5-2.3 3.5-2.3Zm15.1-28c-2.6 0-4 2.5-1.6 4 2.5 1.4 5.1 1 5.1 3.7 0 2.6.8 1 4 2.6 3.1 1.6 4.8 5.7 5.4 2 .7-3.8-1-4.3 1.2-5.3 2.1-1 7.2-2.6 2.3-4a98.5 98.5 0 0 0-16.3-3v0Zm25 5.2c-1.2.5-7.1 1.5-6.2 4.3 1 2.7 3.2.6 1.9 4.5-1.4 4-5 3.1-1.7 4.7 2 1 4 1.8 6.3 2.3 1.8.5 5 .5 6.6 4.4 1.4 4 4 5 3.4 8.5-.5 3.4.5 5.5 1.7 4.2l3-4m-1 10.8c-.7-1.3-1-1.4-2.5-3-1.5-1.4-3-1.2-6.6 0-3.6 1.4-9.6.3-9.9 2.4-.3 2 .7 1.6-.3 2-1 .6-6.1-2.4-5.8 2.9.3 5.2 2.6 6.5 1.7 9.9-1 3.4 2.6 4.2 4.6 7.1 2 3 6 2 6 2"/>
  <path stroke="#444" stroke-linecap="round" stroke-linejoin="round" stroke-width=".8" d="M902.7 98.4c-.7-.6-4.3-2.9-5.3-4.9a5.3 5.3 0 0 0-3.1-2.9c-1.2-.5-2.1-1.6-3.1 1s.1 6.3-1.8 5.7c-2-.7-.9-2.5-3.2-.5-2.3 2-3.4 3.4-5.6 2.1-2.1-1.3-3.6-2.1-3.6-4 0-1.7-.5-2.2-1.5-2.4-1-.1-4 .8-5-1.4-1-2.3-2.4-3-1.6-4.4.8-1.5.2.5.8-1.5.7-2-.8-2.1.2-4.7l1-2.6a4.7 4.7 0 0 1-3-4.6c.2-3.4.5-3.5 1.8-4.9 1.3-1.3 0-1.6 2.5-3 2.5-1.2 3.4-1.4 4.8-1.2 1.3.1.3-1.5 2.6-2.8 2.3-1.3 3.1 0 3.3-1.3.1-1.3-.3-2.6.8-3.6 1.2-1 1.2-.5 2.2-.3 1 .2 1.1-1.3 2.4-2.1 1.4-.8 3-1 3.5.1.5 1.2 2 2 2.3 2.3.3.3 1.3-1.3 3.1-1 1.8.4 3.2 1.5 4.3.4 1.2-1.2 3.1-3.3 4.5-2.1 1.3 1 2.6 4.9 2.6 4.9s-1-5.2.3-5.7 3.5-1 3.3-2.6c-.1-1.7.4-5 2.3-5a8 8 0 0 1 3.5.7s-.2-3 2.3-2.3c2.5.9 4.1 2 5 .7.8-1.3 1.3-2.4 3.3-2.1 2 .3 4 1.8 5 .2 1-1.7 2.2-5 4.5-3s2.7 3.1 3.8 2.6c1.2-.5 2-2 2.2.7 0 1.4.3 3 .6 4.4 0 0 3.8-1.2 5.1 1 1.3 2 5.3-.2 6 2.9a10 10 0 0 1-.5 5.7s2.8-2.1 4.3-.3 2.6-2.2 4.4-.2c1.8 2 2.7 3.7 3.3 3 .7-.6 4.5 0 5.6 1.2 1.2 1.3 3.8-2.7 5.8-.1 1 1.3 2 2.5 3.1 3.5 0 0 4.6-1.6 4.1 1.4a7.5 7.5 0 0 1-2.7 4.5s3.6.7 4 2.5l.3 1.7s4-2 4 1.2c0 3-4.2 6-5.2 5.9-1-.2-.3 5.7-1.6 6.3-1.3.7 3.3 5.2.5 6.9a5.8 5.8 0 0 1-5.5.2s0 3.7-2.3 3.9c-2.3.2-4.3-1.3-4.3-3.4v-3.8s-2.4 2.1-3.6.5c-1.1-1.7-2.5-4-4.6-3.1a38 38 0 0 0-8 10.2"/>
  <path stroke="#444" stroke-linecap="round" stroke-linejoin="round" stroke-width=".8" d="M914.3 92.1c-1.2-1-.5-3.9-2-3.2-1 .5-2.2.7-3.3.6-1.1 0-1 3.1-3.3 2l-3.1-1.5s-.4 2.8-2.8.5c-2.5-2.3-2.3-4.4-2.3-4.4s-5.5.5-4.6-1.8c.8-2.3 2.8-2 2.3-3.7-.5-1.6 0-1.1.1-4 .2-2.7-2.4-5 .4-6.3 2.8-1.3 5.7 1.2 6-1.1.1-2.3-.9-3.3 2.2-3.8 3.2-.4 5-.3 5-.8s2.5-3.7 5.6-2.6c1.5.5 3 1.2 4.3 2 0 0 1-1.3 1.6 1.1.7 2.5 1 4 1.7 4 .6 0 2 3.2 3.3 1.7 1.3-1.4 1.8-2 3.3-1.3 1.5.8.8 3.6 3.1 1.6s3.6-1.7 4.6-1.7c1 0 .7-1 2.2-2.3 1.4-1.3 2.4.1 4-.5 1.4-.7 1.4-1.3 2.7-.3 1.4 1 2.2 2.7 3.2 1.4a4.5 4.5 0 0 1 5-1.1c1.9.8 3-1 4.2.6 1.1 1.7.7 3 1.5 2.5s4 .1 2.6 2.6c-1.3 2.4 2 2.4 1.5 4.2a3 3 0 0 1-2.6 2s.3 2.4-.2 3.4 3.3 3 .7 3.4a7 7 0 0 1-4.7-.8s1.4 2.4-.8 2.8A5 5 0 0 1 951 86c-1.4-1.3-4-1.5-4.4-.4-.5 1.2-2.6 3.8-2.5 6.5"/>
  <path stroke="#444" stroke-linecap="round" stroke-linejoin="round" stroke-width=".8" d="M940 91.2a8.8 8.8 0 0 0 1.1-5c-.2-2-1.1-3-2-3-.8 0-1.1 1-2.3 0-1.2-1-2.8.6-3.5-1-.6-1.7 1.4-1.8-.3-3.3-1.6-1.4-3-.6-1.3-3.2 1.6-2.6 2.1-1.7 2-3.5-.2-1.8 0-2.2 1-2.9m-6.1.2c-.2 1.1-.4 7.5.6 8.6m-3.9-7.3s.3 2.7-.7 3.6c-1 .8-1.8 1-1.1 2 .6 1.2 2.8 1.2.1 2.5-2.6 1.3-3.4 1.8-3.4.7 0-1.2 1.8-2 0-1.2-1.8.9-3 3.6-3.5 2.1-.5-1.4.3-2.9-1.5-1.4s-2.1-2.6-3-1.5c-.8 1.2 1.4 3.8-.5 4.3-1.8.4-4.6.8-3.6 1 1 .4 4.3 1.6 4.8 2.7"/>
  <path stroke="#444" stroke-linecap="round" stroke-linejoin="round" stroke-width=".8" d="M918 91c-.3-.7-4.7-2.8-2.1-8.8m9.4-2.8a7.4 7.4 0 0 1 1.3 3.9c0 2.1-.2 4.2-.5 6.4m6.4-6.1s-.1 5 .2 6m10.3-4.5c0-2.8-1.9-4.2-.7-4.7 1.1-.5.3 2.4 2.4 1.6 2.2-.8 2.2-1.5 3.8-.6 1 .5 2 1.3 2.7 2.2m2.1 4.4a21 21 0 0 1-.3 5c-.4 1.1-1 2.1-2 2.9M705 145H-336"/>
</svg>
