<svg xmlns="http://www.w3.org/2000/svg" fill="none" viewBox="0 0 972 117">
  <path stroke="#444" stroke-linecap="round" stroke-linejoin="round" stroke-miterlimit="10" stroke-width=".75" d="M820.11 31.56c-.47-.07-2.15.64-3.5 1.98a5.53 5.53 0 0 0-1.82 4.17c.2 4.02 5.05 4.02 6.26.91 1.28-3.24 1.82-6.63-.94-7.06Z"/>
  <path stroke="#444" stroke-linecap="round" stroke-linejoin="round" stroke-miterlimit="10" stroke-width=".75" d="M818.02 34.6c-.06-.14-.2-.99-1.41-1.13m.47 8.68s-.67.71-1.15 1.42c-.47.7-6.73 17.16-3.16 22.8 4.71 3.75 5.66 1 6 0 .26-.98-.2-2.11-.75-6.99-.54-4.87-.47-12.42-.2-14.05.27-1.9-.13-3.46-.54-3.25m-1.35 1.49c-1.07-.29-8.08-3.18-8.35-11.02-.27-7.77 0-8.61.2-9.1.2-.57 2.3-2.48.75-2.48"/>
  <path stroke="#444" stroke-linecap="round" stroke-linejoin="round" stroke-miterlimit="10" stroke-width=".75" d="m803.47 16.8.47 5.87s5.93-.64 5.2-.92c-.75-.28-1.5-6.07-1.5-6.07l-4.17 1.13Zm14.49 26.84s.94 6.07 6.26 22.52c.74 2.33-1.95 1.7-1.55 3.04.4 1.34 1.55-.92 1.55-.92m-10.98-1.06s-1.55 13.42-1.35 17.37c.2 3.96.74 13.49.74 13.49s-4.44-2.61-5.38-.5c-.95 2.12 5.32.92 5.32.92m4.65-30.22c0 .28-.95 13.84-.95 15.47 0 1.62 1.82 15.46 1.75 15.1-.06-.35-3.16-2.11-4.44-.42-1.28 1.7 4.04.7 4.04.7m-38.6-83.03v7.77c0-.36 8.7-.92 8.7-.92s-.68-3.32-.75-4.24c-.13-.92-.13-3.74-.54-3.67-.4.14-7.4 1.06-7.4 1.06Zm-12.93-1.84.33 5.93 8.15.08-.87-7.14-7.68.07.07 1.06Zm-21.83-2.82.2 7.2c0-.35 7.62-.7 7.62-.7l-.4-7.42-7.15.14-.27.78Zm9.7 6c-.07-.42 7.75-.14 7.75-.14l.13 6.64-9.1.35c-.13 0 1.76-3.74 1.22-6.85Zm-21.56-2.47c-.13-.57 7.28.14 7.48 0 .2-.14 0 6.7 0 6.7s-6.33 1.14-7.14.22c-.87-.92.54-2.82-.33-6.92Zm.88 11.58c0-.5 6.87 1.13 6.87 1.13s-.87 7.98-1.41 7.77c-.54-.22-7.75-1.13-7.75-1.13s1.89-.85 2.3-7.77Zm9.5-3.53c-.07-.57 8.02.35 8.02.35l-1.01 6.64-7.82.42s1.35-1.06.81-7.41Zm23.44 0c0-.57 8.02.92 8.02.92s-.54 7.2-.68 6.85c-.13-.36-7.81-.43-7.81-.43s.67-1.2.47-7.34Zm-11.38 4.09s5.18 1.7 6.87.78c-.14 3.18-.4 6.5-.4 6.5s-8.16 1.06-7.82.77c.34-.28 1.62-3.74 1.41-5.72-.33-1.83-.06-2.33-.06-2.33Zm24.11.79c.34-.22 7.14.13 7.14.13l-.4 8.33-8.15-.35 1.41-8.12Zm10.65-3.82c.2.42-.34 7.62-.34 7.62s6.4.36 6.33-.35c-.13-.7.2-7.84-.2-7.84-.47-.07-5.8.57-5.8.57ZM766.76 35.8c.13.35-.2 6.85-.2 6.85s7.61.14 7.4-.21c-.2-.36.55-7.63 0-7.77-.53-.14-7.2 1.13-7.2 1.13Zm-11.18 1.9c-.2.57-.74 7.5-.54 7.2.2-.34 7.82.57 7.82 0 0-.56.87-8.18.4-8.4-.4-.28-7.68 1.2-7.68 1.2Zm-11.72-2.82s1 5.16-.4 6.92c-1.42 1.84 7.4.57 7.4.57l.54-7.77-7.54.28Zm-11.18 6.29c0 .35-1.01 8.12-1.01 8.12h7.6l.55-8.2-7.14.08Zm11.79 7.34c-.07-.64-.54 7.2-.54 7.2s7.74.21 7.81-.14c.13-.35.4-8.33.4-8.33s-7.54 2.12-7.67 1.27Zm11.78-.07v6.7s6.6.71 6.74.22c.13-.42.87-7.84.54-8.2-.34-.34-7.28 1.28-7.28 1.28Zm11.39-.35c0 .35-.4 7.06-.4 7.06s8.14-.14 8-.43a209 209 0 0 1-.33-8.54l-7.14.42-.13 1.49Zm11.66-6.08c-.21.57.2 7.28.2 7.28l6.73-.36s.4-8.19-.34-8.33c-.74-.07-6.6 1.41-6.6 1.41Zm11.91-4.16c0 .7-.74 7.84-.67 7.48.13-.35 6.94.36 6.94.36l1.07-8.9-7.34 1.06Zm-2.62 12.99-.34 6.14 7.75-.2s.33-8.34 0-8.2c-.34.14-7.28.35-7.28.35l-.13 1.91Zm-10.31 5.79-.34 7.41 7.41-.56s0-8.4-.54-8.54c-.53-.15-6.53 1.69-6.53 1.69Zm12.06 4.67-.34 7.26 7.95-.7s1-7.28.4-7.63c-.54-.28-8.01 1.06-8.01 1.06Zm-42.78-1.7c.6-.22-.33 7.62-.2 7.27.14-.35 8.49.7 8.29.21-.2-.5.2-9.67-.2-9.67-.55 0-8.22 2.26-7.89 2.19Zm13 .56c-.2-.56-.33 7.77-.33 7.77l7.27-.36.34-9.53c0-.07-7.14 2.47-7.28 2.12Zm-27.82-5.01c-.2.42-1.2 8.19-1 7.84.2-.36 9.36-.57 9.36-.57s1-7.63-.54-7.98c-1.55-.35-7.82.7-7.82.7Zm1.69-38.06 2.7.28m-2.63 1.48 2.55.5"/>
  <path stroke="#444" stroke-linecap="round" stroke-linejoin="round" stroke-miterlimit="10" stroke-width=".75" d="M746.82 13.27c.34-.07 2.76-.2 2.76-.2m6.34 7.27s2.83-.22 3.03-.22m9.09-4.02c.14 1.2.14 1.9 1.21.63 1.08-1.27 1.96-2.25 2.02-.35.07 1.9 1.15 1.63 1.15 1.63m9.83-.01c-.2.15-1.68 1.84-.53 2.05 1.14.22 2.28-1.13 2.22-1.34-.07-.21-1.69-.7-1.69-.7Zm-13.53 7.35c.53 0 3.5.78 3.5.78m-4.58 2.47c.33-.07 4.38-.07 4.38-.07m-15.43 1.9s-.6 2.69.67 1.63c1.22-1.06 1.35-2.2 2.23-2.12.87.07.26 1.9.26 1.9m-14.81-5.44 3.57-.06m-13.81 4.02 3.57.5m8.21 6.28c.27-.07 3.3 0 3.3 0m-4.24 3.11c.2-.07 3.1.35 3.1.35m9.03-.56c.13-.29 3.43-.22 3.43-.22m7.88-2.04 3.24-.36m-2.9 2.83 2.5.28m9.08-9.46 3.44.92m7.01-4.39s.6-1.83 1.61-.77c1.01 1.06 1.01 1.98 1.01 1.98m-60.55 16.8 3.97.43m12.94 5.29c-.4-.07-1.9-1.9-2.77-.28-.87 1.63 2.23 2.26 1.28 2.76-.94.42-2.7.07-2.7.07m-11.58 5.29c.68 1.13.95-2.47 3.03-2.26 2.1.21 1.49 2.76 1.49 2.76m11.11 2.26c.54-.07 2.9.28 2.9.28m9.63 1.27c.54-.28 2.5-.07 2.7-.14m-7.22-12.5c.2-.07 2.57.28 2.57.28m-1.96 2.19 2.3.35m8.82-4.3c.27-.07 3.16.2 3.16.2m8.22-4.02c.4-.14 2.36-.42 2.36-.42m-3.44 15.32c.27-.28 2.56-.63 2.56-.63m9.97 4.59c.2-.36 2.7-.64 2.7-.64m-5.19-12.43c.54 0 3.7.36 3.7.36m-3.5 3.11c.27-.22 2.83.14 2.83.14m-.54-14.06c.34-.14 3.7-.56 3.7-.56m8.16-21.04 2.49-.22M971 85.3c-8.42.14-966.1.63-970 .42m611.84-47.8c-.34.35-2.36 4.94.6 8.33 2.97 3.39 5.93-.85 5.46-2.61-.47-1.77-1.55-6.29-3.3-6.5a3.63 3.63 0 0 0-2.76.78Z"/>
  <path stroke="#444" stroke-linecap="round" stroke-linejoin="round" stroke-miterlimit="10" stroke-width=".75" d="M617.15 39.19c-.33.14-3.7 2.26-2.96 2.82.74.57 2.76-.35 2.76-.35m-.07 6.14s0 1.42.54 1.27c.54-.14 1.28.64 1.35 1.13.07.5 4.31 17.45 1.35 19.42-2.5 1.7-3.91.14-4.32-1.34-.4-1.48-1.95-13.63-.8-16.95.8-2.33 1.68-2.26 1.68-2.26"/>
  <path stroke="#444" stroke-linecap="round" stroke-linejoin="round" stroke-miterlimit="10" stroke-width=".75" d="M618.77 50.2s5.86 9.75 6 17.59c.06 2.9.2 3.88.2 3.88s-1.28 2.19-1.42.85c-.13-1.27.54-1.77.54-1.77"/>
  <path stroke="#444" stroke-linecap="round" stroke-linejoin="round" stroke-miterlimit="10" stroke-width=".75" d="M620.52 50.2s6-.07 6.67.64c.67.7-2.29 18.43 0 20.48m-15.49 5.36c-.68-.2-2.77.5-3.17 1.91-.47 1.41 1.82 15.53 1.62 16.03-.2.5-5.05-.99-4.79 1.2.2 2.19 4.11.99 4.11.99m7.01-20.13c-.68.22-4.11 4.1-3.9 5.3.2 1.2 4.3 11.5 4.3 12.7 0 1.21-3.63 5.3-3.63 2.62 0-2.61 1.81-4.1 1.81-4.1M531.4 40.95s-3.37 4.95-1.68 8.34c1.68 3.32 4.71 2.9 5.45 1.4.75-1.47 1.69-5.43.14-7.33-1.48-1.91-1.48-2.9-3.9-2.4Zm-.27 12.29c-.13.78-7.48 19-6.87 22.53.6 3.53 3.37 3.03 3.5 2.54.14-.5 4.45-2.54 5.06-11.51.6-8.97.6-12.43.13-13.06-.47-.64-1.82-.5-1.82-.5Z"/>
  <path stroke="#444" stroke-linecap="round" stroke-linejoin="round" stroke-miterlimit="10" stroke-width=".75" d="M525.34 65.03c-.74-1.27.74-6.21-3.03-5.93-3.77.28-7.95-1.41-5.46 7.84 2.43 9.25.6 12.64 5.66 14.33 5.05 1.77 13.67.5 13.67.5m-11.92-3.96-3.37 1.13m5.66 4.16c.14.5.47 11.94.47 11.94s-9.3 6.36-9.76 7.49c-.48 1.13.6 1.9 1.07 1.13m8.36-5.72c0 .5.13 4.16.33 4.8.14.64-5.45-.99-3.03.99 2.43 1.97 7.28.99 5.46 0m-.61-7.7c1.08.35 4.72 5.58 6.06 5.58 1.35 0 4.59-.14 2.77.78-1.82.91-1.82.98-1.82.98"/>
  <path stroke="#444" stroke-linecap="round" stroke-linejoin="round" stroke-miterlimit="10" stroke-width=".75" d="M526.42 78.73s-1.22.64 6.67.64c7.94 0 8.82-.14 8.68 2.04-.13 2.26-2.9 17.87-.94 19.28 1.95 1.41 7.28 1.9 5.32.14-1.95-1.76-3.97-1.13-3.97-1.13"/>
  <path stroke="#444" stroke-linecap="round" stroke-linejoin="round" stroke-miterlimit="10" stroke-width=".75" d="M528.7 77.67s13.07-.63 14.49 2.4c.34.7 2.15 17.23 3.5 18.36 1.35 1.13 4.45-1.41 4.85.35.47 1.77-1.34 1.77-2.42 1.63m-13.61-53.88s-2.29.78-2.76-.99m11.32-3.31c-.14.49 2.76 6.2 6.4 4.3 1.81-.99 1.95-4.16 0-7.62-2.16-3.89-6.07-2.05-6.54-.36a7.46 7.46 0 0 0 .14 3.68Zm5.45 24.43c0-1-1.07-6.36-1.35-9.4-.26-3.03 1.22-7.48 1.22-7.48.13-.78-1.08-2.54-2.16-1.41 0 0-4.1 5.44-4.44 7.62-.34 2.26-.34 10.88 1.07 12.3 1.35 1.4 4.59.34 4.59.34"/>
  <path stroke="#444" stroke-linecap="round" stroke-linejoin="round" stroke-miterlimit="10" stroke-width=".75" d="M549.19 50.7s.47 3.53 2.62 4.8c2.16 1.27 10.51-4.8 11.12-5.93m.54-1.55c-.27 0-1.42-.36-1.42-.36l.74-5.15 4.38.7-.88 5.16-2.82-.35Z"/>
  <path fill="#fff" stroke="#444" stroke-linecap="round" stroke-linejoin="round" stroke-miterlimit="10" stroke-width=".75" d="M562.86 49.71s1.95-1.9 1.21-2.26c-1.08-.5-1.35.92-1.48 1.62-.13.71.27.64.27.64Z"/>
  <path stroke="#444" stroke-linecap="round" stroke-linejoin="round" stroke-miterlimit="10" stroke-width=".75" d="M550.46 39.97c-.6-.36-3.5 1.27-4.1 2.04m-.14 9.82c-.07.14-1.28 5.01-.94 8.75.34 3.75 4.78 4.38 7.07 3.96 2.3-.43 3.03-.14 2.43 0"/>
  <path fill="#fff" fill-opacity=".6" stroke="#444" stroke-linecap="round" stroke-linejoin="round" stroke-miterlimit="10" stroke-width=".75" d="M555.31 60.16c-1.61.5-22.16 16.31-22.16 16.31s56.65-.7 65.55-.7c8.89 0 31.52.49 30.85 0-.68-.5-19.67-10.03-22.37-12.22-2.76-2.19-5.72-4.3-5.72-4.3l-46.15.91Z"/>
  <path stroke="#444" stroke-linecap="round" stroke-linejoin="round" stroke-miterlimit="10" stroke-width=".75" d="M555.79 67.57c-.95.22-4.31 3.32-4.31 3.32l6.6 1 3.43-3.82-5.72-.5Zm12.79.01v3.31s7.08.22 6.4-.5c-.67-.7-.47-3.8-1.14-3.8-.74.07-5.26.98-5.26.98Zm15.77-5.72-2.3 3.31 6.2.71s3.44-3.6 2.3-4.1c-1.22-.42-6.2.08-6.2.08Zm10.24 5.5s-3.44 2.9-2.77 3.11c.68.21 3.91 2.4 3.91 2.4l5.05-3.32-6.2-2.19Zm-33.55-5.01c-.2.7-1.14 2.9-1.14 2.9s4.3 2.18 4.3 1.2c0-1 2.97-3.82 2.1-4.31-.95-.5-5.26.2-5.26.2Zm10.24-.71c-.47.71.47 2.4.47 2.4l5.46-.2s2.08-2.2 1.14-2.2h-7.07Zm10.04 7.84 3.43 4.3 4.38-1.4-2.29-4.52-5.52 1.62Zm37.45 7.7 1.55 25.2s1.82.15 1.68-.49c-.13-.63-.34-25.84-.34-25.84m-22.63.77.47 17.73s2.9.14 2.76-.35c-.13-.5-.74-18.22-.74-18.22m-43.78 1.2c.07.99.8 15.96.8 15.96s2.57-.92 2.43-.78c-.13.14-.2-15.68-.2-15.68m-9.23-.56c.94 0 1.96.78 2.63 2.68.67 1.9-2.5 10.52-2.5 12.22 0 1.7 6.4.5 4.59 2.4-1.82 1.9-3.44.21-3.44.21m61.98-41.38c0 .21-.2 7.98-3.91 10.6-3.7 2.6-7.14 1.69-7.14 1.69s-1.69.42-.74 1.13c.94.7 1.54.21 1.54.21m-74.09-6.78s-.54 10.6 6.53 12.08c3.77.77 7.21 1.13 8.96 1.27.88.07 1.75-.29 2.22-1.06.27-.43.27-.7-.53-.43-1.82.64-1.42.29-1.42.29"/>
  <path stroke="#444" stroke-linecap="round" stroke-linejoin="round" stroke-miterlimit="10" stroke-width=".75" d="M533.36 58.96c.13.5 2.55 9.18 5.79 9.82 3.9.77 7.34.28 7.34.28"/>
</svg>
