<svg xmlns="http://www.w3.org/2000/svg" fill="none" viewBox="0 0 262 56">
  <path stroke="#444" stroke-linecap="round" stroke-linejoin="round" stroke-miterlimit="10" stroke-width=".4" d="M200.87 13.15c-.28-.04-1.28.37-2.07 1.14a3.15 3.15 0 0 0-1.08 2.4c.12 2.3 2.99 2.3 3.7.52.76-1.87 1.08-3.82-.55-4.06Z"/>
  <path stroke="#444" stroke-linecap="round" stroke-linejoin="round" stroke-miterlimit="10" stroke-width=".4" d="M199.63 14.9c-.04-.08-.12-.57-.83-.65m.28 4.99s-.4.4-.68.81c-.28.41-3.98 9.87-1.87 13.12 2.78 2.15 3.34.57 3.54 0 .16-.57-.12-1.22-.44-4.02-.31-2.8-.28-7.15-.12-8.08.16-1.1-.08-2-.31-1.87"/>
  <path stroke="#444" stroke-linecap="round" stroke-linejoin="round" stroke-miterlimit="10" stroke-width=".4" d="M198.4 20.05c-.64-.16-4.78-1.82-4.94-6.33-.15-4.47 0-4.95.13-5.24.11-.32 1.35-1.42.43-1.42"/>
  <path stroke="#444" stroke-linecap="round" stroke-linejoin="round" stroke-miterlimit="10" stroke-width=".4" d="m191.04 4.66.28 3.37s3.5-.36 3.06-.52c-.44-.17-.88-3.5-.88-3.5l-2.46.65Zm8.56 15.44s.55 3.49 3.7 12.95c.43 1.34-1.16.97-.92 1.74.24.78.91-.52.91-.52m-6.49-.61s-.9 7.71-.79 9.99l.44 7.75s-2.63-1.5-3.18-.28c-.56 1.22 3.14.53 3.14.53m2.75-17.38c0 .16-.56 7.95-.56 8.89 0 .93 1.07 8.9 1.03 8.69-.04-.2-1.87-1.22-2.62-.25-.76.98 2.38.41 2.38.41M176.6 4.26v4.46c0-.2 5.13-.52 5.13-.52s-.4-1.91-.44-2.44c-.08-.53-.08-2.15-.32-2.11-.24.08-4.38.6-4.38.6Zm-7.65-1.06.2 3.41 4.82.04-.52-4.1-4.54.04.04.61Zm-12.89-1.62.12 4.14c0-.2 4.5-.4 4.5-.4l-.24-4.27-4.22.08-.16.45Zm5.74 3.45c-.05-.24 4.57-.08 4.57-.08l.08 3.82-5.38.2c-.07 0 1.04-2.15.72-3.94ZM149.06 3.6c-.08-.32 4.3.09 4.41 0 .12-.07 0 3.87 0 3.87s-3.74.65-4.21.12c-.52-.53.31-1.63-.2-3.98Zm.51 6.67c0-.29 4.06.65 4.06.65s-.51 4.59-.83 4.46c-.32-.12-4.58-.65-4.58-.65s1.12-.48 1.35-4.46Zm5.62-2.03c-.04-.33 4.73.2 4.73.2l-.6 3.82-4.61.24s.8-.6.48-4.26Zm13.84 0c0-.33 4.74.53 4.74.53s-.32 4.14-.4 3.93c-.08-.2-4.62-.24-4.62-.24s.4-.69.28-4.22Zm-6.73 2.36s3.07.97 4.07.44c-.08 1.83-.24 3.74-.24 3.74s-4.82.6-4.62.44c.2-.16.96-2.15.84-3.29-.2-1.05-.04-1.34-.04-1.34Zm14.25.44c.2-.12 4.22.08 4.22.08l-.24 4.8-4.81-.21.83-4.67Zm6.29-2.19c.12.24-.2 4.38-.2 4.38s3.78.2 3.74-.2c-.08-.4.12-4.5-.12-4.5-.27-.05-3.42.32-3.42.32Zm-13.49 6.74c.08.2-.12 3.94-.12 3.94s4.5.08 4.38-.13c-.12-.2.32-4.38 0-4.46-.32-.08-4.26.65-4.26.65Zm-6.6 1.09c-.12.33-.44 4.3-.32 4.15.12-.2 4.61.32 4.61 0 0-.33.52-4.71.24-4.84-.24-.16-4.53.7-4.53.7Zm-6.93-1.62s.6 2.96-.24 3.98c-.83 1.05 4.38.32 4.38.32l.32-4.46-4.46.16Zm-6.6 3.61c0 .2-.6 4.67-.6 4.67h4.5l.31-4.7-4.21.03Zm6.96 4.23c-.04-.37-.32 4.14-.32 4.14s4.58.12 4.62-.08c.08-.2.24-4.8.24-4.8s-4.46 1.22-4.54.74Zm6.96-.04v3.85s3.9.4 3.98.13c.08-.25.52-4.51.32-4.72-.2-.2-4.3.74-4.3.74Zm6.73-.21c0 .2-.24 4.06-.24 4.06s4.81-.08 4.74-.24c-.08-.2-.2-4.91-.2-4.91l-4.22.24-.08.85Zm6.88-3.49c-.12.33.12 4.18.12 4.18l3.98-.2s.24-4.71-.2-4.8c-.44-.03-3.9.82-3.9.82Zm7.05-2.4c0 .41-.44 4.51-.4 4.3.08-.2 4.1.21 4.1.21l.63-5.11-4.33.6Zm-1.56 7.48-.2 3.53 4.58-.12s.2-4.8 0-4.71c-.2.08-4.3.2-4.3.2l-.08 1.1Zm-6.08 3.33-.2 4.26 4.37-.33s0-4.83-.31-4.9c-.32-.09-3.86.97-3.86.97Zm7.12 2.68-.2 4.18 4.7-.4s.6-4.19.23-4.4c-.31-.16-4.73.62-4.73.62Zm-25.27-.98c.36-.12-.2 4.39-.12 4.18.08-.2 5.02.41 4.9.13-.12-.29.12-5.57-.12-5.57-.32 0-4.86 1.3-4.66 1.26Zm7.69.33c-.13-.33-.2 4.46-.2 4.46l4.29-.2.2-5.48c0-.04-4.22 1.42-4.3 1.22Zm-16.44-2.89c-.12.25-.72 4.71-.6 4.51.12-.2 5.53-.32 5.53-.32s.6-4.39-.32-4.6c-.91-.2-4.61.41-4.61.41Zm.99-21.88 1.6.16m-1.55.85 1.5.29"/>
  <path stroke="#444" stroke-linecap="round" stroke-linejoin="round" stroke-miterlimit="10" stroke-width=".4" d="M157.57 2.63c.2-.04 1.64-.12 1.64-.12m3.73 4.19 1.8-.13m5.36-2.31c.09.69.09 1.1.72.36.64-.73 1.16-1.3 1.2-.2.04 1.1.67.93.67.93m5.81 0c-.12.09-1 1.06-.31 1.18.67.12 1.35-.65 1.3-.77-.03-.12-.99-.4-.99-.4Zm-8 4.23a22 22 0 0 1 2.07.44m-2.7 1.43c.2-.05 2.59-.05 2.59-.05m-9.12 1.1s-.35 1.54.4.94c.72-.61.8-1.26 1.31-1.22.52.04.16 1.1.16 1.1m-8.75-3.13 2.1-.04m-8.15 2.31 2.11.28m4.85 3.62c.16-.04 1.95 0 1.95 0m-2.5 1.79c.12-.05 1.83.2 1.83.2m5.33-.33c.08-.16 2.03-.12 2.03-.12m4.65-1.18 1.91-.2m-1.71 1.63 1.48.16m5.36-5.44 2.04.52m4.14-2.51s.35-1.06.95-.45c.6.6.6 1.14.6 1.14m-35.77 9.66 2.34.25m7.64 3.04c-.24-.04-1.11-1.1-1.63-.16-.52.93 1.31 1.3.76 1.58-.56.25-1.6.04-1.6.04m-6.84 3.05c.4.65.56-1.42 1.8-1.3 1.22.12.87 1.58.87 1.58m6.56 1.3c.32-.04 1.71.16 1.71.16m5.69.73c.32-.16 1.48-.04 1.6-.08m-4.26-7.18c.12-.04 1.51.16 1.51.16m-1.15 1.26 1.35.2m5.21-2.48c.16-.04 1.87.13 1.87.13m4.86-2.31c.24-.09 1.39-.25 1.39-.25m-2.03 8.81c.16-.16 1.51-.37 1.51-.37m5.89 2.64c.12-.2 1.6-.36 1.6-.36m-3.07-7.15c.32 0 2.19.2 2.19.2m-2.07 1.79a7.3 7.3 0 0 1 1.67.08m-.32-8.08c.2-.08 2.19-.32 2.19-.32m4.82-12.1 1.47-.13M261 45.06c-2.26-.22-258.95-.98-260-.65M78.43 16.8c-.2.2-1.4 2.85.36 4.8 1.75 1.95 3.5-.49 3.22-1.5-.28-1.02-.92-3.62-1.95-3.74-1-.12-1.63.45-1.63.45Z"/>
  <path stroke="#444" stroke-linecap="round" stroke-linejoin="round" stroke-miterlimit="10" stroke-width=".4" d="M80.97 17.54c-.2.08-2.18 1.3-1.75 1.62.44.33 1.64-.2 1.64-.2m-.04 3.53s0 .81.31.73c.32-.08.76.37.8.65.04.29 2.55 10.03.8 11.17-1.48.97-2.31.08-2.55-.77-.24-.86-1.16-7.84-.48-9.75.48-1.34 1-1.3 1-1.3"/>
  <path stroke="#444" stroke-linecap="round" stroke-linejoin="round" stroke-miterlimit="10" stroke-width=".4" d="M81.93 23.87s3.46 5.6 3.54 10.11c.04 1.67.12 2.24.12 2.24s-.76 1.25-.84.48c-.08-.73.32-1.01.32-1.01"/>
  <path stroke="#444" stroke-linecap="round" stroke-linejoin="round" stroke-miterlimit="10" stroke-width=".4" d="M82.96 23.87s3.55-.04 3.94.37c.4.4-1.35 10.6 0 11.77m-9.15 3.09c-.4-.12-1.63.28-1.87 1.1-.28.8 1.08 8.93.96 9.21-.12.29-2.99-.57-2.83.7.12 1.25 2.43.56 2.43.56m4.14-11.57c-.4.12-2.43 2.35-2.31 3.04.12.7 2.55 6.62 2.55 7.31 0 .7-2.15 3.05-2.15 1.5 0-1.5 1.07-2.35 1.07-2.35M30.32 18.55s-1.99 2.84-1 4.8c1 1.9 2.79 1.66 3.23.8.44-.85 1-3.12.08-4.22-.88-1.1-.88-1.66-2.31-1.38Zm-.16 7.07c-.08.44-4.42 10.92-4.06 12.95.36 2.03 2 1.75 2.07 1.46.08-.28 2.63-1.46 2.99-6.62.35-5.15.35-7.14.07-7.5-.27-.37-1.07-.3-1.07-.3Z"/>
  <path stroke="#444" stroke-linecap="round" stroke-linejoin="round" stroke-miterlimit="10" stroke-width=".4" d="M26.74 32.4c-.44-.73.44-3.58-1.8-3.41-2.22.16-4.69-.81-3.22 4.5 1.44 5.32.36 7.27 3.35 8.25 2.98 1.01 8.07.28 8.07.28m-7.04-2.27-1.99.65m3.34 2.4c.08.28.28 6.86.28 6.86s-5.49 3.65-5.77 4.3c-.28.65.36 1.1.64.65m4.93-3.29c0 .28.08 2.4.2 2.76.08.37-3.22-.57-1.79.57 1.43 1.14 4.3.57 3.23 0m-.37-4.43c.64.2 2.8 3.21 3.59 3.21.8 0 2.7-.08 1.63.45-1.07.53-1.07.57-1.07.57"/>
  <path stroke="#444" stroke-linecap="round" stroke-linejoin="round" stroke-miterlimit="10" stroke-width=".4" d="M27.38 40.28s-.72.36 3.93.36c4.7 0 5.22-.08 5.14 1.18-.08 1.3-1.71 10.27-.56 11.08 1.15.82 4.3 1.1 3.14.09-1.15-1.02-2.34-.65-2.34-.65"/>
  <path stroke="#444" stroke-linecap="round" stroke-linejoin="round" stroke-miterlimit="10" stroke-width=".4" d="M28.73 39.67s7.72-.37 8.55 1.38c.2.4 1.28 9.9 2.07 10.55.8.65 2.63-.8 2.87.2.28 1.02-.8 1.02-1.44.94m-8.03-30.98s-1.36.45-1.63-.57m6.68-1.91c-.08.29 1.63 3.58 3.78 2.48 1.08-.57 1.15-2.4 0-4.39-1.27-2.23-3.58-1.17-3.86-.2a4.14 4.14 0 0 0 .08 2.11Zm3.22 14.05c0-.57-.63-3.65-.8-5.4-.15-1.74.72-4.3.72-4.3.08-.45-.63-1.46-1.27-.81 0 0-2.43 3.12-2.63 4.38-.2 1.3-.2 6.25.64 7.07.8.8 2.7.2 2.7.2"/>
  <path stroke="#444" stroke-linecap="round" stroke-linejoin="round" stroke-miterlimit="10" stroke-width=".4" d="M40.82 24.16s.28 2.03 1.56 2.76c1.27.73 6.2-2.76 6.56-3.41m.32-.9c-.16 0-.84-.2-.84-.2l.44-2.97 2.59.41-.52 2.97-1.67-.2Z"/>
  <path fill="#fff" stroke="#444" stroke-linecap="round" stroke-linejoin="round" stroke-miterlimit="10" stroke-width=".4" d="M48.9 23.59s1.16-1.1.72-1.3c-.64-.29-.8.53-.88.93-.08.4.16.37.16.37Z"/>
  <path stroke="#444" stroke-linecap="round" stroke-linejoin="round" stroke-miterlimit="10" stroke-width=".4" d="M41.58 17.98c-.36-.2-2.07.73-2.43 1.18m-.08 5.64c-.04.09-.75 2.89-.55 5.04.2 2.15 2.82 2.52 4.17 2.27 1.36-.24 1.8-.08 1.44 0"/>
  <path fill="#fff" fill-opacity=".6" stroke="#444" stroke-linecap="round" stroke-linejoin="round" stroke-miterlimit="10" stroke-width=".4" d="M44.45 29.6c-.96.28-13.1 9.38-13.1 9.38s33.47-.41 38.72-.41 18.62.28 18.23 0c-.4-.28-11.62-5.77-13.21-7.02a104.5 104.5 0 0 0-3.39-2.48l-27.25.53Z"/>
  <path stroke="#444" stroke-linecap="round" stroke-linejoin="round" stroke-miterlimit="10" stroke-width=".4" d="M44.72 33.86c-.55.12-2.54 1.9-2.54 1.9l3.9.58 2.03-2.2-3.39-.28Zm7.56 0v1.9s4.18.13 3.78-.28c-.4-.4-.27-2.19-.67-2.19-.44.04-3.1.57-3.1.57Zm9.32-3.29-1.36 1.9 3.66.42s2.03-2.08 1.36-2.36c-.72-.24-3.66.04-3.66.04Zm6.04 3.17s-2.03 1.66-1.63 1.78c.4.13 2.31 1.39 2.31 1.39L71.3 35l-3.66-1.26Zm-19.81-2.88c-.12.4-.68 1.66-.68 1.66s2.55 1.26 2.55.69c0-.57 1.75-2.2 1.23-2.48-.56-.28-3.1.13-3.1.13Zm6.05-.41c-.28.4.27 1.38.27 1.38l3.23-.12s1.23-1.26.67-1.26h-4.17Zm5.92 4.51 2.03 2.47 2.6-.8-1.36-2.6-3.26.93Zm22.13 4.42.91 14.5s1.08.08 1-.29c-.08-.36-.2-14.86-.2-14.86m-13.37.45.28 10.2s1.71.07 1.63-.21c-.08-.29-.44-10.48-.44-10.48m-25.86.69c.04.57.48 9.18.48 9.18s1.5-.53 1.43-.45c-.08.08-.12-9.01-.12-9.01m-5.45-.33c.55 0 1.15.45 1.55 1.55.4 1.1-1.47 6.05-1.47 7.02 0 .98 3.78.29 2.7 1.38-1.07 1.1-2.03.12-2.03.12m36.61-23.79c0 .12-.12 4.59-2.3 6.09-2.2 1.5-4.22.97-4.22.97s-1 .25-.44.65c.56.41.91.13.91.13m-43.77-3.9s-.32 6.09 3.86 6.94c2.23.45 4.26.65 5.3.73.51.04 1.03-.16 1.3-.6.17-.25.17-.41-.31-.25-1.07.36-.84.16-.84.16"/>
  <path stroke="#444" stroke-linecap="round" stroke-linejoin="round" stroke-miterlimit="10" stroke-width=".4" d="M31.47 28.9c.08.29 1.52 5.28 3.43 5.65 2.3.45 4.33.16 4.33.16"/>
</svg>
