<svg style="position: absolute; width: 0; height: 0; overflow: hidden;" version="1.1" xmlns="http://www.w3.org/2000/svg" xmlns:xlink="http://www.w3.org/1999/xlink">
<defs>
<symbol id="icon-account_circle" viewBox="0 0 24 24">
<title>account_circle</title>
<path class="path1" d="M12 19.219c2.484 0 4.688-1.313 6-3.234-0.047-1.969-4.031-3.094-6-3.094-2.016 0-5.953 1.125-6 3.094 1.313 1.922 3.516 3.234 6 3.234zM12 5.016c-1.641 0-3 1.359-3 3s1.359 3 3 3 3-1.359 3-3-1.359-3-3-3zM12 2.016c5.531 0 9.984 4.453 9.984 9.984s-4.453 9.984-9.984 9.984-9.984-4.453-9.984-9.984 4.453-9.984 9.984-9.984z"></path>
</symbol>
<symbol id="icon-content_copy" viewBox="0 0 24 24">
<title>content_copy</title>
<path class="path1" d="M18.984 21v-14.016h-10.969v14.016h10.969zM18.984 5.016c1.078 0 2.016 0.891 2.016 1.969v14.016c0 1.078-0.938 2.016-2.016 2.016h-10.969c-1.078 0-2.016-0.938-2.016-2.016v-14.016c0-1.078 0.938-1.969 2.016-1.969h10.969zM15.984 0.984v2.016h-12v14.016h-1.969v-14.016c0-1.078 0.891-2.016 1.969-2.016h12z"></path>
</symbol>
<symbol id="icon-delete" viewBox="0 0 24 24">
<title>delete</title>
<path class="path1" d="M18.984 3.984v2.016h-13.969v-2.016h3.469l1.031-0.984h4.969l1.031 0.984h3.469zM6 18.984v-12h12v12c0 1.078-0.938 2.016-2.016 2.016h-7.969c-1.078 0-2.016-0.938-2.016-2.016z"></path>
</symbol>
<symbol id="icon-do_not_disturb_off" viewBox="0 0 24 24">
<title>do_not_disturb_off</title>
<path class="path1" d="M6.984 12.984h3.469l-2.016-1.969h-1.453v1.969zM2.25 2.25l19.5 19.5-1.313 1.266-2.766-2.813c-1.594 1.125-3.563 1.781-5.672 1.781-5.531 0-9.984-4.453-9.984-9.984 0-2.109 0.656-4.078 1.781-5.672l-2.813-2.766zM17.016 11.016h-3.469l-7.219-7.219c1.594-1.125 3.563-1.781 5.672-1.781 5.531 0 9.984 4.453 9.984 9.984 0 2.109-0.656 4.078-1.781 5.672l-4.641-4.688h1.453v-1.969z"></path>
</symbol>
<symbol id="icon-format_bold" viewBox="0 0 24 24">
<title>format_bold</title>
<path class="path1" d="M13.5 15.516c0.844 0 1.5-0.656 1.5-1.5s-0.656-1.5-1.5-1.5h-3.516v3h3.516zM9.984 6.516v3h3c0.844 0 1.5-0.656 1.5-1.5s-0.656-1.5-1.5-1.5h-3zM15.609 10.781c1.313 0.609 2.156 1.922 2.156 3.422 0 2.109-1.594 3.797-3.703 3.797h-7.078v-14.016h6.281c2.25 0 3.984 1.781 3.984 4.031 0 1.031-0.656 2.109-1.641 2.766z"></path>
</symbol>
<symbol id="icon-format_italic" viewBox="0 0 24 24">
<title>format_italic</title>
<path class="path1" d="M9.984 3.984h8.016v3h-2.813l-3.375 8.016h2.203v3h-8.016v-3h2.813l3.375-8.016h-2.203v-3z"></path>
</symbol>
<symbol id="icon-format_line_spacing" viewBox="0 0 24 24">
<title>format_line_spacing</title>
<path class="path1" d="M9.984 12.984v-1.969h12v1.969h-12zM9.984 18.984v-1.969h12v1.969h-12zM9.984 5.016h12v1.969h-12v-1.969zM6 6.984v10.031h2.484l-3.469 3.469-3.516-3.469h2.484v-10.031h-2.484l3.516-3.469 3.469 3.469h-2.484z"></path>
</symbol>
<symbol id="icon-format_list_bulleted" viewBox="0 0 24 24">
<title>format_list_bulleted</title>
<path class="path1" d="M6.984 5.016h14.016v1.969h-14.016v-1.969zM6.984 12.984v-1.969h14.016v1.969h-14.016zM6.984 18.984v-1.969h14.016v1.969h-14.016zM3.984 16.5c0.844 0 1.5 0.703 1.5 1.5s-0.703 1.5-1.5 1.5-1.5-0.703-1.5-1.5 0.656-1.5 1.5-1.5zM3.984 4.5c0.844 0 1.5 0.656 1.5 1.5s-0.656 1.5-1.5 1.5-1.5-0.656-1.5-1.5 0.656-1.5 1.5-1.5zM3.984 10.5c0.844 0 1.5 0.656 1.5 1.5s-0.656 1.5-1.5 1.5-1.5-0.656-1.5-1.5 0.656-1.5 1.5-1.5z"></path>
</symbol>
<symbol id="icon-format_list_numbered" viewBox="0 0 24 24">
<title>format_list_numbered</title>
<path class="path1" d="M6.984 12.984v-1.969h14.016v1.969h-14.016zM6.984 18.984v-1.969h14.016v1.969h-14.016zM6.984 5.016h14.016v1.969h-14.016v-1.969zM2.016 11.016v-1.031h3v0.938l-1.828 2.063h1.828v1.031h-3v-0.938l1.781-2.063h-1.781zM3 8.016v-3h-0.984v-1.031h1.969v4.031h-0.984zM2.016 17.016v-1.031h3v4.031h-3v-1.031h1.969v-0.469h-0.984v-1.031h0.984v-0.469h-1.969z"></path>
</symbol>
<symbol id="icon-format_underlined" viewBox="0 0 24 24">
<title>format_underlined</title>
<path class="path1" d="M5.016 18.984h13.969v2.016h-13.969v-2.016zM12 17.016c-3.328 0-6-2.672-6-6v-8.016h2.484v8.016c0 1.922 1.594 3.469 3.516 3.469s3.516-1.547 3.516-3.469v-8.016h2.484v8.016c0 3.328-2.672 6-6 6z"></path>
</symbol>
<symbol id="icon-input" viewBox="0 0 24 24">
<title>input</title>
<path class="path1" d="M11.016 15.984v-3h-10.031v-1.969h10.031v-3l3.984 3.984zM21 3c1.078 0 2.016 0.891 2.016 2.016v14.016c0 1.078-0.938 1.969-2.016 1.969h-18c-1.078 0-2.016-0.891-2.016-1.969v-4.031h2.016v4.031h18v-14.063h-18v4.031h-2.016v-3.984c0-1.078 0.938-2.016 2.016-2.016h18z"></path>
</symbol>
<symbol id="icon-linear_scale" viewBox="0 0 24 24">
<title>linear_scale</title>
<path class="path1" d="M19.5 9.516c1.359 0 2.484 1.125 2.484 2.484s-1.125 2.484-2.484 2.484c-1.031 0-1.922-0.609-2.297-1.5h-2.906c-0.375 0.891-1.266 1.5-2.297 1.5s-1.922-0.609-2.297-1.5h-2.906c-0.375 0.891-1.266 1.5-2.297 1.5-1.359 0-2.484-1.125-2.484-2.484s1.125-2.484 2.484-2.484c1.031 0 1.922 0.609 2.297 1.5h2.906c0.375-0.891 1.266-1.5 2.297-1.5s1.922 0.609 2.297 1.5h2.906c0.375-0.891 1.266-1.5 2.297-1.5z"></path>
</symbol>
<symbol id="icon-lock_open" viewBox="0 0 24 24">
<title>lock_open</title>
<path class="path1" d="M18 20.016v-10.031h-12v10.031h12zM18 8.016c1.078 0 2.016 0.891 2.016 1.969v10.031c0 1.078-0.938 1.969-2.016 1.969h-12c-1.078 0-2.016-0.891-2.016-1.969v-10.031c0-1.078 0.938-1.969 2.016-1.969h9.094v-2.016c0-1.688-1.406-3.094-3.094-3.094s-3.094 1.406-3.094 3.094h-1.922c0-2.766 2.25-5.016 5.016-5.016s5.016 2.25 5.016 5.016v2.016h0.984zM12 17.016c-1.078 0-2.016-0.938-2.016-2.016s0.938-2.016 2.016-2.016 2.016 0.938 2.016 2.016-0.938 2.016-2.016 2.016z"></path>
</symbol>
<symbol id="icon-lock_outline" viewBox="0 0 24 24">
<title>lock_outline</title>
<path class="path1" d="M18 20.016v-10.031h-12v10.031h12zM8.906 6v2.016h6.188v-2.016c0-1.688-1.406-3.094-3.094-3.094s-3.094 1.406-3.094 3.094zM18 8.016c1.078 0 2.016 0.891 2.016 1.969v10.031c0 1.078-0.938 1.969-2.016 1.969h-12c-1.078 0-2.016-0.891-2.016-1.969v-10.031c0-1.078 0.938-1.969 2.016-1.969h0.984v-2.016c0-2.766 2.25-5.016 5.016-5.016s5.016 2.25 5.016 5.016v2.016h0.984zM12 17.016c-1.078 0-2.016-0.938-2.016-2.016s0.938-2.016 2.016-2.016 2.016 0.938 2.016 2.016-0.938 2.016-2.016 2.016z"></path>
</symbol>
<symbol id="icon-more_vert" viewBox="0 0 24 24">
<title>more_vert</title>
<path class="path1" d="M12 15.984c1.078 0 2.016 0.938 2.016 2.016s-0.938 2.016-2.016 2.016-2.016-0.938-2.016-2.016 0.938-2.016 2.016-2.016zM12 9.984c1.078 0 2.016 0.938 2.016 2.016s-0.938 2.016-2.016 2.016-2.016-0.938-2.016-2.016 0.938-2.016 2.016-2.016zM12 8.016c-1.078 0-2.016-0.938-2.016-2.016s0.938-2.016 2.016-2.016 2.016 0.938 2.016 2.016-0.938 2.016-2.016 2.016z"></path>
</symbol>
<symbol id="icon-open_in_browser" viewBox="0 0 24 24">
<title>open_in_browser</title>
<path class="path1" d="M12 9.984l3.984 4.031h-3v6h-1.969v-6h-3zM18.984 3.984c1.125 0 2.016 0.938 2.016 2.016v12c0 1.078-0.938 2.016-2.016 2.016h-3.984v-2.016h3.984v-9.984h-13.969v9.984h3.984v2.016h-3.984c-1.125 0-2.016-0.938-2.016-2.016v-12c0-1.078 0.891-2.016 2.016-2.016h13.969z"></path>
</symbol>
<symbol id="icon-publish" viewBox="0 0 24 24">
<title>publish</title>
<path class="path1" d="M5.016 14.016l6.984-7.031 6.984 7.031h-3.984v6h-6v-6h-3.984zM5.016 3.984h13.969v2.016h-13.969v-2.016z"></path>
</symbol>
<symbol id="icon-visibility_off" viewBox="0 0 24 24">
<title>visibility_off</title>
<path class="path1" d="M11.859 9h0.141c1.641 0 3 1.359 3 3v0.188zM7.547 9.797c-0.328 0.656-0.563 1.406-0.563 2.203 0 2.766 2.25 5.016 5.016 5.016 0.797 0 1.547-0.234 2.203-0.563l-1.547-1.547c-0.188 0.047-0.422 0.094-0.656 0.094-1.641 0-3-1.359-3-3 0-0.234 0.047-0.469 0.094-0.656zM2.016 4.266l1.266-1.266 17.719 17.719-1.266 1.266c-1.124-1.11-2.256-2.213-3.375-3.328-1.359 0.563-2.813 0.844-4.359 0.844-5.016 0-9.281-3.094-11.016-7.5 0.797-1.969 2.109-3.656 3.75-4.969-0.914-0.914-1.812-1.844-2.719-2.766zM12 6.984c-0.656 0-1.266 0.141-1.828 0.375l-2.156-2.156c1.219-0.469 2.578-0.703 3.984-0.703 5.016 0 9.234 3.094 10.969 7.5-0.75 1.875-1.922 3.469-3.422 4.734l-2.906-2.906c0.234-0.563 0.375-1.172 0.375-1.828 0-2.766-2.25-5.016-5.016-5.016z"></path>
</symbol>
<symbol id="icon-error_outline" viewBox="0 0 24 24">
<title>error_outline</title>
<path class="path1" d="M12 20.016q3.281 0 5.648-2.367t2.367-5.648-2.367-5.648-5.648-2.367-5.648 2.367-2.367 5.648 2.367 5.648 5.648 2.367zM12 2.016q4.125 0 7.055 2.93t2.93 7.055-2.93 7.055-7.055 2.93-7.055-2.93-2.93-7.055 2.93-7.055 7.055-2.93zM11.016 6.984h1.969v6h-1.969v-6zM11.016 15h1.969v2.016h-1.969v-2.016z"></path>
</symbol>
<symbol id="icon-library_books" viewBox="0 0 24 24">
<title>library_books</title>
<path class="path1" d="M18.984 6.984v-1.969h-9.984v1.969h9.984zM15 15v-2.016h-6v2.016h6zM18.984 11.016v-2.016h-9.984v2.016h9.984zM20.016 2.016q0.797 0 1.383 0.586t0.586 1.383v12q0 0.797-0.586 1.406t-1.383 0.609h-12q-0.797 0-1.406-0.609t-0.609-1.406v-12q0-0.797 0.609-1.383t1.406-0.586h12zM3.984 6v14.016h14.016v1.969h-14.016q-0.797 0-1.383-0.586t-0.586-1.383v-14.016h1.969z"></path>
</symbol>
<symbol id="icon-sort_by_alpha" viewBox="0 0 24 24">
<title>sort_by_alpha</title>
<path class="path1" d="M15.75 16.125h6.094v1.594h-8.531v-1.266l5.906-8.578h-5.859v-1.594h8.297v1.266zM4.969 13.641h3.891l-1.969-5.203zM6.094 6.281h1.641l4.5 11.438h-1.828l-0.938-2.438h-5.109l-0.938 2.438h-1.828zM10.266 19.359h4.641l-2.344 2.344zM14.953 4.641h-4.734l2.344-2.344z"></path>
</symbol>
<symbol id="icon-import_export" viewBox="0 0 24 24">
<title>import_export</title>
<path class="path1" d="M15.984 17.016h3l-3.984 3.984-3.984-3.984h3v-7.031h1.969v7.031zM9 3l3.984 3.984h-3v7.031h-1.969v-7.031h-3z"></path>
</symbol>
<symbol id="icon-add_circle_outline" viewBox="0 0 24 24">
<title>add_circle_outline</title>
<path class="path1" d="M12 20.016q3.281 0 5.648-2.367t2.367-5.648-2.367-5.648-5.648-2.367-5.648 2.367-2.367 5.648 2.367 5.648 5.648 2.367zM12 2.016q4.125 0 7.055 2.93t2.93 7.055-2.93 7.055-7.055 2.93-7.055-2.93-2.93-7.055 2.93-7.055 7.055-2.93zM12.984 6.984v4.031h4.031v1.969h-4.031v4.031h-1.969v-4.031h-4.031v-1.969h4.031v-4.031h1.969z"></path>
</symbol>
<symbol id="icon-clear" viewBox="0 0 24 24">
<title>clear</title>
<path class="path1" d="M18.984 6.422l-5.578 5.578 5.578 5.578-1.406 1.406-5.578-5.578-5.578 5.578-1.406-1.406 5.578-5.578-5.578-5.578 1.406-1.406 5.578 5.578 5.578-5.578z"></path>
</symbol>
<symbol id="icon-save" viewBox="0 0 24 24">
<title>save</title>
<path class="path1" d="M15 9v-3.984h-9.984v3.984h9.984zM12 18.984q1.219 0 2.109-0.891t0.891-2.109-0.891-2.109-2.109-0.891-2.109 0.891-0.891 2.109 0.891 2.109 2.109 0.891zM17.016 3l3.984 3.984v12q0 0.797-0.609 1.406t-1.406 0.609h-13.969q-0.844 0-1.43-0.609t-0.586-1.406v-13.969q0-0.797 0.586-1.406t1.43-0.609h12z"></path>
</symbol>
<symbol id="icon-attach_file" viewBox="0 0 24 24">
<title>attach_file</title>
<path class="path1" d="M16.5 6h1.5v11.484q0 2.297-1.594 3.914t-3.891 1.617-3.914-1.617-1.617-3.914v-12.469q0-1.641 1.195-2.836t2.836-1.195 2.813 1.195 1.172 2.836v10.5q0 1.031-0.727 1.758t-1.758 0.727-1.781-0.727-0.75-1.758v-9.516h1.5v9.516q0 0.422 0.305 0.703t0.727 0.281 0.703-0.281 0.281-0.703v-10.5q0-1.031-0.727-1.781t-1.758-0.75-1.781 0.75-0.75 1.781v12.469q0 1.641 1.195 2.836t2.836 1.195 2.813-1.195 1.172-2.836v-11.484z"></path>
</symbol>
<symbol id="icon-collections" viewBox="0 0 24 24">
<title>collections</title>
<path class="path1" d="M2.016 6h1.969v14.016h14.016v1.969h-14.016q-0.797 0-1.383-0.586t-0.586-1.383v-14.016zM11.016 12l-3 3.984h12l-4.031-4.969-2.953 3.703zM21.984 15.984q0 0.797-0.586 1.406t-1.383 0.609h-12q-0.797 0-1.406-0.609t-0.609-1.406v-12q0-0.797 0.609-1.383t1.406-0.586h12q0.797 0 1.383 0.586t0.586 1.383v12z"></path>
</symbol>
<symbol id="icon-remove_red_eye" viewBox="0 0 24 24">
<title>remove_red_eye</title>
<path class="path1" d="M12 9q1.219 0 2.109 0.891t0.891 2.109-0.891 2.109-2.109 0.891-2.109-0.891-0.891-2.109 0.891-2.109 2.109-0.891zM12 17.016q2.063 0 3.539-1.477t1.477-3.539-1.477-3.539-3.539-1.477-3.539 1.477-1.477 3.539 1.477 3.539 3.539 1.477zM12 4.5q3.703 0 6.703 2.063t4.313 5.438q-1.313 3.375-4.313 5.438t-6.703 2.063-6.703-2.063-4.313-5.438q1.313-3.375 4.313-5.438t6.703-2.063z"></path>
</symbol>
<symbol id="icon-apps" viewBox="0 0 24 24">
<title>apps</title>
<path class="path1" d="M15.984 20.016v-4.031h4.031v4.031h-4.031zM15.984 14.016v-4.031h4.031v4.031h-4.031zM9.984 8.016v-4.031h4.031v4.031h-4.031zM15.984 3.984h4.031v4.031h-4.031v-4.031zM9.984 14.016v-4.031h4.031v4.031h-4.031zM3.984 14.016v-4.031h4.031v4.031h-4.031zM3.984 20.016v-4.031h4.031v4.031h-4.031zM9.984 20.016v-4.031h4.031v4.031h-4.031zM3.984 8.016v-4.031h4.031v4.031h-4.031z"></path>
</symbol>
<symbol id="icon-menu" viewBox="0 0 24 24">
<title>menu</title>
<path class="path1" d="M3 6h18v2.016h-18v-2.016zM3 12.984v-1.969h18v1.969h-18zM3 18v-2.016h18v2.016h-18z"></path>
</symbol>
<symbol id="icon-more_vert2" viewBox="0 0 24 24">
<title>more_vert2</title>
<path class="path1" d="M12 15.984q0.797 0 1.406 0.609t0.609 1.406-0.609 1.406-1.406 0.609-1.406-0.609-0.609-1.406 0.609-1.406 1.406-0.609zM12 9.984q0.797 0 1.406 0.609t0.609 1.406-0.609 1.406-1.406 0.609-1.406-0.609-0.609-1.406 0.609-1.406 1.406-0.609zM12 8.016q-0.797 0-1.406-0.609t-0.609-1.406 0.609-1.406 1.406-0.609 1.406 0.609 0.609 1.406-0.609 1.406-1.406 0.609z"></path>
</symbol>
<symbol id="icon-person" viewBox="0 0 24 24">
<title>person</title>
<path class="path1" d="M12 14.016q2.531 0 5.273 1.102t2.742 2.883v2.016h-16.031v-2.016q0-1.781 2.742-2.883t5.273-1.102zM12 12q-1.641 0-2.813-1.172t-1.172-2.813 1.172-2.836 2.813-1.195 2.813 1.195 1.172 2.836-1.172 2.813-2.813 1.172z"></path>
</symbol>
<symbol id="icon-exit_to_app" viewBox="0 0 24 24">
<title>exit_to_app</title>
<path class="path1" d="M18.984 3q0.797 0 1.406 0.609t0.609 1.406v13.969q0 0.797-0.609 1.406t-1.406 0.609h-13.969q-0.844 0-1.43-0.609t-0.586-1.406v-3.984h2.016v3.984h13.969v-13.969h-13.969v3.984h-2.016v-3.984q0-0.797 0.586-1.406t1.43-0.609h13.969zM10.078 15.609l2.578-2.625h-9.656v-1.969h9.656l-2.578-2.625 1.406-1.406 5.016 5.016-5.016 5.016z"></path>
</symbol>
<symbol id="icon-list" viewBox="0 0 24 24">
<title>list</title>
<path class="path1" d="M6.984 6.984h14.016v2.016h-14.016v-2.016zM6.984 17.016v-2.016h14.016v2.016h-14.016zM6.984 12.984v-1.969h14.016v1.969h-14.016zM3 9v-2.016h2.016v2.016h-2.016zM3 17.016v-2.016h2.016v2.016h-2.016zM3 12.984v-1.969h2.016v1.969h-2.016z"></path>
</symbol>
<symbol id="icon-query_builder" viewBox="0 0 24 24">
<title>query_builder</title>
<path class="path1" d="M12.516 6.984v5.25l4.5 2.672-0.75 1.266-5.25-3.188v-6h1.5zM12 20.016q3.281 0 5.648-2.367t2.367-5.648-2.367-5.648-5.648-2.367-5.648 2.367-2.367 5.648 2.367 5.648 5.648 2.367zM12 2.016q4.125 0 7.055 2.93t2.93 7.055-2.93 7.055-7.055 2.93-7.055-2.93-2.93-7.055 2.93-7.055 7.055-2.93z"></path>
</symbol>
<symbol id="icon-search" viewBox="0 0 24 24">
<title>search</title>
<path class="path1" d="M9.516 14.016q1.875 0 3.188-1.313t1.313-3.188-1.313-3.188-3.188-1.313-3.188 1.313-1.313 3.188 1.313 3.188 3.188 1.313zM15.516 14.016l4.969 4.969-1.5 1.5-4.969-4.969v-0.797l-0.281-0.281q-1.781 1.547-4.219 1.547-2.719 0-4.617-1.875t-1.898-4.594 1.898-4.617 4.617-1.898 4.594 1.898 1.875 4.617q0 2.438-1.547 4.219l0.281 0.281h0.797z"></path>
</symbol>
<symbol id="icon-today" viewBox="0 0 24 24">
<title>today</title>
<path class="path1" d="M6.984 9.984h5.016v5.016h-5.016v-5.016zM18.984 18.984v-10.969h-13.969v10.969h13.969zM18.984 3q0.797 0 1.406 0.609t0.609 1.406v13.969q0 0.797-0.609 1.406t-1.406 0.609h-13.969q-0.844 0-1.43-0.609t-0.586-1.406v-13.969q0-0.797 0.586-1.406t1.43-0.609h0.984v-2.016h2.016v2.016h7.969v-2.016h2.016v2.016h0.984z"></path>
</symbol>
<symbol id="icon-help_outline" viewBox="0 0 24 24">
<title>help_outline</title>
<path class="path1" d="M12 6q1.641 0 2.813 1.172t1.172 2.813q0 1.266-1.5 2.602t-1.5 2.414h-1.969q0-1.078 0.469-1.852t1.031-1.125 1.031-0.867 0.469-1.172q0-0.797-0.609-1.383t-1.406-0.586-1.406 0.586-0.609 1.383h-1.969q0-1.641 1.172-2.813t2.813-1.172zM12 20.016q3.281 0 5.648-2.367t2.367-5.648-2.367-5.648-5.648-2.367-5.648 2.367-2.367 5.648 2.367 5.648 5.648 2.367zM12 2.016q4.125 0 7.055 2.93t2.93 7.055-2.93 7.055-7.055 2.93-7.055-2.93-2.93-7.055 2.93-7.055 7.055-2.93zM11.016 18v-2.016h1.969v2.016h-1.969z"></path>
</symbol>
<symbol id="icon-copyright" viewBox="0 0 24 24">
<title>copyright</title>
<path class="path1" d="M12 20.016q3.281 0 5.648-2.367t2.367-5.648-2.367-5.648-5.648-2.367-5.648 2.367-2.367 5.648 2.367 5.648 5.648 2.367zM12 2.016q4.125 0 7.055 2.93t2.93 7.055-2.93 7.055-7.055 2.93-7.055-2.93-2.93-7.055 2.93-7.055 7.055-2.93zM11.859 9.141q-1.875 0-1.875 2.719v0.281q0 2.719 1.875 2.719 0.703 0 1.172-0.398t0.469-1.008h1.781q0 1.172-1.031 2.063-0.984 0.844-2.391 0.844-1.875 0-2.859-1.125t-0.984-3.094v-0.281q0-1.922 0.938-3 1.125-1.266 2.906-1.266 1.547 0 2.438 0.891 0.984 0.984 0.984 2.297h-1.781q0-0.328-0.141-0.609-0.234-0.469-0.328-0.563-0.469-0.469-1.172-0.469z"></path>
</symbol>
<symbol id="icon-av_timer" viewBox="0 0 24 24">
<title>av_timer</title>
<path class="path1" d="M6 12q0-0.422 0.281-0.703t0.703-0.281 0.727 0.281 0.305 0.703-0.305 0.703-0.727 0.281-0.703-0.281-0.281-0.703zM18 12q0 0.422-0.281 0.703t-0.703 0.281-0.727-0.281-0.305-0.703 0.305-0.703 0.727-0.281 0.703 0.281 0.281 0.703zM11.016 3h0.984q3.75 0 6.375 2.625t2.625 6.375-2.625 6.375-6.375 2.625-6.375-2.625-2.625-6.375q0-4.5 3.609-7.172v-0.047l6.797 6.797-1.406 1.406-5.438-5.391q-1.547 1.922-1.547 4.406 0 2.906 2.039 4.945t4.945 2.039 4.945-2.039 2.039-4.945q0-2.625-1.734-4.594t-4.266-2.344v1.922h-1.969v-3.984zM11.016 17.016q0-0.422 0.281-0.727t0.703-0.305 0.703 0.305 0.281 0.727-0.281 0.703-0.703 0.281-0.703-0.281-0.281-0.703z"></path>
</symbol>
<symbol id="icon-hearing" viewBox="0 0 24 24">
<title>hearing</title>
<path class="path1" d="M11.484 9q0-1.031 0.75-1.758t1.781-0.727 1.758 0.727 0.727 1.758-0.727 1.758-1.758 0.727-1.781-0.727-0.75-1.758zM7.641 2.625q-2.625 2.625-2.625 6.375t2.625 6.375l-1.406 1.406q-3.234-3.234-3.234-7.781t3.234-7.781zM17.016 20.016q0.797 0 1.383-0.609t0.586-1.406h2.016q0 1.641-1.172 2.813t-2.813 1.172q-0.938 0-1.641-0.328-1.922-0.984-2.766-3.563-0.328-1.031-1.688-2.063-1.922-1.406-2.859-3.141-1.078-1.922-1.078-3.891 0-2.953 2.039-4.969t4.992-2.016 4.969 2.016 2.016 4.969h-2.016q0-2.109-1.43-3.563t-3.539-1.453-3.563 1.453-1.453 3.563q0 1.5 0.797 2.953 0.656 1.266 2.344 2.531 1.875 1.406 2.391 3 0.609 1.781 1.688 2.344 0.375 0.188 0.797 0.188z"></path>
</symbol>
<symbol id="icon-play_circle_outline" viewBox="0 0 24 24">
<title>play_circle_outline</title>
<path class="path1" d="M12 20.016q3.281 0 5.648-2.367t2.367-5.648-2.367-5.648-5.648-2.367-5.648 2.367-2.367 5.648 2.367 5.648 5.648 2.367zM12 2.016q4.125 0 7.055 2.93t2.93 7.055-2.93 7.055-7.055 2.93-7.055-2.93-2.93-7.055 2.93-7.055 7.055-2.93zM9.984 16.5v-9l6 4.5z"></path>
</symbol>
<symbol id="icon-volume_up" viewBox="0 0 24 24">
<title>volume_up</title>
<path class="path1" d="M14.016 3.234q3.047 0.656 5.016 3.117t1.969 5.648-1.969 5.648-5.016 3.117v-2.063q2.203-0.656 3.586-2.484t1.383-4.219-1.383-4.219-3.586-2.484v-2.063zM16.5 12q0 2.813-2.484 4.031v-8.063q2.484 1.219 2.484 4.031zM3 9h3.984l5.016-5.016v16.031l-5.016-5.016h-3.984v-6z"></path>
</symbol>
<symbol id="icon-contacts" viewBox="0 0 24 24">
<title>contacts</title>
<path class="path1" d="M17.016 17.016v-1.5q0-1.125-1.711-1.828t-3.305-0.703-3.305 0.703-1.711 1.828v1.5h10.031zM12 6.75q-0.938 0-1.594 0.656t-0.656 1.594 0.656 1.594 1.594 0.656 1.594-0.656 0.656-1.594-0.656-1.594-1.594-0.656zM20.016 3.984q0.797 0 1.383 0.609t0.586 1.406v12q0 0.797-0.586 1.406t-1.383 0.609h-16.031q-0.797 0-1.383-0.609t-0.586-1.406v-12q0-0.797 0.586-1.406t1.383-0.609h16.031zM3.984 24v-2.016h16.031v2.016h-16.031zM20.016 0v2.016h-16.031v-2.016h16.031z"></path>
</symbol>
<symbol id="icon-forum" viewBox="0 0 24 24">
<title>forum</title>
<path class="path1" d="M17.016 12q0 0.422-0.305 0.703t-0.727 0.281h-9.984l-3.984 4.031v-14.016q0-0.422 0.281-0.703t0.703-0.281h12.984q0.422 0 0.727 0.281t0.305 0.703v9zM21 6q0.422 0 0.703 0.281t0.281 0.703v15l-3.984-3.984h-11.016q-0.422 0-0.703-0.281t-0.281-0.703v-2.016h12.984v-9h2.016z"></path>
</symbol>
<symbol id="icon-swap_calls" viewBox="0 0 24 24">
<title>swap_calls</title>
<path class="path1" d="M18 3.984l3.984 4.031h-3v6.984q0 1.641-1.172 2.813t-2.813 1.172-2.813-1.172-1.172-2.813v-6.984q0-0.797-0.609-1.406t-1.406-0.609-1.406 0.609-0.609 1.406v6.984h3l-3.984 3.984-3.984-3.984h3v-6.984q0-1.641 1.172-2.836t2.813-1.195 2.813 1.195 1.172 2.836v6.984q0 0.797 0.609 1.406t1.406 0.609 1.406-0.609 0.609-1.406v-6.984h-3z"></path>
</symbol>
<symbol id="icon-content_paste" viewBox="0 0 24 24">
<title>content_paste</title>
<path class="path1" d="M18.984 20.016v-16.031h-1.969v3h-10.031v-3h-1.969v16.031h13.969zM12 2.016q-0.422 0-0.703 0.281t-0.281 0.703 0.281 0.703 0.703 0.281 0.703-0.281 0.281-0.703-0.281-0.703-0.703-0.281zM18.984 2.016q0.797 0 1.406 0.586t0.609 1.383v16.031q0 0.797-0.609 1.383t-1.406 0.586h-13.969q-0.797 0-1.406-0.586t-0.609-1.383v-16.031q0-0.797 0.609-1.383t1.406-0.586h4.172q0.328-0.891 1.078-1.453t1.734-0.563 1.734 0.563 1.078 1.453h4.172z"></path>
</symbol>
<symbol id="icon-create" viewBox="0 0 24 24">
<title>create</title>
<path class="path1" d="M20.719 7.031l-1.828 1.828-3.75-3.75 1.828-1.828q0.281-0.281 0.703-0.281t0.703 0.281l2.344 2.344q0.281 0.281 0.281 0.703t-0.281 0.703zM3 17.25l11.063-11.063 3.75 3.75-11.063 11.063h-3.75v-3.75z"></path>
</symbol>
<symbol id="icon-insert_link" viewBox="0 0 24 24">
<title>insert_link</title>
<path class="path1" d="M17.016 6.984q2.063 0 3.516 1.477t1.453 3.539-1.453 3.539-3.516 1.477h-4.031v-1.922h4.031q1.266 0 2.18-0.914t0.914-2.18-0.914-2.18-2.18-0.914h-4.031v-1.922h4.031zM8.016 12.984v-1.969h7.969v1.969h-7.969zM3.891 12q0 1.266 0.914 2.18t2.18 0.914h4.031v1.922h-4.031q-2.063 0-3.516-1.477t-1.453-3.539 1.453-3.539 3.516-1.477h4.031v1.922h-4.031q-1.266 0-2.18 0.914t-0.914 2.18z"></path>
</symbol>
<symbol id="icon-keyboard_arrow_down" viewBox="0 0 24 24">
<title>keyboard_arrow_down</title>
<path class="path1" d="M7.406 7.828l4.594 4.594 4.594-4.594 1.406 1.406-6 6-6-6z"></path>
</symbol>
<symbol id="icon-keyboard_arrow_up" viewBox="0 0 24 24">
<title>keyboard_arrow_up</title>
<path class="path1" d="M7.406 15.422l-1.406-1.406 6-6 6 6-1.406 1.406-4.594-4.594z"></path>
</symbol>
<symbol id="icon-memory" viewBox="0 0 24 24">
<title>memory</title>
<path class="path1" d="M17.016 17.016v-10.031h-10.031v10.031h10.031zM21 11.016h-2.016v1.969h2.016v2.016h-2.016v2.016q0 0.797-0.586 1.383t-1.383 0.586h-2.016v2.016h-2.016v-2.016h-1.969v2.016h-2.016v-2.016h-2.016q-0.797 0-1.383-0.586t-0.586-1.383v-2.016h-2.016v-2.016h2.016v-1.969h-2.016v-2.016h2.016v-2.016q0-0.797 0.586-1.383t1.383-0.586h2.016v-2.016h2.016v2.016h1.969v-2.016h2.016v2.016h2.016q0.797 0 1.383 0.586t0.586 1.383v2.016h2.016v2.016zM12.984 12.984v-1.969h-1.969v1.969h1.969zM15 9v6h-6v-6h6z"></path>
</symbol>
<symbol id="icon-flare" viewBox="0 0 24 24">
<title>flare</title>
<path class="path1" d="M11.016 23.016v-6h1.969v6h-1.969zM5.625 16.969l2.156-2.156 1.406 1.406-2.156 2.156zM14.813 16.219l1.406-1.406 2.156 2.156-1.406 1.406zM12 9q1.219 0 2.109 0.891t0.891 2.109-0.891 2.109-2.109 0.891-2.109-0.891-0.891-2.109 0.891-2.109 2.109-0.891zM17.016 11.016h6v1.969h-6v-1.969zM18.375 7.031l-2.156 2.156-1.406-1.406 2.156-2.156zM12.984 0.984v6h-1.969v-6h1.969zM9.188 7.781l-1.406 1.406-2.156-2.156 1.406-1.406zM6.984 11.016v1.969h-6v-1.969h6z"></path>
</symbol>
<symbol id="icon-flip" viewBox="0 0 24 24">
<title>flip</title>
<path class="path1" d="M18.984 21v-2.016h2.016q0 0.797-0.609 1.406t-1.406 0.609zM18.984 12.984v-1.969h2.016v1.969h-2.016zM15 5.016v-2.016h2.016v2.016h-2.016zM18.984 17.016v-2.016h2.016v2.016h-2.016zM11.016 23.016v-22.031h1.969v22.031h-1.969zM18.984 3q0.797 0 1.406 0.609t0.609 1.406h-2.016v-2.016zM3 5.016q0-0.797 0.609-1.406t1.406-0.609h3.984v2.016h-3.984v13.969h3.984v2.016h-3.984q-0.797 0-1.406-0.609t-0.609-1.406v-13.969zM18.984 9v-2.016h2.016v2.016h-2.016zM15 21v-2.016h2.016v2.016h-2.016z"></path>
</symbol>
<symbol id="icon-arrow_back" viewBox="0 0 24 24">
<title>arrow_back</title>
<path class="path1" d="M20.016 11.016v1.969h-12.188l5.578 5.625-1.406 1.406-8.016-8.016 8.016-8.016 1.406 1.406-5.578 5.625h12.188z"></path>
</symbol>
<symbol id="icon-arrow_forward" viewBox="0 0 24 24">
<title>arrow_forward</title>
<path class="path1" d="M12 3.984l8.016 8.016-8.016 8.016-1.406-1.406 5.578-5.625h-12.188v-1.969h12.188l-5.578-5.625z"></path>
</symbol>
<symbol id="icon-check" viewBox="0 0 24 24">
<title>check</title>
<path class="path1" d="M9 16.172l10.594-10.594 1.406 1.406-12 12-5.578-5.578 1.406-1.406z"></path>
</symbol>
<symbol id="icon-fullscreen_exit" viewBox="0 0 24 24">
<title>fullscreen_exit</title>
<path class="path1" d="M15.984 8.016h3v1.969h-4.969v-4.969h1.969v3zM14.016 18.984v-4.969h4.969v1.969h-3v3h-1.969zM8.016 8.016v-3h1.969v4.969h-4.969v-1.969h3zM5.016 15.984v-1.969h4.969v4.969h-1.969v-3h-3z"></path>
</symbol>
<symbol id="icon-school" viewBox="0 0 24 24">
<title>school</title>
<path class="path1" d="M12 3l11.016 6v8.016h-2.016v-6.938l-9 4.922-11.016-6zM5.016 13.172l6.984 3.844 6.984-3.844v4.031l-6.984 3.797-6.984-3.797v-4.031z"></path>
</symbol>
<symbol id="icon-check_box" viewBox="0 0 24 24">
<title>check_box</title>
<path class="path1" d="M9.984 17.016l9-9-1.406-1.453-7.594 7.594-3.563-3.563-1.406 1.406zM18.984 3q0.844 0 1.43 0.609t0.586 1.406v13.969q0 0.797-0.586 1.406t-1.43 0.609h-13.969q-0.844 0-1.43-0.609t-0.586-1.406v-13.969q0-0.797 0.586-1.406t1.43-0.609h13.969z"></path>
</symbol>
<symbol id="icon-select-arrow" viewBox="0 0 24 24">
<title>select-arrow</title>
<path class="path1" fill="#555" d="M15.7 10.9l-3.6-6.5-3.7 6.5zM8.3 13.8l3.7 6.5 3.6-6.5z"></path>
</symbol>
<symbol id="icon-undo2" viewBox="0 0 24 24">
<title>undo2</title>
<path class="path1" d="M17.856 24c2.665-4.829 3.115-12.195-7.356-11.949v5.949l-9-9 9-9v5.821c12.538-0.327 13.935 11.068 7.356 18.179z"></path>
</symbol>
<symbol id="icon-redo2" viewBox="0 0 24 24">
<title>redo2</title>
<path class="path1" d="M13.5 5.821v-5.821l9 9-9 9v-5.949c-10.471-0.246-10.022 7.12-7.356 11.949-6.579-7.111-5.182-18.506 7.356-18.179z"></path>
</symbol>
</defs>
</svg>
